<svg xmlns="http://www.w3.org/2000/svg" width="116.159" height="138.795" viewBox="0 0 116.159 138.795">
  <g id="Group_30" data-name="Group 30" transform="translate(-35.186 -37.105)">
    <g id="Group_24" data-name="Group 24">
      <path id="Path_13" data-name="Path 13" d="M140.208,37.1H46.173A11,11,0,0,0,35.186,48.091V135.53c0,5.48,3.716,11.852,8.438,14.5l40.57,23.9a18.8,18.8,0,0,0,16.8-.011l41.9-23.876a18.067,18.067,0,0,0,8.457-14.507V48.091A11.21,11.21,0,0,0,140.208,37.1Zm-26.2,16.735q0-5.554,3.025-8.509t8.578-2.953h7.455q5.485,0,8.509,2.989T144.6,53.84v2.11q0,1.548-1.477,1.547h-5.977q-1.478,0-1.477-1.547V54.262a4.542,4.542,0,0,0-.914-3.2,4.3,4.3,0,0,0-3.165-.949h-4.571a4.309,4.309,0,0,0-3.129.949,4.425,4.425,0,0,0-.95,3.2V75.71a4.423,4.423,0,0,0,.95,3.2,4.3,4.3,0,0,0,3.129.95h4.571a4.293,4.293,0,0,0,3.165-.95,4.541,4.541,0,0,0,.914-3.2V71.28a.684.684,0,0,0-.773-.773h-4.22A1.3,1.3,0,0,1,129.2,69.03V64.248a1.3,1.3,0,0,1,1.476-1.477h12.307a1.43,1.43,0,0,1,1.617,1.618V76.132q0,5.485-3.024,8.474T133.067,87.6h-7.455q-5.555,0-8.578-2.954t-3.025-8.509Zm19.622,56.975,1.724,1.253,1.724-1.253-.659,2.027,1.725,1.253h-2.132l-.658,2.027L134.7,114.1h-2.131l1.724-1.253Zm2.382-3.1-.658,2.027-.659-2.027h-2.131l1.724-1.253-.658-2.027,1.724,1.253,1.724-1.253-.659,2.027,1.725,1.253Zm0-6.379-.658,2.027-.659-2.027h-2.131l1.724-1.253-.658-2.027,1.724,1.253,1.724-1.253-.659,2.027,1.725,1.253Zm0-6.379-.658,2.027-.659-2.027h-2.131l1.724-1.253-.658-2.027,1.724,1.253,1.724-1.253-.659,2.027,1.725,1.253Zm-9.535,15.857,1.724,1.253,1.724-1.253-.658,2.027,1.724,1.253h-2.131l-.659,2.027-.658-2.027h-2.131l1.724-1.253Zm2.383-3.1-.659,2.027-.658-2.027h-2.131l1.724-1.253-.659-2.027,1.724,1.253,1.724-1.253-.658,2.027,1.724,1.253Zm0-6.379-.659,2.027-.658-2.027h-2.131l1.724-1.253-.659-2.027L128.2,99.31l1.724-1.253-.658,2.027,1.724,1.253Zm0-6.379-.659,2.027-.658-2.027h-2.131l1.724-1.253-.659-2.027,1.724,1.253,1.724-1.253-.658,2.027,1.724,1.253Zm-9.535,15.857,1.724,1.253,1.724-1.253-.659,2.027,1.725,1.253h-2.132l-.658,2.027-.659-2.027H118.26l1.724-1.253Zm2.382-3.1-.658,2.027-.659-2.027H118.26l1.724-1.253-.658-2.027,1.724,1.253,1.724-1.253-.659,2.027,1.725,1.253Zm0-6.379-.658,2.027-.659-2.027H118.26l1.724-1.253-.658-2.027,1.724,1.253,1.724-1.253-.659,2.027,1.725,1.253Zm0-6.379-.658,2.027-.659-2.027H118.26l1.724-1.253-.658-2.027,1.724,1.253,1.724-1.253-.659,2.027,1.725,1.253Zm-9.535-3.28,1.724,1.253,1.724-1.253-.658,2.027,1.724,1.253h-2.131l-.659,2.027-.658-2.027h-2.131l1.724-1.253Zm.659,8.406-.659-2.027L113.9,99.31l1.724-1.253-.658,2.027,1.724,1.253h-2.131l-.659,2.027-.658-2.027h-2.131Zm0,6.379-.659-2.027,1.724,1.253,1.724-1.253-.658,2.027,1.724,1.253h-2.131l-.659,2.027-.658-2.027h-2.131Zm0,6.379-.659-2.027,1.724,1.253,1.724-1.253-.658,2.027,1.724,1.253h-2.131l-.659,2.027-.658-2.027h-2.131Zm-4.363-21.164-.659,2.027,1.725,1.253H107.4l-.659,2.027-.659-2.027h-2.131l1.724-1.253-.658-2.027,1.724,1.253Zm-3.448,19.137,1.724,1.253,1.724-1.253-.659,2.027,1.725,1.253H107.4l-.659,2.027-.659-2.027h-2.131l1.724-1.253Zm2.383-3.1-.659,2.027-.659-2.027h-2.131l1.724-1.253-.658-2.027,1.724,1.253,1.724-1.253-.659,2.027,1.725,1.253Zm0-6.379-.659,2.027-.659-2.027h-2.131l1.724-1.253-.658-2.027,1.724,1.253,1.724-1.253-.659,2.027,1.725,1.253ZM73.575,43.854a1.3,1.3,0,0,1,1.477-1.476h5.274a1.983,1.983,0,0,1,1.969.985L96.5,70.015h.282V43.854a1.3,1.3,0,0,1,1.476-1.476h5.837a1.3,1.3,0,0,1,1.477,1.476V86.118a1.306,1.306,0,0,1-1.477,1.477H98.961a2.35,2.35,0,0,1-2.25-1.407L82.647,60.029h-.282V86.118A1.305,1.305,0,0,1,80.889,87.6H75.052a1.306,1.306,0,0,1-1.477-1.477Zm-31.644,0a1.3,1.3,0,0,1,1.477-1.476H65.84q1.407,0,1.407,1.476v4.782q0,1.477-1.407,1.477H51.706q-.844,0-.844.774v10.9a.746.746,0,0,0,.844.844H63.731a1.305,1.305,0,0,1,1.477,1.476v4.712q0,1.548-1.477,1.547H51.706q-.844,0-.844.773V86.118A1.306,1.306,0,0,1,49.385,87.6H43.408a1.306,1.306,0,0,1-1.477-1.477Zm-.7,47.757h60.374v4.17H41.234Zm0,9.991h60.374v4.17H41.234Zm0,9.991h60.374v4.17H41.234ZM46.6,144.761a12.215,12.215,0,0,1-5.365-9.231V120.386H80.64L61.323,153.435Zm51.417,23.888c-.07.039-.157.066-.229.1l-.679-10.258H89.365l-.671,10.787a8.071,8.071,0,0,1-1.525-.621L66.534,156.505l21.11-36.119H98.7l20.851,35.989ZM145.3,135.531a12.22,12.22,0,0,1-5.384,9.241l-15.1,8.608L105.7,120.4h39.6ZM143.166,114.1l-.659,2.027-.658-2.027h-2.132l1.725-1.253-.659-2.027,1.724,1.253,1.725-1.253-.659,2.027L145.3,114.1Zm0-6.379-.659,2.027-.658-2.027h-2.132l1.725-1.253-.659-2.027,1.724,1.253,1.725-1.253-.659,2.027,1.724,1.253Zm0-6.379-.659,2.027-.658-2.027h-2.132l1.725-1.253-.659-2.027,1.724,1.253,1.725-1.253-.659,2.027,1.724,1.253Zm0-6.379-.659,2.027-.658-2.027h-2.132l1.725-1.253-.659-2.027,1.724,1.253,1.725-1.253-.659,2.027,1.724,1.253Z" fill="#e6fd36"/>
      <path id="Path_14" data-name="Path 14" d="M95.185,128.714H91.346l-.519,8.77H95.7Z" fill="#e6fd36"/>
      <path id="Path_15" data-name="Path 15" d="M94.692,120.4H91.838l-.311,5.26H95Z" fill="#e6fd36"/>
      <path id="Path_16" data-name="Path 16" d="M90.494,140.924l-.831,13.369h7.2l-.885-13.369Z" fill="#e6fd36"/>
    </g>
  </g>
</svg>
