<svg xmlns="http://www.w3.org/2000/svg" width="117.009" height="149.485" viewBox="0 0 117.009 149.485">
  <g id="Group_35" data-name="Group 35" transform="translate(-202.627 -173.258)">
    <g id="Group_35-2" data-name="Group 35" transform="translate(202.627 173.258)">
      <path id="Path_22" data-name="Path 22" d="M370.846,227.017a44.582,44.582,0,0,0,2.108-14.127v-.308a48.437,48.437,0,0,0-.746-8.679q-.186-1.026-.419-2.021a37.294,37.294,0,0,0-1.819-5.7A35.819,35.819,0,0,0,367.919,192a32.328,32.328,0,0,0-6.467-8.053,34.08,34.08,0,0,0-4.473-3.393,36.746,36.746,0,0,0-3.346-1.892q-.873-.436-1.783-.835-1.818-.8-3.784-1.448a49.678,49.678,0,0,0-8.32-1.953l-.962,1.814-13.148,24.809h.521q7.16,0,11.147,3.28a10.267,10.267,0,0,1,2.427,2.89,11.164,11.164,0,0,1,1,2.4,15.456,15.456,0,0,1,.56,4.3v.289a14.045,14.045,0,0,1-.56,4.068,11.1,11.1,0,0,1-1,2.327,11.221,11.221,0,0,1-2.427,2.92,14.075,14.075,0,0,1-6.7,3.03,23.22,23.22,0,0,1-4.3.386h-4.522l8.832,8.963,3.635,3.689-3.635,3.689-9.233,9.37h7.771a63.8,63.8,0,0,0,9.113-.633,54.455,54.455,0,0,0,8.42-1.889,40.82,40.82,0,0,0,9.218-4.152q.833-.513,1.631-1.066a35.306,35.306,0,0,0,3.052-2.369q.727-.628,1.415-1.294a33.419,33.419,0,0,0,2.592-2.815,36.036,36.036,0,0,0,5.087-8.349C370.114,229.1,370.5,228.069,370.846,227.017Z" transform="translate(-255.944 -173.785)" fill="#e6fd36"/>
      <path id="Path_23" data-name="Path 23" d="M257.306,255.549l16.243-16.483-12.467-12.652-5.179-5.256-9.531-9.672v14.622H231.623V200.668H266.3l8.784-16.576,5.689-10.736.053-.1h-78.2V322.743l29-33.569V252.713h14.748v13.932l9.13-9.266Zm-50.1,52.3v-40.03l3.685,31,16.235-9.89Zm3-124.471-3,14.9v-19.2h40.03Zm58.128,55.743-11.5,10.716,7.314-10.716-12.226-15.291Z" transform="translate(-202.627 -173.258)" fill="#e6fd36"/>
    </g>
  </g>
</svg>
