<svg xmlns="http://www.w3.org/2000/svg" width="185.9" height="118.918" viewBox="0 0 185.9 118.918">
  <g id="Group_33" data-name="Group 33" transform="translate(-251.806 -341.232)">
    <path id="Path_17" data-name="Path 17" d="M252.093,341.232v73.745h9.393V354.548l167,57.025v38.575H405.664v9.588h32.221V404.67Z" transform="translate(-0.179)" fill="#e6fd36"/>
    <g id="Group_33-2" data-name="Group 33" transform="translate(251.806 423.171)">
      <path id="Path_18" data-name="Path 18" d="M268.467,597.072a27.6,27.6,0,0,1-9.067-1.482,21.95,21.95,0,0,1-7.593-4.447l5.485-6.566a18.1,18.1,0,0,0,11.531,4.266,5.862,5.862,0,0,0,3.023-.634,2,2,0,0,0,1.042-1.8v-.1a1.923,1.923,0,0,0-.254-.989,2.624,2.624,0,0,0-.941-.837,9.73,9.73,0,0,0-1.827-.785q-1.143-.381-2.972-.787-2.845-.657-5.282-1.443a16.193,16.193,0,0,1-4.242-2.029,8.66,8.66,0,0,1-3.885-7.683v-.1a10.948,10.948,0,0,1,.94-4.564,10.132,10.132,0,0,1,2.744-3.6,12.874,12.874,0,0,1,4.342-2.357,18.319,18.319,0,0,1,5.74-.837,25.605,25.605,0,0,1,8.153,1.2,20.541,20.541,0,0,1,6.476,3.553l-4.927,6.98a19.983,19.983,0,0,0-5-2.617,15.13,15.13,0,0,0-4.952-.889,4.449,4.449,0,0,0-2.666.66,1.961,1.961,0,0,0-.889,1.622v.1a2.006,2.006,0,0,0,.279,1.065,2.531,2.531,0,0,0,.965.837,10.661,10.661,0,0,0,1.879.761q1.192.379,3.022.785a43.427,43.427,0,0,1,5.511,1.546,16.474,16.474,0,0,1,4.191,2.155,8.658,8.658,0,0,1,2.641,3.068,9.364,9.364,0,0,1,.914,4.284v.1a10.945,10.945,0,0,1-1.041,4.867A10.474,10.474,0,0,1,278.879,594a13.222,13.222,0,0,1-4.521,2.282A20.6,20.6,0,0,1,268.467,597.072Z" transform="translate(-251.806 -560.195)" fill="#e6fd36"/>
      <path id="Path_19" data-name="Path 19" d="M339.829,561.923h11.023l8.075,22.5,8.077-22.5h10.819L363.4,597.734h-9.142Z" transform="translate(-306.864 -561.213)" fill="#e6fd36"/>
      <path id="Path_20" data-name="Path 20" d="M442.91,561.923h11.023l8.076,22.5,8.077-22.5h10.819l-14.426,35.811h-9.142Z" transform="translate(-371.341 -561.213)" fill="#e6fd36"/>
      <path id="Path_21" data-name="Path 21" d="M568.669,597.005a18.737,18.737,0,0,1-7.162-1.371,17.484,17.484,0,0,1-5.816-3.836,18.475,18.475,0,0,1-5.36-13.181v-.1a18.559,18.559,0,0,1,5.333-13.13,17.856,17.856,0,0,1,5.918-3.937,19.371,19.371,0,0,1,7.493-1.422,21.481,21.481,0,0,1,4.978.533,17.084,17.084,0,0,1,4.089,1.524,16.443,16.443,0,0,1,3.353,2.362,19.471,19.471,0,0,1,2.666,3l-7.416,5.74a12.844,12.844,0,0,0-3.351-3.048,8.327,8.327,0,0,0-4.419-1.118,7.9,7.9,0,0,0-3.43.736,8.225,8.225,0,0,0-2.666,2.006,9.367,9.367,0,0,0-1.752,3,10.491,10.491,0,0,0-.635,3.658v.1a10.835,10.835,0,0,0,.635,3.733,9.271,9.271,0,0,0,1.752,3.022,8.189,8.189,0,0,0,2.666,2.007,7.881,7.881,0,0,0,3.43.737,9.806,9.806,0,0,0,2.514-.3,7.676,7.676,0,0,0,2.083-.89,11.3,11.3,0,0,0,1.777-1.372A20.184,20.184,0,0,0,577,583.7l7.416,5.282a26.325,26.325,0,0,1-2.768,3.2,15.882,15.882,0,0,1-3.4,2.54,17.724,17.724,0,0,1-4.267,1.676A21.24,21.24,0,0,1,568.669,597.005Z" transform="translate(-438.532 -560.026)" fill="#e6fd36"/>
    </g>
  </g>
</svg>
