<svg xmlns="http://www.w3.org/2000/svg" width="361.5" height="131.705" viewBox="0 0 361.5 131.705">
  <g id="Group_156" data-name="Group 156" transform="translate(-337.004 -418.954)">
    <path id="Path_187" data-name="Path 187" d="M380.323,479.723,360.33,513.932l19.544,11.513a7.67,7.67,0,0,0,1.444.587l.635-10.216h7.333l.643,9.715c.069-.035.151-.06.217-.1l20.4-11.626L390.8,479.723Zm3.973.009H387l.3,4.982H384Zm-.466,7.879h3.637l.491,8.306h-4.62Zm-1.594,24.226.786-12.661h5.2l.837,12.661Z" transform="translate(7.046 18.357)" fill="#231b1c"/>
    <g id="Group_135" data-name="Group 135" transform="translate(343.413 498.08)">
      <path id="Path_188" data-name="Path 188" d="M421.224,502.818a11.576,11.576,0,0,0,5.1-8.754V479.73H388.818l18.1,31.241Z" transform="translate(-327.761 -479.721)" fill="#373e18"/>
      <path id="Path_189" data-name="Path 189" d="M341.926,479.723v14.344a11.573,11.573,0,0,0,5.082,8.743l13.945,8.215,18.3-31.3Z" transform="translate(-341.926 -479.723)" fill="#373e18"/>
    </g>
    <g id="Group_138" data-name="Group 138" transform="translate(343.413 470.826)">
      <g id="Group_136" data-name="Group 136">
        <rect id="Rectangle_102" data-name="Rectangle 102" width="57.182" height="3.95" transform="translate(0 9.463)" fill="#fdb500"/>
        <rect id="Rectangle_103" data-name="Rectangle 103" width="57.182" height="3.95" transform="translate(0 18.926)" fill="#fdb500"/>
        <rect id="Rectangle_104" data-name="Rectangle 104" width="57.182" height="3.95" fill="#fdb500"/>
      </g>
      <g id="Group_137" data-name="Group 137" transform="translate(59.405 0.064)">
        <path id="Path_190" data-name="Path 190" d="M415.582,471.228l.624,1.919.624-1.919h2.019l-1.633-1.187.624-1.92-1.633,1.187-1.633-1.187.624,1.92-1.633,1.187Z" transform="translate(-379.692 -456.038)" fill="#fdb500"/>
        <path id="Path_191" data-name="Path 191" d="M401.607,460.761l.624-1.92-1.633,1.187-1.633-1.187.624,1.92-1.633,1.187h2.019l.624,1.919.623-1.919h2.019Z" transform="translate(-384.407 -458.841)" fill="#fdb500"/>
        <path id="Path_192" data-name="Path 192" d="M401.607,465.4l.624-1.92-1.633,1.186-1.633-1.186.624,1.92-1.633,1.187h2.019l.624,1.92.623-1.92h2.019Z" transform="translate(-384.407 -457.439)" fill="#fdb500"/>
        <path id="Path_193" data-name="Path 193" d="M406.81,460.761l.624-1.92-1.633,1.187-1.633-1.187.624,1.92-1.633,1.187h2.019l.624,1.919.624-1.919h2.019Z" transform="translate(-382.835 -458.841)" fill="#fdb500"/>
        <path id="Path_194" data-name="Path 194" d="M394.771,475.868l.624,1.92.624-1.92h2.019l-1.633-1.187.624-1.92-1.633,1.186-1.633-1.186.623,1.92-1.633,1.187Z" transform="translate(-385.978 -454.636)" fill="#fdb500"/>
        <path id="Path_195" data-name="Path 195" d="M401.607,470.041l.624-1.92-1.633,1.187-1.633-1.187.624,1.92-1.633,1.187h2.019l.624,1.919.623-1.919h2.019Z" transform="translate(-384.407 -456.038)" fill="#fdb500"/>
        <path id="Path_196" data-name="Path 196" d="M399.974,475.868l.624,1.92.623-1.92h2.019l-1.633-1.187.624-1.92-1.633,1.186-1.633-1.186.624,1.92-1.633,1.187Z" transform="translate(-384.407 -454.636)" fill="#fdb500"/>
        <path id="Path_197" data-name="Path 197" d="M396.4,470.041l.624-1.92-1.633,1.187-1.633-1.187.623,1.92-1.633,1.187h2.019l.624,1.919.624-1.919h2.019Z" transform="translate(-385.978 -456.038)" fill="#fdb500"/>
        <path id="Path_198" data-name="Path 198" d="M391.2,465.4l.624-1.92-1.633,1.186-1.633-1.186.624,1.92-1.633,1.187h2.019l.624,1.92.624-1.92h2.018Z" transform="translate(-387.55 -457.439)" fill="#fdb500"/>
        <path id="Path_199" data-name="Path 199" d="M396.4,465.4l.624-1.92-1.633,1.186-1.633-1.186.623,1.92-1.633,1.187h2.019l.624,1.92.624-1.92h2.019Z" transform="translate(-385.978 -457.439)" fill="#fdb500"/>
        <path id="Path_200" data-name="Path 200" d="M390.192,477.787l.624-1.92h2.018l-1.633-1.187.624-1.92-1.633,1.186-1.633-1.186.624,1.92-1.633,1.187h2.019Z" transform="translate(-387.55 -454.636)" fill="#fdb500"/>
        <path id="Path_201" data-name="Path 201" d="M391.2,460.761l.624-1.92-1.633,1.187-1.633-1.187.624,1.92-1.633,1.187h2.019l.624,1.919.624-1.919h2.018Z" transform="translate(-387.55 -458.841)" fill="#fdb500"/>
        <path id="Path_202" data-name="Path 202" d="M396.4,460.761l.624-1.92-1.633,1.187-1.633-1.187.623,1.92-1.633,1.187h2.019l.624,1.919.624-1.919h2.019Z" transform="translate(-385.978 -458.841)" fill="#fdb500"/>
        <path id="Path_203" data-name="Path 203" d="M389.568,471.228l.624,1.919.624-1.919h2.018l-1.633-1.187.624-1.92-1.633,1.187-1.633-1.187.624,1.92-1.633,1.187Z" transform="translate(-387.55 -456.038)" fill="#fdb500"/>
        <path id="Path_204" data-name="Path 204" d="M415.582,466.587l.624,1.92.624-1.92h2.019l-1.633-1.187.624-1.92-1.633,1.186-1.633-1.186.624,1.92-1.633,1.187Z" transform="translate(-379.692 -457.439)" fill="#fdb500"/>
        <path id="Path_205" data-name="Path 205" d="M410.38,475.868l.623,1.92.624-1.92h2.019l-1.633-1.187.624-1.92L411,473.948l-1.633-1.186.624,1.92-1.633,1.187Z" transform="translate(-381.263 -454.636)" fill="#fdb500"/>
        <path id="Path_206" data-name="Path 206" d="M412.012,470.041l.624-1.92L411,469.308l-1.633-1.187.624,1.92-1.633,1.187h2.019l.623,1.919.624-1.919h2.019Z" transform="translate(-381.263 -456.038)" fill="#fdb500"/>
        <path id="Path_207" data-name="Path 207" d="M415.582,461.947l.624,1.919.624-1.919h2.019l-1.633-1.187.624-1.92-1.633,1.187-1.633-1.187.624,1.92-1.633,1.187Z" transform="translate(-379.692 -458.841)" fill="#fdb500"/>
        <path id="Path_208" data-name="Path 208" d="M415.582,475.868l.624,1.92.624-1.92h2.019l-1.633-1.187.624-1.92-1.633,1.186-1.633-1.186.624,1.92-1.633,1.187Z" transform="translate(-379.692 -454.636)" fill="#fdb500"/>
        <path id="Path_209" data-name="Path 209" d="M406.81,470.041l.624-1.92-1.633,1.187-1.633-1.187.624,1.92-1.633,1.187h2.019l.624,1.919.624-1.919h2.019Z" transform="translate(-382.835 -456.038)" fill="#fdb500"/>
        <path id="Path_210" data-name="Path 210" d="M406.81,465.4l.624-1.92-1.633,1.186-1.633-1.186.624,1.92-1.633,1.187h2.019l.624,1.92.624-1.92h2.019Z" transform="translate(-382.835 -457.439)" fill="#fdb500"/>
        <path id="Path_211" data-name="Path 211" d="M412.012,465.4l.624-1.92L411,464.668l-1.633-1.186.624,1.92-1.633,1.187h2.019l.623,1.92.624-1.92h2.019Z" transform="translate(-381.263 -457.439)" fill="#fdb500"/>
        <path id="Path_212" data-name="Path 212" d="M412.012,460.761l.624-1.92L411,460.028l-1.633-1.187.624,1.92-1.633,1.187h2.019l.623,1.919.624-1.919h2.019Z" transform="translate(-381.263 -458.841)" fill="#fdb500"/>
        <path id="Path_213" data-name="Path 213" d="M405.177,475.868l.624,1.92.624-1.92h2.019l-1.633-1.187.624-1.92-1.633,1.186-1.633-1.186.624,1.92-1.633,1.187Z" transform="translate(-382.835 -454.636)" fill="#fdb500"/>
      </g>
    </g>
    <path id="Path_214" data-name="Path 214" d="M437,419.144H347.933a10.418,10.418,0,0,0-10.406,10.406v82.816a17.107,17.107,0,0,0,7.992,13.73l38.426,22.635a17.81,17.81,0,0,0,15.909-.01l39.682-22.615a17.112,17.112,0,0,0,8.009-13.741V429.55A10.618,10.618,0,0,0,437,419.144Zm-24.815,15.85q0-5.26,2.865-8.059t8.125-2.8h7.061q5.2,0,8.059,2.831t2.865,8.025v2q0,1.467-1.4,1.466H434.1q-1.4,0-1.4-1.466v-1.6a4.3,4.3,0,0,0-.866-3.031,4.069,4.069,0,0,0-3-.9h-4.329a4.083,4.083,0,0,0-2.965.9,4.2,4.2,0,0,0-.9,3.031v20.314a4.194,4.194,0,0,0,.9,3.031,4.083,4.083,0,0,0,2.965.9h4.329a4.069,4.069,0,0,0,3-.9,4.3,4.3,0,0,0,.866-3.031v-4.2a.648.648,0,0,0-.733-.732h-4a1.236,1.236,0,0,1-1.4-1.4v-4.529a1.236,1.236,0,0,1,1.4-1.4h11.656a1.354,1.354,0,0,1,1.531,1.533v11.122q0,5.2-2.865,8.025t-8.059,2.832h-7.061q-5.26,0-8.125-2.8t-2.865-8.059Zm18.585,53.965,1.633,1.186,1.633-1.186-.624,1.919,1.633,1.186h-2.018l-.624,1.919-.624-1.919h-2.018l1.633-1.186Zm2.257-2.936-.624,1.919-.624-1.919h-2.018l1.633-1.186-.624-1.921L432.4,484.1l1.633-1.187-.624,1.921,1.633,1.186Zm0-6.042L432.4,481.9l-.624-1.919h-2.018l1.633-1.186-.624-1.921,1.633,1.186,1.633-1.186-.624,1.921,1.633,1.186Zm0-6.042-.624,1.919-.624-1.919h-2.018l1.633-1.187-.624-1.919,1.633,1.186,1.633-1.186-.624,1.919,1.633,1.188Zm-9.031,15.019,1.633,1.186,1.633-1.186-.622,1.919,1.633,1.186h-2.018l-.625,1.919L425,492.064h-2.018l1.633-1.186Zm2.258-2.936-.625,1.919L425,486.023h-2.018l1.633-1.186-.624-1.921,1.633,1.188,1.633-1.187-.622,1.921,1.633,1.186Zm0-6.042-.625,1.919L425,479.981h-2.018l1.633-1.186-.624-1.921,1.633,1.186,1.633-1.186-.622,1.921,1.633,1.186Zm0-6.042-.625,1.919L425,473.939h-2.018l1.633-1.187-.624-1.919,1.633,1.186,1.633-1.186-.622,1.919,1.633,1.188Zm-9.031,15.019,1.633,1.186,1.633-1.186-.624,1.919,1.633,1.186h-2.018l-.624,1.919-.624-1.919h-2.02l1.634-1.186Zm2.256-2.936-.624,1.919-.624-1.919h-2.02l1.634-1.186-.624-1.921,1.633,1.188,1.633-1.187-.624,1.921,1.633,1.186Zm0-6.042-.624,1.919-.624-1.919h-2.02l1.634-1.186-.624-1.921,1.633,1.186,1.633-1.186-.624,1.921,1.633,1.186Zm0-6.042-.624,1.919-.624-1.919h-2.02l1.634-1.187-.624-1.919,1.633,1.186,1.633-1.186-.624,1.919,1.633,1.188Zm-9.031-3.107,1.633,1.186,1.633-1.186-.624,1.919,1.633,1.188H412.7l-.624,1.919-.624-1.919h-2.018l1.633-1.187Zm.624,7.962-.624-1.921,1.633,1.186,1.633-1.186-.624,1.921,1.633,1.186H412.7l-.624,1.919-.624-1.919h-2.018Zm0,6.042-.624-1.921,1.633,1.188,1.633-1.187-.624,1.921,1.633,1.186H412.7l-.624,1.919-.624-1.919h-2.018Zm0,6.042-.624-1.919,1.633,1.186,1.633-1.186-.624,1.919,1.633,1.186H412.7l-.624,1.919-.624-1.919h-2.018Zm-4.133-20.045-.624,1.919,1.633,1.188h-2.018l-.624,1.919-.624-1.919h-2.018l1.633-1.187-.624-1.919,1.633,1.186Zm-3.266,18.126,1.633,1.186,1.633-1.186-.624,1.919,1.633,1.186h-2.018l-.624,1.919-.624-1.919h-2.018l1.633-1.186Zm2.257-2.936-.624,1.919-.624-1.919h-2.018l1.633-1.186-.624-1.921L405.3,484.1l1.633-1.187-.624,1.921,1.633,1.186Zm0-6.042L405.3,481.9l-.624-1.919h-2.018l1.633-1.186-.624-1.921,1.633,1.186,1.633-1.186-.624,1.921,1.633,1.186Zm-32.04-54.444a1.236,1.236,0,0,1,1.4-1.4h5a1.884,1.884,0,0,1,1.866.932L395.6,450.315h.266V425.537a1.236,1.236,0,0,1,1.4-1.4h5.529a1.236,1.236,0,0,1,1.4,1.4v40.03a1.236,1.236,0,0,1-1.4,1.4H397.93a2.224,2.224,0,0,1-2.13-1.332l-13.322-24.777h-.266v24.711a1.236,1.236,0,0,1-1.4,1.4h-5.529a1.236,1.236,0,0,1-1.4-1.4Zm-29.971,0a1.236,1.236,0,0,1,1.4-1.4h21.246q1.332,0,1.333,1.4v4.529q0,1.4-1.333,1.4H353.174q-.8,0-.8.732v10.324a.707.707,0,0,0,.8.8h11.389a1.237,1.237,0,0,1,1.4,1.4v4.462q0,1.467-1.4,1.465H353.174q-.8,0-.8.733v14.187a1.236,1.236,0,0,1-1.4,1.4h-5.661a1.236,1.236,0,0,1-1.4-1.4Zm-.66,45.232h57.183v3.949H343.255Zm0,9.462h57.183v3.951H343.255Zm0,9.464h57.183v3.951H343.255Zm0,22.672V498.023h37.323l-18.3,31.3-13.945-8.215A11.573,11.573,0,0,1,343.255,512.366Zm53.781,31.368c-.066.036-.148.061-.217.1a12.643,12.643,0,0,1-8.612.5,7.674,7.674,0,0,1-1.444-.587l-19.544-11.513,19.993-34.209h10.475l19.747,34.086Zm44.781-31.368a11.576,11.576,0,0,1-5.1,8.754l-14.306,8.152-18.1-31.241h37.505Zm-2.018-20.3-.624,1.919-.624-1.919h-2.018l1.633-1.186-.624-1.919,1.633,1.186,1.633-1.186-.624,1.919,1.633,1.186Zm0-6.042-.624,1.919-.624-1.919h-2.018l1.633-1.186-.624-1.921,1.633,1.188,1.633-1.187-.624,1.921,1.633,1.186Zm0-6.042-.624,1.919-.624-1.919h-2.018l1.633-1.186-.624-1.921,1.633,1.186,1.633-1.186-.624,1.921,1.633,1.186Zm0-6.042-.624,1.919-.624-1.919h-2.018l1.633-1.187-.624-1.919,1.633,1.186,1.633-1.186-.624,1.919,1.633,1.188Z" transform="translate(0.158 0.057)" fill="#040505"/>
    <g id="Group_141" data-name="Group 141" transform="translate(344.073 424.196)">
      <g id="Group_139" data-name="Group 139" transform="translate(44.291 73.893)">
        <path id="Path_215" data-name="Path 215" d="M382.128,485.781h-3.636L378,494.087h4.62Z" transform="translate(-375.98 -477.902)" fill="#fff"/>
        <path id="Path_216" data-name="Path 216" d="M381.508,479.73h-2.7l-.295,4.982H381.8Z" transform="translate(-375.827 -479.73)" fill="#fff"/>
        <path id="Path_217" data-name="Path 217" d="M377.084,507.443l-.635,10.216a12.643,12.643,0,0,0,8.612-.5l-.643-9.715Z" transform="translate(-376.449 -471.359)" fill="#fff"/>
        <path id="Path_218" data-name="Path 218" d="M377.941,494.663l-.787,12.662h6.823l-.838-12.662Z" transform="translate(-376.236 -475.219)" fill="#fff"/>
      </g>
      <g id="Group_140" data-name="Group 140">
        <path id="Path_219" data-name="Path 219" d="M342.433,424.378v40.03a1.236,1.236,0,0,0,1.4,1.4h5.661a1.236,1.236,0,0,0,1.4-1.4V450.221q0-.732.8-.733h11.389q1.4,0,1.4-1.465v-4.462a1.237,1.237,0,0,0-1.4-1.4H351.692a.707.707,0,0,1-.8-.8V431.039q0-.732.8-.732h13.387q1.332,0,1.333-1.4v-4.529q0-1.4-1.333-1.4H343.833A1.236,1.236,0,0,0,342.433,424.378Z" transform="translate(-342.433 -422.98)" fill="#fff"/>
        <path id="Path_220" data-name="Path 220" d="M366.849,465.807h5.529a1.236,1.236,0,0,0,1.4-1.4V439.7h.266l13.322,24.777a2.224,2.224,0,0,0,2.13,1.332h4.862a1.236,1.236,0,0,0,1.4-1.4v-40.03a1.236,1.236,0,0,0-1.4-1.4h-5.529a1.236,1.236,0,0,0-1.4,1.4v24.777h-.266l-13.453-25.243a1.884,1.884,0,0,0-1.866-.932h-5a1.236,1.236,0,0,0-1.4,1.4v40.03A1.236,1.236,0,0,0,366.849,465.807Z" transform="translate(-335.48 -422.98)" fill="#fff"/>
        <path id="Path_221" data-name="Path 221" d="M412.914,422.98h-7.061q-5.26,0-8.125,2.8t-2.865,8.059V454.95q0,5.262,2.865,8.059t8.125,2.8h7.061q5.2,0,8.059-2.832t2.865-8.025V443.828a1.354,1.354,0,0,0-1.531-1.533H410.649a1.236,1.236,0,0,0-1.4,1.4v4.529a1.236,1.236,0,0,0,1.4,1.4h4a.648.648,0,0,1,.733.732v4.2a4.3,4.3,0,0,1-.866,3.031,4.069,4.069,0,0,1-3,.9h-4.329a4.083,4.083,0,0,1-2.965-.9,4.194,4.194,0,0,1-.9-3.031V434.236a4.2,4.2,0,0,1,.9-3.031,4.083,4.083,0,0,1,2.965-.9h4.329a4.069,4.069,0,0,1,3,.9,4.3,4.3,0,0,1,.866,3.031v1.6q0,1.467,1.4,1.466h5.661q1.4,0,1.4-1.466v-2q0-5.193-2.865-8.025T412.914,422.98Z" transform="translate(-326.595 -422.98)" fill="#fff"/>
      </g>
    </g>
    <g id="Group_155" data-name="Group 155" transform="translate(337.004 418.954)">
      <g id="Group_146" data-name="Group 146" transform="translate(125.746 28.789)">
        <g id="Group_144" data-name="Group 144">
          <g id="Group_142" data-name="Group 142">
            <path id="Path_222" data-name="Path 222" d="M439.173,475.008h-4.487a.981.981,0,0,1-1.109-1.109V442.172a.981.981,0,0,1,1.109-1.108h16.84q1.057,0,1.056,1.108v3.59q0,1.109-1.056,1.108H440.916c-.423,0-.633.194-.633.582v8.181a.559.559,0,0,0,.633.634h9.027a.981.981,0,0,1,1.109,1.108v3.538c0,.773-.371,1.16-1.109,1.16h-9.027c-.423,0-.633.2-.633.582V473.9A.981.981,0,0,1,439.173,475.008Z" transform="translate(-433.577 -441.064)" fill="#373e18"/>
            <path id="Path_223" data-name="Path 223" d="M466.038,475.008h-5.913a8.829,8.829,0,0,1-6.439-2.217,8.528,8.528,0,0,1-2.271-6.388V449.668a8.527,8.527,0,0,1,2.271-6.387,8.824,8.824,0,0,1,6.439-2.217h5.913a8.832,8.832,0,0,1,6.441,2.217,8.532,8.532,0,0,1,2.27,6.387V466.4a8.533,8.533,0,0,1-2.27,6.388A8.838,8.838,0,0,1,466.038,475.008Zm-4.857-5.807h3.749a2.628,2.628,0,0,0,3.115-3.115v-16.1a2.628,2.628,0,0,0-3.115-3.116h-3.749a3.218,3.218,0,0,0-2.375.714,3.4,3.4,0,0,0-.686,2.4v16.1a3.4,3.4,0,0,0,.686,2.4A3.218,3.218,0,0,0,461.182,469.2Z" transform="translate(-428.188 -441.064)" fill="#373e18"/>
            <path id="Path_224" data-name="Path 224" d="M479.8,475.008h-4.487A.981.981,0,0,1,474.2,473.9V442.172a.981.981,0,0,1,1.109-1.108h12.564a8.833,8.833,0,0,1,6.441,2.27,8.532,8.532,0,0,1,2.322,6.388v4.117q0,5.967-4.7,7.918v.212l5.648,11.771q.477,1.268-.9,1.268h-4.276a3.246,3.246,0,0,1-1.372-.212,1.558,1.558,0,0,1-.687-.9l-5.279-11.4h-3.536c-.423,0-.633.194-.633.581V473.9A.981.981,0,0,1,479.8,475.008Zm1.69-17.9h5.172a3.635,3.635,0,0,0,2.482-.714,2.953,2.953,0,0,0,.792-2.3v-4.117a3.123,3.123,0,0,0-.792-2.376,3.549,3.549,0,0,0-2.482-.74h-5.172a.513.513,0,0,0-.581.582v9.079A.513.513,0,0,0,481.486,457.112Z" transform="translate(-421.306 -441.064)" fill="#373e18"/>
            <path id="Path_225" data-name="Path 225" d="M510.278,475.008h-5.6a8.835,8.835,0,0,1-6.44-2.217,8.528,8.528,0,0,1-2.27-6.388V449.668a8.527,8.527,0,0,1,2.27-6.387,8.83,8.83,0,0,1,6.44-2.217h5.6a8.7,8.7,0,0,1,6.388,2.243,8.551,8.551,0,0,1,2.269,6.361v1.585q0,1.162-1.109,1.161H513.34c-.741,0-1.109-.387-1.109-1.161v-1.267a3.417,3.417,0,0,0-.686-2.4,3.222,3.222,0,0,0-2.375-.714h-3.432a3.233,3.233,0,0,0-2.349.714,3.322,3.322,0,0,0-.712,2.4v16.1a3.316,3.316,0,0,0,.712,2.4,3.233,3.233,0,0,0,2.349.714h3.432a3.222,3.222,0,0,0,2.375-.714,3.411,3.411,0,0,0,.686-2.4v-3.326a.513.513,0,0,0-.581-.581h-3.167a.981.981,0,0,1-1.109-1.109v-3.589a.981.981,0,0,1,1.109-1.109h9.237a1.074,1.074,0,0,1,1.215,1.215V466.4a8.549,8.549,0,0,1-2.269,6.361A8.693,8.693,0,0,1,510.278,475.008Z" transform="translate(-414.729 -441.064)" fill="#373e18"/>
            <path id="Path_226" data-name="Path 226" d="M532.689,475.008h-5.913a8.829,8.829,0,0,1-6.439-2.217,8.524,8.524,0,0,1-2.271-6.388V449.668a8.523,8.523,0,0,1,2.271-6.387,8.824,8.824,0,0,1,6.439-2.217h5.913a8.835,8.835,0,0,1,6.441,2.217,8.532,8.532,0,0,1,2.27,6.387V466.4a8.533,8.533,0,0,1-2.27,6.388A8.84,8.84,0,0,1,532.689,475.008Zm-4.857-5.807h3.749a2.629,2.629,0,0,0,3.115-3.115v-16.1a2.629,2.629,0,0,0-3.115-3.116h-3.749a3.218,3.218,0,0,0-2.375.714,3.4,3.4,0,0,0-.686,2.4v16.1a3.4,3.4,0,0,0,.686,2.4A3.218,3.218,0,0,0,527.833,469.2Z" transform="translate(-408.054 -441.064)" fill="#373e18"/>
            <path id="Path_227" data-name="Path 227" d="M552.005,475.008h-4.434q-1.162,0-1.163-1.109V447.452a.513.513,0,0,0-.579-.582h-6.018a.979.979,0,0,1-1.108-1.108v-3.59a.979.979,0,0,1,1.108-1.108h19.954a.98.98,0,0,1,1.108,1.108v3.59a.979.979,0,0,1-1.108,1.108h-6.018c-.423,0-.633.194-.633.582V473.9A.981.981,0,0,1,552.005,475.008Z" transform="translate(-401.821 -441.064)" fill="#373e18"/>
            <path id="Path_228" data-name="Path 228" d="M569.965,475.008h-4.434q-1.162,0-1.161-1.109V447.452a.514.514,0,0,0-.581-.582h-6.018a.979.979,0,0,1-1.108-1.108v-3.59a.98.98,0,0,1,1.108-1.108h19.954a.979.979,0,0,1,1.108,1.108v3.59a.979.979,0,0,1-1.108,1.108h-6.017q-.635,0-.634.582V473.9A.981.981,0,0,1,569.965,475.008Z" transform="translate(-396.395 -441.064)" fill="#373e18"/>
            <path id="Path_229" data-name="Path 229" d="M595.141,475.008H577.879a.981.981,0,0,1-1.109-1.109V442.172a.981.981,0,0,1,1.109-1.108h17.262q1.057,0,1.056,1.108v3.59q0,1.109-1.056,1.108H584.109c-.423,0-.633.194-.633.582v6.862c0,.388.21.581.633.581h9.027A.981.981,0,0,1,594.245,456v3.589a.981.981,0,0,1-1.109,1.109h-9.027c-.423,0-.633.193-.633.581v7.337c0,.388.21.581.633.581h11.033q1.057,0,1.056,1.108v3.59Q596.2,475.008,595.141,475.008Z" transform="translate(-390.322 -441.064)" fill="#373e18"/>
            <path id="Path_230" data-name="Path 230" d="M601.681,475.008H597.3a.981.981,0,0,1-1.109-1.109V442.172a.981.981,0,0,1,1.109-1.108h3.96a1.491,1.491,0,0,1,1.478.738L613.4,461.81h.21V442.172a.98.98,0,0,1,1.109-1.108H619.1a.98.98,0,0,1,1.108,1.108V473.9a.98.98,0,0,1-1.108,1.109h-3.854a1.764,1.764,0,0,1-1.689-1.056L603,454.314h-.212V473.9A.98.98,0,0,1,601.681,475.008Z" transform="translate(-384.455 -441.064)" fill="#373e18"/>
          </g>
          <g id="Group_143" data-name="Group 143" transform="translate(0 40.183)">
            <path id="Path_231" data-name="Path 231" d="M439.068,505.868h-4.382a.98.98,0,0,1-1.109-1.108V473.033a.981.981,0,0,1,1.109-1.108h3.96a1.49,1.49,0,0,1,1.478.738l10.664,20.008H451V473.033a.98.98,0,0,1,1.109-1.108h4.381a.98.98,0,0,1,1.108,1.108V504.76a.979.979,0,0,1-1.108,1.108h-3.854a1.762,1.762,0,0,1-1.689-1.055l-10.557-19.638h-.212V504.76A.979.979,0,0,1,439.068,505.868Z" transform="translate(-433.577 -471.925)" fill="#373e18"/>
            <path id="Path_232" data-name="Path 232" d="M471.511,505.868H465.6a8.834,8.834,0,0,1-6.44-2.216,8.528,8.528,0,0,1-2.27-6.388V480.529a8.532,8.532,0,0,1,2.27-6.388,8.834,8.834,0,0,1,6.44-2.216h5.913a8.834,8.834,0,0,1,6.44,2.216,8.533,8.533,0,0,1,2.271,6.388v16.734a8.529,8.529,0,0,1-2.271,6.388A8.834,8.834,0,0,1,471.511,505.868Zm-4.857-5.806H470.4a2.628,2.628,0,0,0,3.113-3.115v-16.1a2.628,2.628,0,0,0-3.113-3.115h-3.749a3.224,3.224,0,0,0-2.376.714,3.407,3.407,0,0,0-.685,2.4v16.1a3.405,3.405,0,0,0,.685,2.4A3.223,3.223,0,0,0,466.655,500.062Z" transform="translate(-426.535 -471.925)" fill="#373e18"/>
            <path id="Path_233" data-name="Path 233" d="M490.827,505.868h-4.434q-1.162,0-1.163-1.108V478.313a.514.514,0,0,0-.579-.582h-6.02a.979.979,0,0,1-1.108-1.108v-3.59a.98.98,0,0,1,1.108-1.108h19.956a.98.98,0,0,1,1.108,1.108v3.59a.979.979,0,0,1-1.108,1.108H492.57c-.423,0-.633.194-.633.582V504.76A.98.98,0,0,1,490.827,505.868Z" transform="translate(-420.302 -471.925)" fill="#373e18"/>
            <path id="Path_234" data-name="Path 234" d="M520.453,505.868h-5.6a8.834,8.834,0,0,1-6.44-2.216,8.528,8.528,0,0,1-2.27-6.388V480.529a8.532,8.532,0,0,1,2.27-6.388,8.834,8.834,0,0,1,6.44-2.216h5.6a8.7,8.7,0,0,1,6.388,2.243,8.551,8.551,0,0,1,2.27,6.361v1.585q0,1.16-1.109,1.16h-4.486c-.741,0-1.109-.387-1.109-1.16v-1.268a3.413,3.413,0,0,0-.686-2.4,3.222,3.222,0,0,0-2.375-.714h-3.432a3.233,3.233,0,0,0-2.349.714,3.318,3.318,0,0,0-.712,2.4v16.1a3.316,3.316,0,0,0,.712,2.4,3.233,3.233,0,0,0,2.349.714h3.432a3.222,3.222,0,0,0,2.375-.714,3.411,3.411,0,0,0,.686-2.4v-3.326a.513.513,0,0,0-.582-.581h-3.165a.981.981,0,0,1-1.109-1.109v-3.589a.981.981,0,0,1,1.109-1.109H527.9a1.073,1.073,0,0,1,1.215,1.214v8.816a8.549,8.549,0,0,1-2.27,6.361A8.692,8.692,0,0,1,520.453,505.868Z" transform="translate(-411.655 -471.925)" fill="#373e18"/>
            <path id="Path_235" data-name="Path 235" d="M542.864,505.868h-5.913a8.829,8.829,0,0,1-6.439-2.216,8.523,8.523,0,0,1-2.271-6.388V480.529a8.527,8.527,0,0,1,2.271-6.388,8.829,8.829,0,0,1,6.439-2.216h5.913a8.84,8.84,0,0,1,6.441,2.216,8.537,8.537,0,0,1,2.269,6.388v16.734a8.533,8.533,0,0,1-2.269,6.388A8.84,8.84,0,0,1,542.864,505.868Zm-4.857-5.806h3.749a2.629,2.629,0,0,0,3.115-3.115v-16.1a2.629,2.629,0,0,0-3.115-3.115h-3.749a3.218,3.218,0,0,0-2.375.714,3.4,3.4,0,0,0-.686,2.4v16.1a3.4,3.4,0,0,0,.686,2.4A3.218,3.218,0,0,0,538.008,500.062Z" transform="translate(-404.981 -471.925)" fill="#373e18"/>
            <path id="Path_236" data-name="Path 236" d="M556.517,505.868h-4.381a.98.98,0,0,1-1.109-1.108V473.033a.98.98,0,0,1,1.109-1.108h3.96a1.488,1.488,0,0,1,1.477.738l10.664,20.008h.211V473.033a.98.98,0,0,1,1.109-1.108h4.381a.98.98,0,0,1,1.108,1.108V504.76a.979.979,0,0,1-1.108,1.108h-3.854a1.761,1.761,0,0,1-1.689-1.055l-10.559-19.638h-.211V504.76A.979.979,0,0,1,556.517,505.868Z" transform="translate(-398.098 -471.925)" fill="#373e18"/>
            <path id="Path_237" data-name="Path 237" d="M593.113,505.868H575.851a.98.98,0,0,1-1.109-1.108V473.033a.981.981,0,0,1,1.109-1.108h17.262q1.057,0,1.056,1.108v3.59q0,1.109-1.056,1.108H582.081c-.423,0-.633.194-.633.582v6.862c0,.388.21.581.633.581h9.027a.981.981,0,0,1,1.109,1.108v3.59a.98.98,0,0,1-1.109,1.108h-9.027c-.423,0-.633.194-.633.582v7.337c0,.388.21.581.633.581h11.033q1.057,0,1.056,1.108v3.59Q594.169,505.869,593.113,505.868Z" transform="translate(-390.934 -471.925)" fill="#373e18"/>
          </g>
        </g>
        <g id="Group_145" data-name="Group 145" transform="translate(205.876 40.183)">
          <path id="Path_238" data-name="Path 238" d="M591.7,476.213v-.178a.166.166,0,0,1,.188-.189h.762a.166.166,0,0,1,.187.189v.072a.625.625,0,0,0,.134.465.732.732,0,0,0,.492.125h.421a.52.52,0,0,0,.628-.635v-.107a.448.448,0,0,0-.211-.4,1.1,1.1,0,0,0-.523-.165,5.942,5.942,0,0,1-.676-.1,4.47,4.47,0,0,1-.676-.2,1.054,1.054,0,0,1-.525-.474,1.768,1.768,0,0,1-.21-.909v-.314a1.452,1.452,0,0,1,.393-1.083,1.5,1.5,0,0,1,1.092-.384h.9a1.513,1.513,0,0,1,1.1.384,1.447,1.447,0,0,1,.395,1.083v.171a.166.166,0,0,1-.189.187h-.76a.166.166,0,0,1-.187-.187v-.053a.651.651,0,0,0-.134-.475.734.734,0,0,0-.493-.125h-.349a.674.674,0,0,0-.5.139.811.811,0,0,0-.13.542v.169q0,.422.734.484a4.581,4.581,0,0,1,1.352.3,1.156,1.156,0,0,1,.523.479,1.68,1.68,0,0,1,.211.882v.3a1.443,1.443,0,0,1-.395,1.083,1.5,1.5,0,0,1-1.093.385h-.975a1.5,1.5,0,0,1-1.092-.385A1.442,1.442,0,0,1,591.7,476.213Z" transform="translate(-591.69 -471.925)" fill="#373e18"/>
          <path id="Path_239" data-name="Path 239" d="M599.335,471.925h1.324a.167.167,0,0,1,.189.188v5.38a.168.168,0,0,1-.189.189h-.734a.167.167,0,0,1-.187-.189v-4.243H599.7l-.914,3a.22.22,0,0,1-.224.178h-.751a.221.221,0,0,1-.224-.178l-.931-3.009h-.035v4.253a.232.232,0,0,1-.036.148.211.211,0,0,1-.152.04H595.7a.167.167,0,0,1-.187-.189v-5.38a.166.166,0,0,1,.187-.187h1.335a.168.168,0,0,1,.169.125l.949,3.16h.053l.958-3.16A.153.153,0,0,1,599.335,471.925Z" transform="translate(-590.536 -471.925)" fill="#373e18"/>
        </g>
      </g>
      <g id="Group_154" data-name="Group 154">
        <path id="Path_240" data-name="Path 240" d="M379.882,479.647,359.849,513.92l19.582,11.535a7.706,7.706,0,0,0,1.447.589l.637-10.236h7.348l.645,9.734c.069-.035.151-.061.217-.1L410.161,513.8l-19.786-34.151Zm3.98.009h2.708l.3,4.991h-3.3Zm-.467,7.893h3.643l.492,8.322H382.9Zm-1.6,24.273.789-12.686h5.208l.84,12.686Z" transform="translate(-330.103 -400.62)" fill="#231b1c"/>
        <g id="Group_147" data-name="Group 147" transform="translate(5.738 79.027)">
          <path id="Path_241" data-name="Path 241" d="M420.858,502.785a11.593,11.593,0,0,0,5.109-8.77V479.654H388.392l18.133,31.3Z" transform="translate(-327.219 -479.645)" fill="#373e18"/>
          <path id="Path_242" data-name="Path 242" d="M341.411,479.647v14.371a11.593,11.593,0,0,0,5.091,8.759l13.973,8.23L378.8,479.647Z" transform="translate(-341.411 -479.647)" fill="#373e18"/>
        </g>
        <g id="Group_150" data-name="Group 150" transform="translate(5.739 51.721)">
          <g id="Group_148" data-name="Group 148">
            <rect id="Rectangle_105" data-name="Rectangle 105" width="57.29" height="3.957" transform="translate(0 9.481)" fill="#fdb500"/>
            <rect id="Rectangle_106" data-name="Rectangle 106" width="57.29" height="3.957" transform="translate(0 18.962)" fill="#fdb500"/>
            <rect id="Rectangle_107" data-name="Rectangle 107" width="57.29" height="3.957" fill="#fdb500"/>
          </g>
          <g id="Group_149" data-name="Group 149" transform="translate(59.518 0.064)">
            <path id="Path_243" data-name="Path 243" d="M415.206,471.135l.625,1.923.625-1.923h2.022l-1.636-1.189.625-1.923-1.636,1.189-1.636-1.189.625,1.923-1.636,1.189Z" transform="translate(-379.248 -455.917)" fill="#fdb500"/>
            <path id="Path_244" data-name="Path 244" d="M401.2,460.649l.625-1.923-1.636,1.189-1.636-1.189.625,1.923-1.636,1.189h2.022l.625,1.923.625-1.923h2.022Z" transform="translate(-383.972 -458.725)" fill="#fdb500"/>
            <path id="Path_245" data-name="Path 245" d="M401.2,465.3l.625-1.923-1.636,1.189-1.636-1.189.625,1.923-1.636,1.189h2.022l.625,1.923.625-1.923h2.022Z" transform="translate(-383.972 -457.321)" fill="#fdb500"/>
            <path id="Path_246" data-name="Path 246" d="M406.417,460.649l.625-1.923-1.636,1.189-1.636-1.189.625,1.923-1.636,1.189h2.022l.625,1.923.625-1.923h2.022Z" transform="translate(-382.397 -458.725)" fill="#fdb500"/>
            <path id="Path_247" data-name="Path 247" d="M394.356,475.784l.625,1.923.625-1.923h2.022l-1.636-1.189.625-1.923-1.636,1.189-1.636-1.189.625,1.923-1.636,1.189Z" transform="translate(-385.546 -454.512)" fill="#fdb500"/>
            <path id="Path_248" data-name="Path 248" d="M401.2,469.946l.625-1.923-1.636,1.189-1.636-1.189.625,1.923-1.636,1.189h2.022l.625,1.923.625-1.923h2.022Z" transform="translate(-383.972 -455.917)" fill="#fdb500"/>
            <path id="Path_249" data-name="Path 249" d="M399.569,475.784l.625,1.923.625-1.923h2.022L401.2,474.6l.625-1.923-1.636,1.189-1.636-1.189.625,1.923-1.636,1.189Z" transform="translate(-383.972 -454.512)" fill="#fdb500"/>
            <path id="Path_250" data-name="Path 250" d="M395.992,469.946l.625-1.923-1.636,1.189-1.636-1.189.625,1.923-1.636,1.189h2.022l.625,1.923.625-1.923h2.022Z" transform="translate(-385.546 -455.917)" fill="#fdb500"/>
            <path id="Path_251" data-name="Path 251" d="M390.78,465.3l.625-1.923-1.636,1.189-1.636-1.189.625,1.923-1.636,1.189h2.022l.625,1.923.625-1.923h2.022Z" transform="translate(-387.121 -457.321)" fill="#fdb500"/>
            <path id="Path_252" data-name="Path 252" d="M395.992,465.3l.625-1.923-1.636,1.189-1.636-1.189.625,1.923-1.636,1.189h2.022l.625,1.923.625-1.923h2.022Z" transform="translate(-385.546 -457.321)" fill="#fdb500"/>
            <path id="Path_253" data-name="Path 253" d="M389.768,477.707l.625-1.923h2.022L390.78,474.6l.625-1.923-1.636,1.189-1.636-1.189.625,1.923-1.636,1.189h2.022Z" transform="translate(-387.121 -454.512)" fill="#fdb500"/>
            <path id="Path_254" data-name="Path 254" d="M390.78,460.649l.625-1.923-1.636,1.189-1.636-1.189.625,1.923-1.636,1.189h2.022l.625,1.923.625-1.923h2.022Z" transform="translate(-387.121 -458.725)" fill="#fdb500"/>
            <path id="Path_255" data-name="Path 255" d="M395.992,460.649l.625-1.923-1.636,1.189-1.636-1.189.625,1.923-1.636,1.189h2.022l.625,1.923.625-1.923h2.022Z" transform="translate(-385.546 -458.725)" fill="#fdb500"/>
            <path id="Path_256" data-name="Path 256" d="M389.143,471.135l.625,1.923.625-1.923h2.022l-1.636-1.189.625-1.923-1.636,1.189-1.636-1.189.625,1.923-1.636,1.189Z" transform="translate(-387.121 -455.917)" fill="#fdb500"/>
            <path id="Path_257" data-name="Path 257" d="M415.206,466.486l.625,1.923.625-1.923h2.022l-1.636-1.189.625-1.923-1.636,1.189-1.636-1.189.625,1.923-1.636,1.189Z" transform="translate(-379.248 -457.321)" fill="#fdb500"/>
            <path id="Path_258" data-name="Path 258" d="M409.994,475.784l.625,1.923.625-1.923h2.022L411.63,474.6l.625-1.923-1.636,1.189-1.636-1.189.625,1.923-1.636,1.189Z" transform="translate(-380.823 -454.512)" fill="#fdb500"/>
            <path id="Path_259" data-name="Path 259" d="M411.63,469.946l.625-1.923-1.636,1.189-1.636-1.189.625,1.923-1.636,1.189h2.022l.625,1.923.625-1.923h2.022Z" transform="translate(-380.823 -455.917)" fill="#fdb500"/>
            <path id="Path_260" data-name="Path 260" d="M415.206,461.837l.625,1.923.625-1.923h2.022l-1.636-1.189.625-1.923-1.636,1.189-1.636-1.189.625,1.923-1.636,1.189Z" transform="translate(-379.248 -458.725)" fill="#fdb500"/>
            <path id="Path_261" data-name="Path 261" d="M415.206,475.784l.625,1.923.625-1.923h2.022l-1.636-1.189.625-1.923-1.636,1.189-1.636-1.189.625,1.923-1.636,1.189Z" transform="translate(-379.248 -454.512)" fill="#fdb500"/>
            <path id="Path_262" data-name="Path 262" d="M406.417,469.946l.625-1.923-1.636,1.189-1.636-1.189.625,1.923-1.636,1.189h2.022l.625,1.923.625-1.923h2.022Z" transform="translate(-382.397 -455.917)" fill="#fdb500"/>
            <path id="Path_263" data-name="Path 263" d="M406.417,465.3l.625-1.923-1.636,1.189-1.636-1.189.625,1.923-1.636,1.189h2.022l.625,1.923.625-1.923h2.022Z" transform="translate(-382.397 -457.321)" fill="#fdb500"/>
            <path id="Path_264" data-name="Path 264" d="M411.63,465.3l.625-1.923-1.636,1.189-1.636-1.189.625,1.923-1.636,1.189h2.022l.625,1.923.625-1.923h2.022Z" transform="translate(-380.823 -457.321)" fill="#fdb500"/>
            <path id="Path_265" data-name="Path 265" d="M411.63,460.649l.625-1.923-1.636,1.189-1.636-1.189.625,1.923-1.636,1.189h2.022l.625,1.923.625-1.923h2.022Z" transform="translate(-380.823 -458.725)" fill="#fdb500"/>
            <path id="Path_266" data-name="Path 266" d="M404.781,475.784l.625,1.923.625-1.923h2.022l-1.636-1.189.625-1.923-1.636,1.189-1.636-1.189.625,1.923-1.636,1.189Z" transform="translate(-382.397 -454.512)" fill="#fdb500"/>
          </g>
        </g>
        <path id="Path_267" data-name="Path 267" d="M436.661,418.954H347.43A10.437,10.437,0,0,0,337,429.378v82.974a17.135,17.135,0,0,0,8.006,13.755l38.5,22.678a17.84,17.84,0,0,0,15.939-.01L439.2,526.118a17.141,17.141,0,0,0,8.025-13.766V429.378A10.637,10.637,0,0,0,436.661,418.954ZM411.8,434.834q0-5.272,2.87-8.074t8.141-2.8h7.074q5.205,0,8.074,2.837t2.87,8.04v2q0,1.469-1.4,1.469h-5.672q-1.4,0-1.4-1.469v-1.6a4.312,4.312,0,0,0-.867-3.038,4.073,4.073,0,0,0-3-.9h-4.337a4.089,4.089,0,0,0-2.97.9,4.2,4.2,0,0,0-.9,3.038v20.351a4.2,4.2,0,0,0,.9,3.036,4.089,4.089,0,0,0,2.97.9h4.337a4.073,4.073,0,0,0,3-.9,4.306,4.306,0,0,0,.867-3.036v-4.2a.649.649,0,0,0-.733-.734h-4a1.238,1.238,0,0,1-1.4-1.4V444.71a1.238,1.238,0,0,1,1.4-1.4H439.3a1.356,1.356,0,0,1,1.534,1.534v11.144q0,5.205-2.87,8.04t-8.074,2.836h-7.074q-5.27,0-8.141-2.8t-2.87-8.074ZM430.42,488.9l1.635,1.189,1.637-1.189-.625,1.923,1.637,1.189h-2.023l-.625,1.923-.624-1.923h-2.023l1.637-1.189Zm2.26-2.941-.625,1.923-.624-1.923h-2.023l1.637-1.189-.625-1.923,1.635,1.189,1.637-1.189-.625,1.923,1.637,1.189Zm0-6.053-.625,1.923-.624-1.923h-2.023l1.637-1.189-.625-1.923,1.635,1.189,1.637-1.189-.625,1.923L434.7,479.9Zm0-6.053-.625,1.923-.624-1.923h-2.023l1.637-1.189-.625-1.923,1.635,1.189,1.637-1.189-.625,1.923,1.637,1.189ZM423.633,488.9l1.637,1.189L426.9,488.9l-.625,1.923,1.637,1.189h-2.022l-.625,1.923-.625-1.923h-2.022l1.635-1.189Zm2.262-2.941-.625,1.923-.625-1.923h-2.022l1.635-1.189-.625-1.923,1.637,1.189,1.635-1.189-.625,1.923,1.637,1.189Zm0-6.053-.625,1.923-.625-1.923h-2.022l1.635-1.189-.625-1.923,1.637,1.189,1.635-1.189-.625,1.923,1.637,1.189Zm0-6.053-.625,1.923-.625-1.923h-2.022l1.635-1.189-.625-1.923,1.637,1.189,1.635-1.189-.625,1.923,1.637,1.189ZM416.846,488.9l1.635,1.189,1.637-1.189-.625,1.923,1.635,1.189h-2.022l-.625,1.923-.625-1.923h-2.022l1.637-1.189Zm2.26-2.941-.625,1.923-.625-1.923h-2.022l1.637-1.189-.625-1.923,1.635,1.189,1.637-1.189-.625,1.923,1.635,1.189Zm0-6.053-.625,1.923-.625-1.923h-2.022l1.637-1.189-.625-1.923,1.635,1.189,1.637-1.189-.625,1.923,1.635,1.189Zm0-6.053-.625,1.923-.625-1.923h-2.022l1.637-1.189-.625-1.923,1.635,1.189,1.637-1.189-.625,1.923,1.635,1.189Zm-9.048-3.112,1.637,1.189,1.635-1.189-.625,1.923,1.637,1.189H412.32l-.625,1.923-.625-1.923h-2.022l1.635-1.189Zm.625,7.977-.625-1.923,1.637,1.189,1.635-1.189-.625,1.923,1.637,1.189H412.32l-.625,1.923-.625-1.923h-2.022Zm0,6.053-.625-1.923,1.637,1.189,1.635-1.189-.625,1.923,1.637,1.189H412.32l-.625,1.923-.625-1.923h-2.022Zm0,6.053-.625-1.923,1.637,1.189,1.635-1.189-.625,1.923,1.637,1.189H412.32l-.625,1.923-.625-1.923h-2.022Zm-4.139-20.083-.625,1.923,1.635,1.189h-2.022l-.625,1.923-.625-1.923H402.26l1.637-1.189-.625-1.923,1.635,1.189Zm-3.272,18.16,1.635,1.189,1.637-1.189-.625,1.923,1.635,1.189h-2.022l-.625,1.923-.625-1.923H402.26l1.637-1.189Zm2.26-2.941-.625,1.923-.625-1.923H402.26l1.637-1.189-.625-1.923,1.635,1.189,1.637-1.189-.625,1.923,1.635,1.189Zm0-6.053-.625,1.923-.625-1.923H402.26l1.637-1.189-.625-1.923,1.635,1.189,1.637-1.189-.625,1.923,1.635,1.189Zm-32.1-54.545a1.239,1.239,0,0,1,1.4-1.4h5a1.887,1.887,0,0,1,1.87.935l13.478,25.29h.268V425.359a1.239,1.239,0,0,1,1.4-1.4h5.539a1.239,1.239,0,0,1,1.4,1.4v40.1a1.238,1.238,0,0,1-1.4,1.4h-4.872a2.228,2.228,0,0,1-2.134-1.335L382.04,440.707h-.267v24.756a1.238,1.238,0,0,1-1.4,1.4h-5.539a1.238,1.238,0,0,1-1.4-1.4Zm-30.029,0a1.239,1.239,0,0,1,1.4-1.4h21.286q1.334,0,1.335,1.4V429.9q0,1.4-1.335,1.4H352.68q-.8,0-.8.733v10.344a.708.708,0,0,0,.8.8h11.411a1.239,1.239,0,0,1,1.4,1.4v4.471q0,1.469-1.4,1.467H352.68c-.534,0-.8.246-.8.734v14.214a1.238,1.238,0,0,1-1.4,1.4h-5.672a1.239,1.239,0,0,1-1.4-1.4Zm-.661,45.316h57.29v3.957h-57.29Zm0,9.48h57.29v3.957h-57.29Zm0,9.482h57.29v3.957h-57.29Zm0,22.715V497.981h37.393l-18.329,31.361-13.973-8.23A11.593,11.593,0,0,1,342.742,512.352Zm53.883,31.427c-.066.036-.148.062-.217.1a12.669,12.669,0,0,1-8.629.5,7.7,7.7,0,0,1-1.447-.589L366.75,532.254l20.032-34.273h10.493l19.786,34.151Zm44.866-31.427a11.593,11.593,0,0,1-5.109,8.77l-14.333,8.168-18.133-31.3h37.575Zm-2.022-20.341-.625,1.923-.625-1.923H436.2l1.635-1.189-.625-1.923,1.637,1.189,1.637-1.189-.625,1.923,1.635,1.189Zm0-6.053-.625,1.923-.625-1.923H436.2l1.635-1.189-.625-1.923,1.637,1.189,1.637-1.189-.625,1.923,1.635,1.189Zm0-6.053-.625,1.923-.625-1.923H436.2l1.635-1.189-.625-1.923,1.637,1.189,1.637-1.189-.625,1.923,1.635,1.189Zm0-6.053-.625,1.923-.625-1.923H436.2l1.635-1.189-.625-1.923,1.637,1.189,1.637-1.189-.625,1.923,1.635,1.189Z" transform="translate(-337.004 -418.954)" fill="#040505"/>
        <g id="Group_153" data-name="Group 153" transform="translate(6.4 5.003)">
          <g id="Group_151" data-name="Group 151" transform="translate(44.375 74.033)">
            <path id="Path_268" data-name="Path 268" d="M381.689,485.716h-3.643l-.493,8.322h4.629Z" transform="translate(-375.53 -477.823)" fill="#fff"/>
            <path id="Path_269" data-name="Path 269" d="M381.067,479.654h-2.708l-.3,4.991h3.3Z" transform="translate(-375.375 -479.654)" fill="#fff"/>
            <path id="Path_270" data-name="Path 270" d="M376.636,507.419,376,517.655a12.668,12.668,0,0,0,8.629-.5l-.645-9.734Z" transform="translate(-375.999 -471.267)" fill="#fff"/>
            <path id="Path_271" data-name="Path 271" d="M377.494,494.615l-.788,12.686h6.836l-.84-12.686Z" transform="translate(-375.786 -475.135)" fill="#fff"/>
          </g>
          <g id="Group_152" data-name="Group 152">
            <path id="Path_272" data-name="Path 272" d="M341.919,424.2v40.1a1.239,1.239,0,0,0,1.4,1.4h5.672a1.238,1.238,0,0,0,1.4-1.4V450.089c0-.488.267-.734.8-.734h11.411q1.4,0,1.4-1.467v-4.471a1.239,1.239,0,0,0-1.4-1.4H351.2a.708.708,0,0,1-.8-.8V430.87q0-.732.8-.733h13.413q1.334,0,1.335-1.4V424.2q0-1.4-1.335-1.4H343.321A1.239,1.239,0,0,0,341.919,424.2Z" transform="translate(-341.919 -422.796)" fill="#fff"/>
            <path id="Path_273" data-name="Path 273" d="M366.382,465.7h5.539a1.238,1.238,0,0,0,1.4-1.4V439.546h.267l13.346,24.823a2.228,2.228,0,0,0,2.134,1.335h4.872a1.238,1.238,0,0,0,1.4-1.4V424.2a1.239,1.239,0,0,0-1.4-1.4H388.4a1.239,1.239,0,0,0-1.4,1.4v24.823h-.268l-13.478-25.29a1.887,1.887,0,0,0-1.87-.935h-5a1.239,1.239,0,0,0-1.4,1.4v40.1A1.238,1.238,0,0,0,366.382,465.7Z" transform="translate(-334.952 -422.796)" fill="#fff"/>
            <path id="Path_274" data-name="Path 274" d="M412.533,422.8h-7.074q-5.27,0-8.141,2.8t-2.87,8.074v21.154q0,5.271,2.87,8.074t8.141,2.8h7.074q5.205,0,8.074-2.836t2.87-8.04V443.683a1.356,1.356,0,0,0-1.534-1.534H410.264a1.238,1.238,0,0,0-1.4,1.4v4.538a1.238,1.238,0,0,0,1.4,1.4h4a.649.649,0,0,1,.733.734v4.2a4.306,4.306,0,0,1-.867,3.036,4.073,4.073,0,0,1-3,.9h-4.337a4.089,4.089,0,0,1-2.97-.9,4.2,4.2,0,0,1-.9-3.036V434.075a4.2,4.2,0,0,1,.9-3.038,4.089,4.089,0,0,1,2.97-.9h4.337a4.073,4.073,0,0,1,3,.9,4.312,4.312,0,0,1,.867,3.038v1.6q0,1.469,1.4,1.469h5.672q1.4,0,1.4-1.469v-2q0-5.205-2.87-8.04T412.533,422.8Z" transform="translate(-326.051 -422.796)" fill="#fff"/>
          </g>
        </g>
      </g>
    </g>
  </g>
</svg>
