<svg width="149" height="102" viewBox="0 0 149 102" fill="none" xmlns="http://www.w3.org/2000/svg">
<g clip-path="url(#clip0_502_181)">
<path d="M88.9439 51.4855C85.0134 56.7634 83.2848 63.3608 84.1222 69.888C84.9596 76.4151 88.2976 82.3625 93.4332 86.4773C93.5905 86.5999 93.7796 86.6753 93.9781 86.6946C94.1767 86.7138 94.3767 86.6763 94.5547 86.5862C94.7328 86.4962 94.8815 86.3574 94.9837 86.186C95.0859 86.0147 95.1372 85.8178 95.1317 85.6183V85.5962C95.1282 82.213 95.8028 78.8634 97.1154 75.7452C98.4281 72.6271 100.352 69.8036 102.774 67.4415C102.908 67.3144 103.072 67.2244 103.251 67.1807C103.43 67.137 103.617 67.141 103.794 67.1923C109.103 68.6466 114.772 67.9433 119.565 65.2357C124.358 62.5281 127.886 58.0357 129.38 52.7377C129.497 52.324 129.602 51.9069 129.694 51.4833C129.981 50.1411 130.134 48.774 130.153 47.4016C130.153 47.2975 130.162 47.1951 130.162 47.0898C130.162 46.561 130.135 46.0376 130.096 45.5176C129.995 44.1595 129.762 42.8146 129.4 41.5018C129.341 41.2864 129.35 41.0576 129.427 40.8478C129.505 40.638 129.646 40.4577 129.831 40.3322C130.361 39.9618 130.864 39.5523 131.334 39.1071C131.512 38.9327 131.746 38.8277 131.995 38.8112C132.243 38.7948 132.489 38.8679 132.689 39.0174L146.778 49.849L146.858 49.721C147.195 49.8695 147.574 49.8911 147.926 49.7819C148.278 49.6728 148.578 49.4401 148.772 49.127C148.965 48.8138 149.039 48.4412 148.98 48.0778C148.92 47.7144 148.732 47.3848 148.448 47.1497L148.485 47.0904L135.457 33.3607C135.338 33.2336 135.252 33.0788 135.208 32.9105C135.163 32.7421 135.161 32.5653 135.202 32.396C135.415 31.4614 135.523 30.5058 135.524 29.5471C135.501 26.0871 134.111 22.7763 131.656 20.3376C129.202 17.8989 125.882 16.5301 122.422 16.5301C118.962 16.5301 115.642 17.8989 113.187 20.3376C110.733 22.7763 109.342 26.0871 109.32 29.5471C109.32 30.3206 109.39 31.0925 109.53 31.8532L98.2209 15.4531C98.1242 15.3142 97.9956 15.2005 97.8459 15.1217C97.6961 15.0428 97.5296 15.0011 97.3604 15C97.1911 14.9989 97.0241 15.0385 96.8734 15.1154C96.7226 15.1923 96.5926 15.3043 96.4941 15.442C80.3653 37.6672 101.861 52.5521 101.861 52.5521C101.861 52.5521 108.999 58.3811 114.753 53.549C120.174 48.9977 117.626 43.7492 117.311 43.1555C117.293 43.1198 117.271 43.0856 117.248 43.0531L115.656 40.7442C117.251 41.7116 119.035 42.3254 120.888 42.5441C121.108 42.5664 121.317 42.6567 121.483 42.8026C121.65 42.9485 121.767 43.1427 121.818 43.3582C122.108 44.5865 122.309 45.834 122.42 47.091C122.42 49.3642 121.826 51.598 120.696 53.5706L120.602 53.7251C119.444 55.6901 117.795 57.3199 115.816 58.4541C113.838 59.5884 111.598 60.1881 109.317 60.1943C95.2048 60.1943 88.9428 37.9175 88.7501 36.6853C88.2483 34.7793 87.9566 32.8242 87.88 30.8547C87.8709 30.6033 87.7709 30.3636 87.5987 30.1802L81.1279 23.3621C80.9877 23.2126 80.807 23.1072 80.6077 23.059C80.4085 23.0107 80.1996 23.0217 80.0065 23.0906C79.8135 23.1595 79.6448 23.2833 79.5211 23.4467C79.3974 23.6101 79.3241 23.8061 79.3103 24.0106C79.2756 24.5855 79.2571 25.1644 79.2549 25.7474C79.2511 29.7926 80.0665 33.7967 81.6519 37.5183C83.2374 41.2399 85.56 44.6019 88.4798 47.4016C88.9384 47.8447 89.4112 48.2713 89.8982 48.6815C90.0017 48.7704 90.0868 48.8788 90.1484 49.0006C90.21 49.1224 90.247 49.2552 90.2573 49.3913C90.2676 49.5274 90.251 49.6642 90.2083 49.7938C90.1657 49.9235 90.098 50.0435 90.0089 50.1469C89.6408 50.5818 89.2858 51.028 88.9439 51.4855ZM124.869 27.2643C124.869 26.9615 124.959 26.6654 125.128 26.4136C125.296 26.1617 125.535 25.9655 125.815 25.8496C126.095 25.7337 126.402 25.7034 126.7 25.7624C126.997 25.8215 127.269 25.9674 127.484 26.1815C127.698 26.3957 127.844 26.6685 127.903 26.9656C127.962 27.2626 127.931 27.5705 127.816 27.8503C127.7 28.1301 127.503 28.3693 127.252 28.5375C127 28.7058 126.704 28.7956 126.401 28.7956C126.2 28.7957 126.001 28.7561 125.815 28.6792C125.629 28.6023 125.46 28.4895 125.318 28.3473C125.176 28.2051 125.063 28.0362 124.986 27.8504C124.909 27.6646 124.869 27.4654 124.869 27.2643Z" fill="#454545"/>
<path d="M0.317871 41.9792H9.43923V73.4399H0.317871V41.9792Z" fill="#454545"/>
<path d="M38.2139 71.9191C37.2204 72.6271 36.0979 73.1338 34.9098 73.4105C33.5616 73.7471 32.1768 73.9146 30.7872 73.909C27.0445 73.909 24.1499 72.9538 22.1033 71.0435C20.0568 69.1332 19.0334 66.3263 19.033 62.6227V49.7H14.1782V42.6804H19.0319V35.0194H28.1543V42.6804H35.9903V49.7H28.1532V62.5042C28.0806 63.622 28.4479 64.724 29.1767 65.5746C29.5561 65.9482 30.01 66.2376 30.5088 66.424C31.0076 66.6103 31.5401 66.6895 32.0715 66.6562C33.3965 66.6945 34.6953 66.2821 35.7555 65.4865L38.2139 71.9191Z" fill="#454545"/>
<path d="M48.4163 71.8317C45.8643 70.5226 43.7278 68.5281 42.2467 66.072C40.7905 63.5255 40.0244 60.6428 40.0244 57.7093C40.0244 54.7758 40.7905 51.8932 42.2467 49.3467C43.7281 46.8908 45.8645 44.8963 48.4163 43.587C51.1856 42.2213 54.2319 41.511 57.3197 41.511C60.4075 41.511 63.4538 42.2213 66.2231 43.587C68.7623 44.9033 70.8875 46.8968 72.3633 49.3467C73.8196 51.8932 74.5856 54.7758 74.5856 57.7093C74.5856 60.6428 73.8196 63.5255 72.3633 66.072C70.8878 68.5221 68.7625 70.5157 66.2231 71.8317C63.4538 73.1974 60.4075 73.9077 57.3197 73.9077C54.2319 73.9077 51.1856 73.1974 48.4163 71.8317ZM63.0924 64.0539C64.5929 62.4751 65.3433 60.3601 65.3437 57.7088C65.344 55.0575 64.5936 52.9424 63.0924 51.3637C62.354 50.5846 61.459 49.9708 60.4663 49.5626C59.4735 49.1544 58.4056 48.9612 57.3327 48.9956C56.2556 48.9628 55.1836 49.1567 54.1861 49.5646C53.1887 49.9726 52.288 50.5855 51.5426 51.3637C50.0229 52.9436 49.2631 55.0586 49.2631 57.7088C49.2631 60.359 50.0229 62.474 51.5426 64.0539C52.288 64.8321 53.1887 65.445 54.1861 65.8529C55.1836 66.2609 56.2556 66.4547 57.3327 66.422C58.406 66.4566 59.4744 66.2634 60.4675 65.8551C61.4607 65.4469 62.356 64.8328 63.0946 64.0533L63.0924 64.0539Z" fill="#454545"/>
<path d="M4.89685 37.5925C3.92835 37.5925 2.98159 37.3053 2.17631 36.7672C1.37102 36.2291 0.743383 35.4643 0.372752 34.5696C0.0021209 33.6748 -0.0948519 32.6902 0.0940941 31.7403C0.28304 30.7904 0.749417 29.9179 1.43425 29.233C2.11909 28.5482 2.99163 28.0818 3.94152 27.8929C4.89142 27.7039 5.87601 27.8009 6.77079 28.1715C7.66557 28.5421 8.43036 29.1698 8.96843 29.9751C9.5065 30.7804 9.7937 31.7271 9.7937 32.6956C9.7937 33.9943 9.27778 35.2399 8.35944 36.1582C7.44111 37.0765 6.19558 37.5925 4.89685 37.5925Z" fill="#454545"/>
</g>
<defs>
<clipPath id="clip0_502_181">
<rect width="148.555" height="101.656" fill="white"/>
</clipPath>
</defs>
</svg>
