<svg xmlns="http://www.w3.org/2000/svg" width="198.788" height="51.707" viewBox="0 0 198.788 51.707">
  <g id="Group_47" data-name="Group 47" transform="translate(-213.587 -144.464)">
    <path id="Path_57" data-name="Path 57" d="M225.89,195.373a14.672,14.672,0,0,1-6.263-1.219v2a1.85,1.85,0,0,0,1.663,2l9.865,1.829a32.184,32.184,0,0,1,4.988,1.358,7.82,7.82,0,0,1,3.381,2.272,6.013,6.013,0,0,1,1.219,3.962,8.044,8.044,0,0,1-1.746,4.96,12.093,12.093,0,0,1-5.154,3.713,22.306,22.306,0,0,1-8.507,1.413,21.4,21.4,0,0,1-6.955-.914,7.812,7.812,0,0,1-3.685-2.356,4.989,4.989,0,0,1-1.108-3.1,7.047,7.047,0,0,1,1.358-3.99,11.444,11.444,0,0,1,3.519-3.325q-3.381-1.274-3.38-4.046a3.892,3.892,0,0,1,.5-1.94A12.715,12.715,0,0,1,216.8,196.2l2-2.494a7.812,7.812,0,0,1-3.991-7.26,8.266,8.266,0,0,1,2.854-6.54q2.854-2.493,8.23-2.493t8.313,2.493a15.635,15.635,0,0,0,3.325-.886,11.239,11.239,0,0,0,2.882-1.663l.776.554v3.1H235.2a8.423,8.423,0,0,1,1.773,5.431,8.146,8.146,0,0,1-2.854,6.429Q231.265,195.373,225.89,195.373Zm-7.981,14.3a5.458,5.458,0,0,0,1.94,4.572q1.939,1.524,6.151,1.524,4.655,0,6.9-1.524a4.656,4.656,0,0,0,2.245-4.018,2.924,2.924,0,0,0-1.136-2.438,9.082,9.082,0,0,0-3.8-1.386l-9.92-1.94-.443-.111a10.469,10.469,0,0,0-1.386,2.55A7.7,7.7,0,0,0,217.91,209.672Zm7.87-15.794a3.684,3.684,0,0,0,3.409-1.8q1.081-1.8,1.081-5.791,0-3.934-1.053-5.653a3.566,3.566,0,0,0-3.27-1.718,3.613,3.613,0,0,0-3.3,1.746q-1.081,1.745-1.081,5.736t1,5.736A3.423,3.423,0,0,0,225.779,193.877Z" transform="translate(0 -21.481)" fill="#454545"/>
    <path id="Path_58" data-name="Path 58" d="M298.7,204.955V203.9l.831-.277a2.373,2.373,0,0,0,1.524-.942,3.314,3.314,0,0,0,.416-1.774V184.671a3.979,3.979,0,0,0-.443-1.856,2.137,2.137,0,0,0-1.5-.859l-.831-.221v-1l9.034-3.214.665.609.5,4.877v.388a13.107,13.107,0,0,1,2.106-2.882,11.721,11.721,0,0,1,2.771-2.161,6.115,6.115,0,0,1,2.993-.831,4.162,4.162,0,0,1,3.159,1.108,3.941,3.941,0,0,1,1.053,2.827,3.688,3.688,0,0,1-1.053,2.854,3.625,3.625,0,0,1-2.549.97,4.784,4.784,0,0,1-3.824-2l-.111-.111a1.921,1.921,0,0,0-1.247-.748,1.573,1.573,0,0,0-1.358.693,7.372,7.372,0,0,0-1.025,1.3,10.19,10.19,0,0,0-.859,1.746v14.52a3.172,3.172,0,0,0,.444,1.746,2.4,2.4,0,0,0,1.5.97l1.663.5v1.053Z" transform="translate(-55.579 -21.586)" fill="#454545"/>
    <path id="Path_59" data-name="Path 59" d="M377.988,206.356a9.432,9.432,0,0,1-3.935-.8,5.977,5.977,0,0,1-2.8-2.66,9.745,9.745,0,0,1-.97-4.9l.166-13.91a3.16,3.16,0,0,0-.388-1.774,2.2,2.2,0,0,0-1.385-.776l-.665-.222v-1l9.477-1.829.61.61-.277,7.814v12.581a3.383,3.383,0,0,0,1.025,2.743,3.872,3.872,0,0,0,2.577.859,8.5,8.5,0,0,0,2.909-.471,12.185,12.185,0,0,0,2.688-1.413l.166-17.069a3.181,3.181,0,0,0-.36-1.773,2.428,2.428,0,0,0-1.358-.776l-.609-.166v-1l9.255-1.94.61.61-.166,7.814v14.52a4.683,4.683,0,0,0,.3,1.857,2.027,2.027,0,0,0,1.358,1.025l.72.222v1.053l-9.366.554-.5-3.491a18.56,18.56,0,0,1-4.1,2.66A11.492,11.492,0,0,1,377.988,206.356Z" transform="translate(-100.835 -22.211)" fill="#454545"/>
    <path id="Path_60" data-name="Path 60" d="M467.33,184.089l-9.089-.72v-1.053l.554-.111a2.558,2.558,0,0,0,2.161-2.771V150.616a3.028,3.028,0,0,0-.416-1.718,2.5,2.5,0,0,0-1.524-.887l-.721-.167v-1l9.477-2.383.72.5-.222,7.814V158.6a14.851,14.851,0,0,1,8.479-2.66,9.888,9.888,0,0,1,7.7,3.408q3.048,3.408,3.048,10.5a17.97,17.97,0,0,1-1.552,7.9,11.209,11.209,0,0,1-4.156,4.794,10.763,10.763,0,0,1-5.763,1.607,16.177,16.177,0,0,1-4.184-.554,11.066,11.066,0,0,1-3.685-1.718Zm6.1-2.383a5.163,5.163,0,0,0,3.214-1.053,6.9,6.9,0,0,0,2.161-3.6,24.913,24.913,0,0,0,.776-6.983,26.118,26.118,0,0,0-.721-6.927,6.371,6.371,0,0,0-2.078-3.492,5.326,5.326,0,0,0-3.242-1,10.5,10.5,0,0,0-5.1,1.441v20.228A9.393,9.393,0,0,0,473.426,181.706Z" transform="translate(-159.752)" fill="#454545"/>
    <path id="Path_61" data-name="Path 61" d="M558.517,184.089l-9.089-.72v-1.053l.554-.111a2.558,2.558,0,0,0,2.162-2.771V150.616a3.029,3.029,0,0,0-.416-1.718,2.5,2.5,0,0,0-1.524-.887l-.72-.167v-1l9.477-2.383.72.5-.222,7.814V158.6a14.85,14.85,0,0,1,8.479-2.66,9.889,9.889,0,0,1,7.7,3.408q3.047,3.408,3.048,10.5a17.965,17.965,0,0,1-1.552,7.9,11.207,11.207,0,0,1-4.156,4.794,10.763,10.763,0,0,1-5.764,1.607,16.18,16.18,0,0,1-4.184-.554,11.065,11.065,0,0,1-3.685-1.718Zm6.1-2.383a5.163,5.163,0,0,0,3.214-1.053,6.905,6.905,0,0,0,2.162-3.6,24.944,24.944,0,0,0,.776-6.983,26.108,26.108,0,0,0-.72-6.927,6.374,6.374,0,0,0-2.078-3.492,5.329,5.329,0,0,0-3.242-1,10.5,10.5,0,0,0-5.1,1.441v20.228A9.393,9.393,0,0,0,564.613,181.706Z" transform="translate(-219.294)" fill="#454545"/>
    <path id="Path_62" data-name="Path 62" d="M656.161,177.522a11.777,11.777,0,0,1,5.986,1.441A9.942,9.942,0,0,1,666,182.925a12.024,12.024,0,0,1,1.358,5.792q0,.72-.055,1.358a5.887,5.887,0,0,1-.222,1.191H650.4q.055,5.709,2.134,8.2a7.45,7.45,0,0,0,6.068,2.494,9.544,9.544,0,0,0,4.489-.914,11.11,11.11,0,0,0,3.159-2.577l.887.831a12.135,12.135,0,0,1-4.517,4.738,13.089,13.089,0,0,1-6.789,1.69,14.032,14.032,0,0,1-6.927-1.662,11.711,11.711,0,0,1-4.683-4.794,15.593,15.593,0,0,1-1.69-7.509,14.294,14.294,0,0,1,1.967-7.7,13.493,13.493,0,0,1,5.1-4.849A13.636,13.636,0,0,1,656.161,177.522Zm-.277,1.607a4.463,4.463,0,0,0-2.8.914,6.179,6.179,0,0,0-1.884,3.214,25.8,25.8,0,0,0-.8,6.457h9.92q.609-5.6-.444-8.091A3.943,3.943,0,0,0,655.884,179.129Z" transform="translate(-280.085 -21.586)" fill="#454545"/>
    <path id="Path_63" data-name="Path 63" d="M722.215,204.955V203.9l.831-.277a2.373,2.373,0,0,0,1.524-.942,3.314,3.314,0,0,0,.416-1.774V184.671a3.979,3.979,0,0,0-.443-1.856,2.137,2.137,0,0,0-1.5-.859l-.831-.221v-1l9.034-3.214.665.609.5,4.877v.388a13.084,13.084,0,0,1,2.106-2.882,11.714,11.714,0,0,1,2.771-2.161,6.114,6.114,0,0,1,2.992-.831,4.163,4.163,0,0,1,3.159,1.108,3.942,3.942,0,0,1,1.053,2.827,3.689,3.689,0,0,1-1.053,2.854,3.626,3.626,0,0,1-2.549.97,4.784,4.784,0,0,1-3.824-2l-.111-.111a1.919,1.919,0,0,0-1.247-.748,1.574,1.574,0,0,0-1.358.693,7.407,7.407,0,0,0-1.025,1.3,10.22,10.22,0,0,0-.859,1.746v14.52a3.176,3.176,0,0,0,.444,1.746,2.4,2.4,0,0,0,1.5.97l1.663.5v1.053Z" transform="translate(-332.118 -21.586)" fill="#454545"/>
  </g>
</svg>
