<svg xmlns="http://www.w3.org/2000/svg" xmlns:xlink="http://www.w3.org/1999/xlink" width="258.077" height="50.588" viewBox="0 0 258.077 50.588">
  <defs>
    <clipPath id="clip-path">
      <path id="Path_86" data-name="Path 86" d="M32.234,19.585c-1.716-.288-1.209-1.31-.8-1.661.183-.162,2.637-2.064,4.111-2.064,1.158,0,3.67,1.32,5.3,2.43.564.386,2.392,1.658.125,2.13a8.735,8.735,0,0,1-1.836.21,54.749,54.749,0,0,1-6.9-1.044M13.967,28.768C11.775,40.1,18.256,50.753,27.8,56.155c1.026.581,1.429.5,1.544.307.184-.3-.027-.637-1.334-1.7C23.2,50.844,21,46.87,19.973,43.433a20.423,20.423,0,0,1-.969-7.9A5.009,5.009,0,0,1,22.483,31.1a5.755,5.755,0,0,1,5.758,1.51c1.438,1.418,3.058,3.456,4.108,8.407.8,3.757,1.182,4.741,1.8,9.038.768,5.407,4.06,8.3,6.772,8.278,8.092-.073,10.059-10.956,11.772-20.557.13-.741.186-1.537.544-1.523.723.031,1.942,5.122,2.211,11.089.106,2.44,1.418,3.87,3.194,1.7a27.793,27.793,0,0,0,4.709-10.629,25.314,25.314,0,0,0-10.6-25.749c-.364-.252-.73-.367-.911-.165-.153.171-.132.541.372,1.069,2.624,2.722,9.035,9.641,8.948,18.319-.063,6.062-1.606,9.406-2.343,9.813-.1-.247-.461-4.41-1-6.423a27.463,27.463,0,0,0-1.482-4.431,10.717,10.717,0,0,0-.8-1.465,4.547,4.547,0,0,0-2.655-1.937c-3.677.317-4.21,4.561-4.614,7.813C48,37.51,46.452,53.131,42.107,53.593c-3.233.341-3.1-2.185-3.2-3.546-.257-3.453-.051-6.579-1.879-12.775-1.683-5.712-7.554-10.051-9-12.172l.047-.047a.527.527,0,0,1,.478-.129,1.008,1.008,0,0,0,.849-.3c.358-.3,1.913.093,4.017.486a28.481,28.481,0,0,0,5.741.591c15.915-.258,7.815-8.419,5.512-10.139-1.775-1.33-3.639-2.237-4.394-2.9.083-.11.2-.255.746-.443a23.988,23.988,0,0,1,8.138-.507c.653.057.851-.158.913-.377.089-.307-.6-.732-1.012-.91a49.127,49.127,0,0,0-5.6-1.625,25.1,25.1,0,0,0-29.49,19.973" transform="translate(-13.539 -8.326)" fill="#454545"/>
    </clipPath>
    <clipPath id="clip-path-2">
      <path id="Path_87" data-name="Path 87" d="M31.592,19.154c-2.916-.668-.465-2.5-.465-2.5s2.574-2.031,4.532-1.99c1.2.027,4,1.623,5.445,2.574.814.532,2.2,1.988.535,2.67a6.761,6.761,0,0,1-2.539.406,36.364,36.364,0,0,1-7.509-1.16M13.953,28.442a25.255,25.255,0,0,0,13.3,27.35c1.231.618,1.9.823,2.034.485.032-.088-.02-.217-.163-.346-1.066-.956-7.194-4.834-9.794-11.537a19.825,19.825,0,0,1-1.4-10.483,5,5,0,0,1,4.4-4.036C28.2,29.531,31.84,36.184,33.206,45.8s3.575,12.19,7.515,12.512c5.482.45,11.52-6.181,12.128-20.852.067-1.631.337-2.313.9-2.306.7.011,2.153,4.985,2.372,11.09.111,3.161.9,4.983,2.928,2.055a28.02,28.02,0,0,0,4.29-10.214,24.873,24.873,0,0,0-10.34-25.563c-.706-.451-1.177-.322-1.234-.11-.039.143.02.364.346.648,2.777,2.433,8.358,8.166,9.431,16.182,1.161,8.637-2.151,15.676-2.731,11.475a45.538,45.538,0,0,0-1-5.771,27.513,27.513,0,0,0-1.481-4.429,10.428,10.428,0,0,0-.8-1.459c-1.655-2.505-3.921-2.231-5.126.074C48.278,33.192,48.975,55.24,41.346,54.1c-2.992-.441-2.291-3.921-2.825-12.668-1-16.363-10.9-17.231-9.762-17.9,1.376-.81,4.651.817,10.273,1.035,3.448.137,8.422-.454,9.45-2.119.981-1.59-.254-4.553-3.827-7.215-3.026-2.261-6.671-3.4-3.8-4.172a17.685,17.685,0,0,1,5.547-.188c1.135.126,2.408.374,3.081.446s.852-.351-.069-.884a20.824,20.824,0,0,0-5.981-1.964A25.092,25.092,0,0,0,13.953,28.442" transform="translate(-13.485 -8)" fill="#454545"/>
    </clipPath>
  </defs>
  <g id="Group_60" data-name="Group 60" transform="translate(-13.485 -8)">
    <path id="Path_79" data-name="Path 79" d="M335.738,97.135a8.346,8.346,0,0,1-1.51.62,9.768,9.768,0,0,1-1.556.33,13.179,13.179,0,0,1-1.625.1,8.44,8.44,0,0,1-2.783-.429,6.114,6.114,0,0,1-2.135-1.265,5.41,5.41,0,0,1-1.357-1.956,6.54,6.54,0,0,1-.449-2.457,6.387,6.387,0,0,1,.531-2.69,5.209,5.209,0,0,1,1.491-1.918,6.344,6.344,0,0,1,2.178-1.127,8.963,8.963,0,0,1,2.576-.363,14.023,14.023,0,0,1,4.589.9v3.155a12.083,12.083,0,0,0-1.743-.911,5.2,5.2,0,0,0-2.03-.365,4.635,4.635,0,0,0-1.938.41,3.583,3.583,0,0,0-1.449,1.177,3.135,3.135,0,0,0-.068,3.432,3.374,3.374,0,0,0,1.334,1.193,4.123,4.123,0,0,0,1.922.443,6.3,6.3,0,0,0,1.639-.208,7.32,7.32,0,0,0,1.3-.472,11.352,11.352,0,0,0,1.082-.6Z" transform="translate(-157.837 -39.596)" fill="#454545"/>
    <path id="Path_80" data-name="Path 80" d="M374.185,98.192h-3.671l-.97-2.406h-5.161l-.988,2.406h-3.67l5.257-11.884h3.963Zm-5.463-4.475-1.742-4.338-1.756,4.338Z" transform="translate(-175.812 -39.763)" fill="#454545"/>
    <path id="Path_81" data-name="Path 81" d="M410.3,94.574a3.27,3.27,0,0,1-.57,1.927,3.64,3.64,0,0,1-1.594,1.25,5.959,5.959,0,0,1-2.338.433c-.25,0-.548-.014-.908-.05a10.515,10.515,0,0,1-1.424-.26,11.14,11.14,0,0,1-1.846-.634V94.325a13.466,13.466,0,0,0,1.769.926,4.787,4.787,0,0,0,1.868.368,1.612,1.612,0,0,0,1.185-.306.873.873,0,0,0,.271-.572.967.967,0,0,0-.464-.808,6.34,6.34,0,0,0-1.346-.681,11.282,11.282,0,0,1-1.714-.9,3.991,3.991,0,0,1-1.2-1.211,3.124,3.124,0,0,1-.471-1.726,3.168,3.168,0,0,1,1.913-2.975,5.488,5.488,0,0,1,2.371-.462,8.513,8.513,0,0,1,3.234.624,5.932,5.932,0,0,1,.753.38v2.786a9.887,9.887,0,0,0-1.626-.936,4.567,4.567,0,0,0-1.918-.409,1.462,1.462,0,0,0-.965.255.8.8,0,0,0-.305.635.775.775,0,0,0,.305.606,4.961,4.961,0,0,0,1.07.628,20.863,20.863,0,0,1,2.2,1.159,4.3,4.3,0,0,1,1.291,1.187,2.881,2.881,0,0,1,.469,1.678" transform="translate(-197.033 -39.596)" fill="#454545"/>
    <rect id="Rectangle_30" data-name="Rectangle 30" width="3.584" height="11.885" transform="translate(220.726 46.545)" fill="#454545"/>
    <path id="Path_82" data-name="Path 82" d="M470.974,98.192h-3.191l-6.164-6.619v6.619h-3.553V86.308h3.183L467.4,92.9V86.308h3.574Z" transform="translate(-225.748 -39.763)" fill="#454545"/>
    <path id="Path_83" data-name="Path 83" d="M512.449,92.077a6.251,6.251,0,0,1-.767,3.06,5.576,5.576,0,0,1-2.288,2.221,7.665,7.665,0,0,1-3.7.825,7.543,7.543,0,0,1-3.731-.856,5.6,5.6,0,0,1-2.269-2.259,6.42,6.42,0,0,1,0-5.991,5.511,5.511,0,0,1,2.267-2.245,7.567,7.567,0,0,1,3.734-.853,8.207,8.207,0,0,1,2.936.49,5.821,5.821,0,0,1,2.121,1.325,5.494,5.494,0,0,1,1.263,1.945,6.452,6.452,0,0,1,.431,2.339m-3.655,0a3.688,3.688,0,0,0-.2-1.224,2.624,2.624,0,0,0-.6-.959,2.721,2.721,0,0,0-.976-.636,3.606,3.606,0,0,0-1.327-.227,3.053,3.053,0,1,0,0,6.1,3.348,3.348,0,0,0,1.679-.392,2.546,2.546,0,0,0,1.055-1.079,3.366,3.366,0,0,0,.362-1.582" transform="translate(-246.511 -39.596)" fill="#454545"/>
    <path id="Path_84" data-name="Path 84" d="M527.923,32.719h2.135v.322h-.893v2.206H528.8V33.041h-.879Z" transform="translate(-261.22 -12.552)" fill="#454545"/>
    <path id="Path_85" data-name="Path 85" d="M535,32.726h.341V35.25h-.369V33.286l-.786.974h-.067l-.8-.974V35.25h-.365V32.726h.345l.849,1.034Z" transform="translate(-263.774 -12.555)" fill="#454545"/>
    <g id="Group_61" data-name="Group 61" transform="translate(13.512 8.16)">
      <g id="Group_60-2" data-name="Group 60" clip-path="url(#clip-path)">
        <rect id="Rectangle_31" data-name="Rectangle 31" width="73.246" height="73.246" transform="matrix(0.707, -0.707, 0.707, 0.707, -26.781, 25.016)" fill="#454545"/>
      </g>
    </g>
    <g id="Group_63" data-name="Group 63" transform="translate(13.485 8)">
      <g id="Group_62" data-name="Group 62" transform="translate(0 0)" clip-path="url(#clip-path-2)">
        <rect id="Rectangle_32" data-name="Rectangle 32" width="53.556" height="50.76" transform="translate(-1.726)" fill="#454545"/>
      </g>
    </g>
    <path id="Path_88" data-name="Path 88" d="M414.449,54.411c.347-.193.941-.552,1.652-.881a8.194,8.194,0,0,1,2.381-.705,4.947,4.947,0,0,1,3.39.51,11.574,11.574,0,0,0,2.159,1.33c.515.126.772-.247,1.73-.865,1.141-.722,2.207-1.287,2.85-1.613a16.452,16.452,0,0,1,6.186-2.053,1.535,1.535,0,0,1,1.755,1c.276.8-.212,2.082-1.209,2.006a10.765,10.765,0,0,0-3.586.748,14.6,14.6,0,0,0-3.3,1.535,28.17,28.17,0,0,0-2.729,2.126c-.847.639-2.018,1.312-3.026.889a3.332,3.332,0,0,1-.98-1.272c-.756-1.6-2.4-1.9-4.28-.839-1.954,1.168-3.837,2.414-4.632,2.756s-3.723.869-4.923-.856c-2.471-3.562,1.509-9.367,6.483-8.968,1.406.111,1.863.385,2.275.955.46.646.307,2.022-.412,1.973-2.8-.19-5.628.371-6.022,2.846-.007.034-.056.912.3,1.112a1.75,1.75,0,0,0,1.582-.181c.662-.322,1.65-1.173,2.352-1.554" transform="translate(-199.887 -20.941)" fill="#454545"/>
    <path id="Path_89" data-name="Path 89" d="M279.608,35.468a56,56,0,0,0,7.015.15,7.457,7.457,0,0,1,2.3.1,2.629,2.629,0,0,1,1.4,2.5c-.295,1.465-2.032.946-3.505.7a36.551,36.551,0,0,0-7.914-.5,11.474,11.474,0,0,0-1.608.048c-.562.136-1.047,1.076-1.5,1.754a25.382,25.382,0,0,0-2.242,4.192c-.355.843-.724,1.987-.122,2.281,1.221.612,3-2.009,5.214-2.666a4.4,4.4,0,0,1,3.361.3,4.348,4.348,0,0,1,1.552,5.207,1.912,1.912,0,0,1-1.153,1,1.652,1.652,0,0,1-2.051-1.153c-.139-.682.393-1.2.348-1.652-.133-1.3-1.682-.758-2.506-.2-1.42.961-3.007,2.68-5.006,2.9a4.6,4.6,0,0,1-1.2-.05,2.683,2.683,0,0,1-1.905-1.954,7.418,7.418,0,0,1,.2-3.105c.613-2.716,2.174-4.9,3.239-7.213-1.761-.444-3.419-.1-5.321-.158-1.933-.05-3.495-.16-5.129-.238-3.211-.152-6.571-.11-9.867-.252a19.523,19.523,0,0,0-2.455.1,9.082,9.082,0,0,1-2.906.2c-.881-.2-1.909-.9-1.952-1.7a1.9,1.9,0,0,1,1-1.6,14.72,14.72,0,0,1,3.555-.1c6.507,0,11.686.2,17.7.646,1.57.116,3.41.28,5.28.288a14.121,14.121,0,0,0,2.162.066c.531-.138,1.361-1.477,1.754-1.9.625-.677,2.469-2.645,3.355-1.049.8,1.437-.619,2.471-1.1,3.055" transform="translate(-118.014 -12.087)" fill="#454545" fill-rule="evenodd"/>
    <path id="Path_90" data-name="Path 90" d="M198.648,48.535a5.3,5.3,0,0,0-3.628-.055c-1.071.358-4.24,2.379-6.1,3.315a35.162,35.162,0,0,1-5.272,2.509c-1.574.353-4.074.489-4.408-1,2.347.018,5.525-1.858,6.266-4.144a3.7,3.7,0,0,0-.342-3.624,3.292,3.292,0,0,0-3.365-.677,7.542,7.542,0,0,0-4.143,3.572,14.546,14.546,0,0,0-.835,1.637c-.037.094-.074.2-.122.316-.046.1-.032.112-.392.024a5.537,5.537,0,0,1-.975-.357,2.544,2.544,0,0,1-1.254-1.4c-.258-.719-.16-1.742-.852-1.752s-1.1,1.322-.951,2.3a4.817,4.817,0,0,0,1.222,2.378,6.648,6.648,0,0,0,2.563,1.573,5.876,5.876,0,0,0,.335,1.361,4.041,4.041,0,0,0,2.993,2.7,9.469,9.469,0,0,0,4.942-.2c.941-.305,3.727-1.678,4.8-2.219s3.691-2.1,4.713-2.578c.7-.324,1.931-1.164,2.823-1.062.4.048.849.234.854.653.012.7-.822,1.113-1.35,1.453-.657.416-1.452.606-1.507,1.349a1.3,1.3,0,0,0,1.2,1.3,3.521,3.521,0,0,0,1.653-.35,6.1,6.1,0,0,0,2.307-1.954c1.121-1.865.436-4.415-1.18-5.07m-15.761-1.187c.845-.046.739,1.162.2,1.8a4.868,4.868,0,0,1-3.557,1.5c.076-1.043,1.893-3.223,3.356-3.305" transform="translate(-80.615 -18.627)" fill="#454545" fill-rule="evenodd"/>
    <path id="Path_91" data-name="Path 91" d="M213.925,56.246c-.573-.008-1.364.079-1.5.09a68.582,68.582,0,0,1-9.293.065s-4.9-.222-11-1.161c-5.023-.781-9.6-1.772-13.6-2.755A67.28,67.28,0,0,1,153.432,40.1c-3.328-2.791-6.657-5.746-8.766-9.513a8.883,8.883,0,0,1,2.2-3.355,32.517,32.517,0,0,1,5.714-3.05,49.688,49.688,0,0,0,6.992-3.9c.316-.224.632-.45.935-.691a5.523,5.523,0,0,0,1.586-1.67,8.21,8.21,0,0,0,.7-2.9,7.84,7.84,0,0,0-1.254-5.007c-.509-.9-1.392-2.128-2.454-2a5.157,5.157,0,0,0-1.2.648,29.347,29.347,0,0,0-6.713,6.262,59.578,59.578,0,0,0-6.462,8.412,4.852,4.852,0,0,1-2.754.6c-.86-.088-1.431-.631-2.052-.7-.938-.1-1.36.612-1.253,1.506a13.66,13.66,0,0,0,1.854,4.25c-1.333,2.771-3.635,5.978-5.111,8.914a10.308,10.308,0,0,0-1.251,3.453c-.242,2.623,2.869,3.795,3.958,1.756a7.35,7.35,0,0,0-.15-1.455c-.089-1.747,1.238-3.221,2-4.554.926-1.618,1.707-3.167,2.956-4.006a77.7,77.7,0,0,0,8.468,10.114c1.237,1.239,6.8,5.514,8.259,6.559A42.992,42.992,0,0,0,164.3,52.52a42.416,42.416,0,0,0,5.89,2.383,81.792,81.792,0,0,0,9.712,2.3,80.275,80.275,0,0,0,11.537,1.09c3.385.076,6.429.041,10.952-.184,1.6-.081,8.9-.707,10.891-1.144.148-.033,1.294-.317,1.258-.57-.014-.11-.278-.148-.617-.152M155.132,16.623c.452-.5.981-1.077,1.507-1.554.694-.636,1.514-1.668,2.654-1.4a7.635,7.635,0,0,1-2.809,3.756,23.053,23.053,0,0,1-4,2.5,24.014,24.014,0,0,1,2.652-3.3" transform="translate(-61.263)" fill="#454545" fill-rule="evenodd"/>
    <path id="Path_92" data-name="Path 92" d="M365.485,39.171c-4.395-3.513-8.462,2.308-10.268,5.133-1.1,1.72-2.173.941-1.96-1.68a19.892,19.892,0,0,1,2.394-7.828c1.373-2.454,2.445-2.836,3.3-4.108a1.43,1.43,0,0,0,.038-1.558,1.8,1.8,0,0,0-2.319-.646c-2.028.786-4.367,4.214-5.445,7.925-1.554,5.357-2.23,12.329,2.3,13.168,4.014.748,6.143-10.257,10.095-7.651,1.894,1.251,2.215,3.811,4.315,5.487,5.028,4,12.372-8.426,9.53-10.828-.451-.381-1.391-.7-1.923-.165-.347.347-.221.97-.31,1.63a8.56,8.56,0,0,1-3.477,6.332c-2.533,2.139-4.251-3.6-6.269-5.211" transform="translate(-170.902 -10.313)" fill="#454545" fill-rule="evenodd"/>
    <path id="Path_93" data-name="Path 93" d="M239.889,54.411c.349-.193.938-.552,1.654-.881a8.152,8.152,0,0,1,2.38-.705,4.959,4.959,0,0,1,3.391.51,11.772,11.772,0,0,0,2.154,1.33c.517.126.772-.247,1.733-.865,1.139-.722,2.206-1.287,2.85-1.613a16.441,16.441,0,0,1,6.184-2.053,1.536,1.536,0,0,1,1.756,1c.277.8-.217,2.082-1.21,2.006a10.73,10.73,0,0,0-3.585.748,14.511,14.511,0,0,0-3.3,1.535,29.1,29.1,0,0,0-2.728,2.126c-.843.639-2.018,1.312-3.024.889a3.272,3.272,0,0,1-.979-1.272c-.758-1.6-2.4-1.9-4.284-.839-1.952,1.168-3.834,2.414-4.632,2.756s-3.725.869-4.919-.856c-2.476-3.562,1.507-9.367,6.479-8.968,1.406.111,1.864.385,2.275.955.458.646.307,2.022-.411,1.973-2.793-.19-5.628.371-6.024,2.846-.007.034-.053.912.3,1.112a1.754,1.754,0,0,0,1.584-.181c.663-.322,1.653-1.173,2.352-1.554" transform="translate(-111.249 -20.941)" fill="#454545"/>
    <path id="Path_94" data-name="Path 94" d="M478.94,30.852c.77,1.464-3.126,4.655-5.055,8.626A17.954,17.954,0,0,0,472.13,44.2c-.412,2.273.115,2.345,1.051,1.354,1.916-2.005,5.173-5.957,11-6.518a6.457,6.457,0,0,1,3.012.372c1.209.531.41,2.427-.817,2.407a6.161,6.161,0,0,0-2.655-.2c-2.881.527-3.659,2.41-3.262,3.877.553,2.068,3.638-.48,5.566-1.682a13.11,13.11,0,0,0,3.52-3.494c.245-.812.369-1.537.68-2.494a19.268,19.268,0,0,1,3.723-7.273c1.894-2.287,4.078-.81,2.785,2.078a52.069,52.069,0,0,1-4.53,8.038c-.274.436-.582.991-.837,1.461-.455,2,.195,4.416,1.044,4.013,3.425-1.608,1.987,3.167-.479,2.709-1.938-.363-2.593-3.207-2.705-4.739a12.068,12.068,0,0,1-.867.848c-3,2.694-7.29,5.719-9.765,3.42a4.091,4.091,0,0,1-.951-3.779,34.888,34.888,0,0,0-2.946,3.2c-1.14,1.222-2.33,2.143-3.941,1.692-2.192-.615-2.047-3.372-1.575-5.621a25.074,25.074,0,0,1,2.341-6.071,71.9,71.9,0,0,1,4.553-6.767c.668-.91,2.273-1.3,2.866-.184" transform="translate(-231.245 -10.881)" fill="#454545"/>
  </g>
</svg>
