<svg xmlns="http://www.w3.org/2000/svg" width="267.254" height="96.315" viewBox="0 0 267.254 96.315">
  <g id="Group_53" data-name="Group 53" transform="translate(-81.607 -69.328)">
    <g id="Group_50" data-name="Group 50" transform="translate(167.305 93.229)">
      <g id="Group_48" data-name="Group 48">
        <path id="Path_64" data-name="Path 64" d="M218.026,99.5v5.106H197.276a2.624,2.624,0,0,0-2.6,2.615v2.655H212.95v5.107H194.637V128.1H189.6V107.221a7.684,7.684,0,0,1,7.634-7.721Z" transform="translate(-189.602 -99.459)" fill="#454545"/>
        <path id="Path_65" data-name="Path 65" d="M230.489,128.1V99.5h5.075v28.6Z" transform="translate(-198.043 -99.459)" fill="#454545"/>
        <path id="Path_66" data-name="Path 66" d="M264.935,123.042l2.6,5.106h-5.684l-2.6-5.106-2.72-5.352-.122-.244a5.024,5.024,0,0,0-4.3-2.451h-5.075v13.155h-5.076v-28.6H259.9a7.587,7.587,0,0,1,5.4,2.247,7.85,7.85,0,0,1,2.232,5.474,7.748,7.748,0,0,1-4.466,7.028,6.725,6.725,0,0,1-2.193.612ZM259.9,109.887a2.353,2.353,0,0,0,1.055-.245,2.6,2.6,0,0,0,1.543-2.37,2.7,2.7,0,0,0-.772-1.879,2.549,2.549,0,0,0-1.827-.736H247.028v5.271Z" transform="translate(-200.41 -99.469)" fill="#454545"/>
        <path id="Path_67" data-name="Path 67" d="M284.445,107.221v2.655h18.272v5.107H284.445v5.393a2.625,2.625,0,0,0,2.6,2.615h20.75V128.1h-20.75a7.683,7.683,0,0,1-7.634-7.721V107.221a7.683,7.683,0,0,1,7.634-7.721h20.75v5.106h-20.75A2.625,2.625,0,0,0,284.445,107.221Z" transform="translate(-208.144 -99.459)" fill="#454545"/>
        <path id="Path_68" data-name="Path 68" d="M348.772,99.5v5.106h-20.75a2.625,2.625,0,0,0-2.6,2.615v2.655H343.7v5.107H325.383V128.1h-5.035V107.221a7.683,7.683,0,0,1,7.633-7.721Z" transform="translate(-216.596 -99.459)" fill="#454545"/>
        <path id="Path_69" data-name="Path 69" d="M384.664,123.042v5.106H370.248a8.788,8.788,0,0,1-3.979-.94,9.036,9.036,0,0,1-4.1-4.167,8.923,8.923,0,0,1-.934-4V99.551h5.076v19.978A4.063,4.063,0,0,0,369.761,123Z" transform="translate(-225.037 -99.469)" fill="#454545"/>
        <path id="Path_70" data-name="Path 70" d="M382.574,128.087h.08l-.08.081ZM411,99.448l-11,14.34-.609.775v13.483h-5.076v-13.4l-.69-.858-11-14.34h6.416l7.8,10.172,7.8-10.172Z" transform="translate(-229.443 -99.448)" fill="#454545"/>
      </g>
      <g id="Group_49" data-name="Group 49" transform="translate(21.929 35.521)">
        <path id="Path_71" data-name="Path 71" d="M219.2,147.242v1.036h7.129v1.993H219.2v2.1a1.025,1.025,0,0,0,1.014,1.02h8.095v1.992h-8.095a3,3,0,0,1-2.978-3.012v-5.132a3,3,0,0,1,2.978-3.012h8.095v1.992h-8.095A1.025,1.025,0,0,0,219.2,147.242Z" transform="translate(-217.236 -144.214)" fill="#454545"/>
        <path id="Path_72" data-name="Path 72" d="M260.658,144.246V155.4l-1.98-1.53-7.129-5.53v7.06h-1.981V144.278l1.981,1.53,7.129,5.531V144.23Z" transform="translate(-223.911 -144.214)" fill="#454545"/>
        <path id="Path_73" data-name="Path 73" d="M283.9,147.242v1.036h7.129v1.993H283.9v2.1a1.025,1.025,0,0,0,1.014,1.02h8.1v1.992h-8.1a3,3,0,0,1-2.978-3.012v-5.132a3,3,0,0,1,2.978-3.012h8.1v1.992h-8.1A1.025,1.025,0,0,0,283.9,147.242Z" transform="translate(-230.595 -144.214)" fill="#454545"/>
        <path id="Path_74" data-name="Path 74" d="M323.222,153.415l1.014,1.992h-2.218L321,153.415l-1.062-2.088-.048-.1a1.959,1.959,0,0,0-1.678-.956h-1.981v5.132h-1.98V144.25h7a2.96,2.96,0,0,1,2.107.877,3.059,3.059,0,0,1,.871,2.135A3.025,3.025,0,0,1,322.494,150a2.651,2.651,0,0,1-.856.239Zm-1.964-5.133a.926.926,0,0,0,.412-.1,1.013,1.013,0,0,0,.6-.924,1.054,1.054,0,0,0-.3-.733.992.992,0,0,0-.713-.287h-5.023V148.3Z" transform="translate(-237.266 -144.218)" fill="#454545"/>
        <path id="Path_75" data-name="Path 75" d="M347.21,149.809a3.581,3.581,0,0,0,3.565,3.586h3.564v-2.136h-3.564v-1.992h5.544v6.12h-5.544a5.578,5.578,0,0,1,0-11.156h5.544v1.992h-5.544A3.581,3.581,0,0,0,347.21,149.809Z" transform="translate(-243.661 -144.214)" fill="#454545"/>
        <path id="Path_76" data-name="Path 76" d="M387.878,144.21l-4.294,5.594-.238.3v5.26h-1.98v-5.228l-.27-.334L376.8,144.21h2.5l3.042,3.969,3.042-3.969Z" transform="translate(-250.18 -144.21)" fill="#454545"/>
      </g>
    </g>
    <g id="Group_52" data-name="Group 52" transform="translate(81.607 69.328)">
      <g id="Group_51" data-name="Group 51">
        <path id="Path_77" data-name="Path 77" d="M114.112,120.683c20-1.681,40.671-3.423,40.207-50.668a.7.7,0,0,0-1.359-.2c-4.857,15.526-17.51,17.41-30.905,19.4C104.172,91.883,83.9,94.9,81.608,133.189a.7.7,0,0,0,.2.532.714.714,0,0,0,.271.169.7.7,0,0,0,.8-.276C90.133,122.7,101.78,121.721,114.112,120.683Z" transform="translate(-81.607 -69.328)" fill="#454545"/>
        <path id="Path_78" data-name="Path 78" d="M103.342,170.609c13.371-1.124,27.2-2.288,26.885-33.879a.465.465,0,0,0-.909-.135c-3.248,10.381-11.709,11.642-20.665,12.975-11.958,1.781-25.512,3.8-27.046,29.4a.469.469,0,0,0,.135.356.475.475,0,0,0,.181.113.467.467,0,0,0,.536-.185C87.308,171.956,95.1,171.3,103.342,170.609Z" transform="translate(-81.607 -83.149)" fill="#454545"/>
      </g>
    </g>
  </g>
</svg>
