<svg xmlns="http://www.w3.org/2000/svg" width="148.555" height="101.656" viewBox="0 0 148.555 101.656">
  <g id="Group_36" data-name="Group 36" transform="translate(-462.576 -152.466)">
    <path id="Path_24" data-name="Path 24" d="M610.293,174.141c-2.992-7.514-17.32-14.962-29.97-18.448-20.3-5.369-40.777-4.034-60.862,3.966-25.518,10.163-39.618,26.824-46.947,39-6.6,10.916-12.045,26.459-9.135,33.765,3.026,7.6,17.605,14.873,29.926,18.437,13.747,3.788,35.475,6.174,60.906-3.955,25.518-10.163,39.618-26.824,46.924-38.964C607.806,197.164,613.285,181.651,610.293,174.141Zm-12.726,33.885c-6.842,11.546-20.078,27.375-44.125,36.952-23.965,9.545-44.491,7.168-57.488,3.492-11.65-3.456-25.449-10.464-28.341-17.725-2.781-6.982,2.288-21.784,8.47-32.165,6.864-11.584,20.1-27.413,44.147-36.99a89.01,89.01,0,0,1,57.447-3.5c11.96,3.384,25.522,10.554,28.382,17.735S603.817,197.773,597.567,208.026Z" fill="#454545"/>
    <path id="Path_25" data-name="Path 25" d="M575.62,160.37a81.016,81.016,0,0,0-55.034,2.115,79.809,79.809,0,0,0-41.418,36.3c-6.281,11.46-9.6,25.04-7.488,30.331,2.188,5.494,13.851,12.873,26.372,17.081A82.429,82.429,0,0,0,594.5,207.782c6.484-11.541,9.595-25.04,7.488-30.331C599.8,171.957,588.06,164.374,575.62,160.37Zm-74.068,69.518-6.188-45.925h16.742l.167,2.19,1.786,23.41,1.462-2.373,14.3-23.227h17.134l-1.47,2.19-29.342,43.735H501.552Zm45.5-41.177.687-2.558.589-2.19H586.5l-.591,2.19-2.925,10.838H560.049l-1.561,5.8h21.3l-.59,2.19-2.6,9.666h-21.3l-3.974,14.918H536.078Z" fill="#454545"/>
  </g>
</svg>
