<svg xmlns="http://www.w3.org/2000/svg" width="148.555" height="69.215" viewBox="0 0 148.555 69.215">
  <g id="Group_46" data-name="Group 46" transform="translate(1236.776 -693)">
    <path id="Path_54" data-name="Path 54" d="M-1200.436,693l-22.461,16.294-13.879,52.921h112.216l22.461-16.294L-1088.221,693Zm94.945,50.6-20.325,14.745h-105.946l12.256-46.731,20.325-14.745h105.946Z" fill="#454545"/>
    <path id="Path_55" data-name="Path 55" d="M-1144.654,754.7h4.778l2.928-11.164h-4.778Z" transform="translate(-52.518 -28.811)" fill="#454545"/>
    <path id="Path_56" data-name="Path 56" d="M-1188.138,707l-19.138,13.884-11.354,43.293h102.462l19.138-13.884L-1085.677,707Zm9.853,37.08H-1189.5l-3.8,14.481h-13.019l9.843-37.528,11.761-8.533h14.991l4.934,6.009-5.114,19.5Zm27.581-3.509-4.719,17.99h-12.95l12.081-46.06h27.008l-2.895,11.037h-14.058l-1.573,6h12.95l-2.895,11.037Zm41.62,9.242-12.059,8.749h-14.612l12.08-46.06h12.95l-9.052,34.513h11.427Z" transform="translate(-10.344 -7.981)" fill="#454545"/>
  </g>
</svg>
