<svg xmlns="http://www.w3.org/2000/svg" width="60.776" height="96.316" viewBox="0 0 60.776 96.316">
  <g id="Group_71" data-name="Group 71" transform="translate(-2151.703 846.642)">
    <path id="Path_114" data-name="Path 114" d="M2208.112-833.734l-8.541-8.541-4.218-4.218a.51.51,0,0,0-.361-.15h-25.8a.512.512,0,0,0-.362.15l-4.218,4.218-8.541,8.541-4.217,4.216a.512.512,0,0,0-.15.361v40.975a.512.512,0,0,0,.15.361l4.217,4.216,8.541,8.541,4.218,4.218a.512.512,0,0,0,.362.149h6.448v19.857a.512.512,0,0,0,.511.512h11.886a.512.512,0,0,0,.511-.512V-770.7h6.448a.51.51,0,0,0,.361-.149l4.218-4.218,8.541-8.541,4.216-4.216a.51.51,0,0,0,.15-.361v-40.975a.51.51,0,0,0-.15-.361Zm-8.541,40.206a.507.507,0,0,1-.151.362l-9.563,9.563h-1.313v-8.226a.512.512,0,0,1,.511-.512h4.612a.51.51,0,0,0,.511-.511v-11.885a.511.511,0,0,0-.511-.511h-4.612a.511.511,0,0,1-.511-.511v-7.861a.512.512,0,0,0-.511-.511h-11.886a.512.512,0,0,0-.511.511v7.861a.511.511,0,0,1-.511.511h-4.612a.511.511,0,0,0-.511.511v11.885a.51.51,0,0,0,.511.511h4.612a.512.512,0,0,1,.511.512v8.226h-1.313l-9.564-9.563a.511.511,0,0,1-.149-.362V-823.81a.512.512,0,0,1,.149-.362l9.415-9.413a.511.511,0,0,1,.361-.149h15.111a.51.51,0,0,1,.362.149l9.413,9.413a.507.507,0,0,1,.151.362Z" transform="translate(0 0)" fill="#454545"/>
  </g>
</svg>
