<svg xmlns="http://www.w3.org/2000/svg" width="241" height="54" viewBox="0 0 241 54">
  <g id="Component_1_1" data-name="Component 1 – 1" transform="translate(-8.207 0.434)">
    <g id="Group_3" data-name="Group 3">
      <g id="Group_2" data-name="Group 2">
        <text id="inThis_rder" data-name="inThis   rder" transform="translate(249.207 42.566)" fill="#454545" font-size="44" font-family="Montserrat-ExtraLight, Montserrat" font-weight="200"><tspan x="-240.856" y="0" xml:space="preserve">inThis   rder</tspan></text>
        <g id="Group_1" data-name="Group 1" transform="translate(126.714 9.623)">
          <path id="Exclusion_1" data-name="Exclusion 1" d="M17.5,35A17.5,17.5,0,0,1,5.126,5.126,17.5,17.5,0,1,1,29.874,29.875,17.384,17.384,0,0,1,17.5,35ZM13.065,16.525l-1.539,1.537,6.1,6.149,13.2-13.176L29.289,9.5,17.628,21.082Zm-6.215,0L5.255,18.062l6.16,6.149,1.54-1.537ZM23.075,9.5,16.089,16.47l1.54,1.537,6.985-6.973Z" transform="translate(0.493 -0.057)" fill="#454545"/>
        </g>
      </g>
    </g>
  </g>
</svg>
