<svg xmlns="http://www.w3.org/2000/svg" width="223.378" height="57.022" viewBox="0 0 223.378 57.022">
  <g id="Group_127" data-name="Group 127" transform="translate(-160.516 -264.394)">
    <g id="Group_68" data-name="Group 68" transform="translate(206.338 264.394)">
      <g id="Group_65" data-name="Group 65" transform="translate(2.373)">
        <path id="Path_95" data-name="Path 95" d="M221.881,285.74a14.378,14.378,0,0,0,6.451,1.616c2.673,0,4.089-1.109,4.089-2.8,0-1.581-1.228-2.512-4.309-3.6-4.294-1.522-7.1-3.862-7.1-7.621,0-4.388,3.684-7.725,9.735-7.725a15.257,15.257,0,0,1,6.572,1.3l-1.287,4.666a12.351,12.351,0,0,0-5.372-1.221c-2.534,0-3.743,1.172-3.743,2.488,0,1.635,1.426,2.357,4.765,3.618,4.555,1.7,6.665,4.068,6.665,7.706,0,4.3-3.29,7.983-10.374,7.983a16.632,16.632,0,0,1-7.269-1.6Z" transform="translate(-220.705 -264.636)" fill="#454545"/>
        <path id="Path_96" data-name="Path 96" d="M244.848,264.394h5.818v10.671h.077a6.6,6.6,0,0,1,2.274-1.928,6.482,6.482,0,0,1,3.025-.741c3.71,0,6.548,2.57,6.548,8.206v10.9h-5.819V281.237c0-2.46-.846-4.141-3-4.141a3.057,3.057,0,0,0-2.915,2.052,3.573,3.573,0,0,0-.188,1.269V291.5h-5.818Z" transform="translate(-225.516 -264.394)" fill="#454545"/>
        <path id="Path_97" data-name="Path 97" d="M288.57,283.963c0,6.829-4.837,9.951-9.848,9.951-5.436,0-9.65-3.594-9.65-9.629s3.979-9.9,9.985-9.9C284.77,274.386,288.57,278.321,288.57,283.963Zm-13.51.192c0,3.189,1.348,5.609,3.823,5.609,2.265,0,3.7-2.268,3.7-5.64,0-2.756-1.062-5.588-3.694-5.588C276.118,278.536,275.06,281.384,275.06,284.155Z" transform="translate(-230.343 -266.385)" fill="#454545"/>
        <path id="Path_98" data-name="Path 98" d="M298.64,274.91l1.5,7.661c.374,1.922.748,4,1.061,6.13h.087c.352-2.121.915-4.253,1.366-6.089l1.965-7.7h4.6l1.867,7.448c.506,2.133,1,4.217,1.365,6.344h.08c.262-2.117.639-4.231,1.079-6.375l1.59-7.416h5.676L315.171,293.6h-5.443l-1.754-6.553c-.481-1.838-.826-3.509-1.215-5.837h-.076a46.256,46.256,0,0,1-1.2,5.805l-1.87,6.584h-5.451l-5.446-18.689Z" transform="translate(-235.055 -266.49)" fill="#454545"/>
        <path id="Path_99" data-name="Path 99" d="M328.712,291.5c.079-1.236.152-3.462.152-5.582V264.394h5.811v10.649h.077a6.56,6.56,0,0,1,5.639-2.648c4.49,0,7.756,3.71,7.711,9.436,0,6.731-4.266,10.092-8.547,10.092a6.12,6.12,0,0,1-5.587-3.023h-.081l-.244,2.6Zm5.963-7.932a4.7,4.7,0,0,0,.1,1.021,3.553,3.553,0,0,0,3.42,2.767c2.466,0,4.006-1.923,4.006-5.283,0-2.907-1.3-5.2-4-5.2a3.564,3.564,0,0,0-3.414,2.866,5.169,5.169,0,0,0-.118,1.075Z" transform="translate(-242.228 -264.394)" fill="#454545"/>
        <path id="Path_100" data-name="Path 100" d="M360.974,267.707a2.882,2.882,0,0,1-3.124,2.9,2.911,2.911,0,1,1,3.124-2.9Zm-5.982,23.877V272.895h5.817v18.689Z" transform="translate(-247.432 -264.475)" fill="#454545"/>
        <path id="Path_101" data-name="Path 101" d="M363.853,290.263l5.889-7.357c1.062-1.244,1.9-2.181,2.958-3.3v-.083H364.5V274.91H379.8l-.006,3.5-5.632,7.074c-1.018,1.207-1.986,2.38-3.048,3.426v.083h8.975V293.6H363.853Z" transform="translate(-249.23 -266.49)" fill="#454545"/>
      </g>
      <g id="Group_66" data-name="Group 66" transform="translate(0 29.288)">
        <path id="Path_102" data-name="Path 102" d="M237.825,327.613a16.79,16.79,0,0,1-6.578,1.11c-8.911,0-13.506-5.568-13.506-12.9,0-8.775,6.288-13.632,14.058-13.632a14.779,14.779,0,0,1,6.335,1.142l-1.186,4.6a12.213,12.213,0,0,0-4.888-.966c-4.591,0-8.189,2.8-8.189,8.517,0,5.16,3.042,8.4,8.222,8.4a14.008,14.008,0,0,0,4.865-.832Z" transform="translate(-217.741 -301.213)" fill="#454545"/>
        <path id="Path_103" data-name="Path 103" d="M244.829,300.971h5.817v10.671h.077A6.6,6.6,0,0,1,253,309.713a6.481,6.481,0,0,1,3.024-.741c3.71,0,6.548,2.57,6.548,8.206v10.9h-5.82V317.814c0-2.46-.846-4.141-3-4.141a3.059,3.059,0,0,0-2.915,2.052,3.573,3.573,0,0,0-.188,1.269V328.08h-5.817Z" transform="translate(-223.139 -300.971)" fill="#454545"/>
        <path id="Path_104" data-name="Path 104" d="M274.6,322.6c.174,2.412,2.556,3.557,5.267,3.557A15.561,15.561,0,0,0,285,325.36l.784,3.931a18.126,18.126,0,0,1-6.77,1.181c-6.331,0-9.967-3.687-9.967-9.51,0-4.748,2.963-10,9.42-10,6.058,0,8.345,4.708,8.345,9.332a11.087,11.087,0,0,1-.208,2.3Zm6.821-3.98c.01-1.4-.615-3.788-3.258-3.788-2.455,0-3.45,2.242-3.61,3.788Z" transform="translate(-227.966 -302.962)" fill="#454545"/>
        <path id="Path_105" data-name="Path 105" d="M303.507,330.072l-.343-1.857h-.123a6.7,6.7,0,0,1-5.338,2.276,5.7,5.7,0,0,1-6.04-5.717c0-4.868,4.354-7.176,10.966-7.167v-.239c0-.993-.533-2.413-3.422-2.407a10.743,10.743,0,0,0-5.15,1.395l-1.07-3.719a15.121,15.121,0,0,1,7.263-1.674c6.222,0,8.191,3.677,8.191,8.066v6.517a27,27,0,0,0,.3,4.526Zm-.7-8.838c-3.058-.017-5.421.72-5.421,2.945a2.1,2.1,0,0,0,2.307,2.237,3.174,3.174,0,0,0,3.006-2.147,3.709,3.709,0,0,0,.108-.992Z" transform="translate(-232.472 -302.962)" fill="#454545"/>
        <path id="Path_106" data-name="Path 106" d="M321.642,304.831v5.33h4.184v4.285h-4.184v6.772c0,2.254.561,3.293,2.293,3.293a7.662,7.662,0,0,0,1.728-.174l.046,4.414a12.263,12.263,0,0,1-3.765.5,6.073,6.073,0,0,1-4.378-1.621c-1.078-1.107-1.606-2.885-1.606-5.539v-7.644h-2.482v-4.285h2.482v-4.016Z" transform="translate(-236.818 -301.74)" fill="#454545"/>
      </g>
      <g id="Group_67" data-name="Group 67" transform="translate(90.6 29.512)">
        <path id="Path_107" data-name="Path 107" d="M332.065,322.595a14.376,14.376,0,0,0,6.451,1.617c2.673,0,4.089-1.11,4.089-2.8,0-1.581-1.228-2.511-4.309-3.6-4.293-1.523-7.1-3.863-7.1-7.621,0-4.388,3.684-7.724,9.734-7.724a15.268,15.268,0,0,1,6.572,1.295l-1.286,4.667a12.34,12.34,0,0,0-5.372-1.222c-2.534,0-3.743,1.172-3.743,2.489,0,1.634,1.425,2.357,4.764,3.618,4.556,1.7,6.665,4.069,6.665,7.706,0,4.3-3.289,7.984-10.374,7.984a16.634,16.634,0,0,1-7.269-1.6Z" transform="translate(-330.888 -301.492)" fill="#454545"/>
        <path id="Path_108" data-name="Path 108" d="M355.032,301.25h5.817v10.671h.077a6.617,6.617,0,0,1,2.275-1.929,6.479,6.479,0,0,1,3.024-.741c3.71,0,6.548,2.57,6.548,8.206v10.9h-5.818V318.093c0-2.459-.846-4.141-3-4.141A3.057,3.057,0,0,0,361.038,316a3.555,3.555,0,0,0-.189,1.269v11.086h-5.817Z" transform="translate(-335.699 -301.25)" fill="#454545"/>
        <path id="Path_109" data-name="Path 109" d="M384.8,322.874c.174,2.411,2.557,3.556,5.267,3.556a15.556,15.556,0,0,0,5.142-.792l.785,3.931a18.117,18.117,0,0,1-6.771,1.182c-6.331,0-9.967-3.687-9.967-9.51,0-4.748,2.962-10,9.42-10,6.057,0,8.344,4.708,8.344,9.332a11.168,11.168,0,0,1-.207,2.3Zm6.821-3.98c.01-1.4-.615-3.788-3.258-3.788-2.456,0-3.45,2.242-3.611,3.788Z" transform="translate(-340.526 -303.241)" fill="#454545"/>
        <path id="Path_110" data-name="Path 110" d="M407.589,322.874c.174,2.411,2.557,3.556,5.268,3.556a15.554,15.554,0,0,0,5.141-.792l.785,3.931a18.117,18.117,0,0,1-6.771,1.182c-6.331,0-9.966-3.687-9.966-9.51,0-4.748,2.961-10,9.419-10,6.058,0,8.344,4.708,8.344,9.332a11.166,11.166,0,0,1-.207,2.3Zm6.821-3.98c.01-1.4-.615-3.788-3.258-3.788-2.456,0-3.45,2.242-3.611,3.788Z" transform="translate(-345.068 -303.241)" fill="#454545"/>
        <path id="Path_111" data-name="Path 111" d="M432.228,305.11v5.33h4.183v4.285h-4.183V321.5c0,2.254.56,3.293,2.293,3.293a7.606,7.606,0,0,0,1.727-.174l.046,4.414a12.23,12.23,0,0,1-3.764.5,6.068,6.068,0,0,1-4.378-1.622c-1.079-1.107-1.606-2.884-1.606-5.539v-7.644h-2.483V310.44h2.483v-4.016Z" transform="translate(-349.455 -302.019)" fill="#454545"/>
      </g>
    </g>
    <g id="Group_69" data-name="Group 69" transform="translate(160.516 265.368)">
      <rect id="Rectangle_33" data-name="Rectangle 33" height="8.549" transform="translate(14.332 5.783)" fill="#454545"/>
      <rect id="Rectangle_34" data-name="Rectangle 34" height="5.783" transform="translate(14.332 0)" fill="#454545"/>
      <path id="Path_112" data-name="Path 112" d="M177.327,265.61v5.783h18.165v44.08H166.3V282.421h-5.783v38.836h40.76V265.61Z" transform="translate(-160.516 -265.61)" fill="#454545"/>
      <path id="Path_113" data-name="Path 113" d="M174.848,279.943V265.61l-14.332,14.332Z" transform="translate(-160.516 -265.61)" fill="#454545"/>
    </g>
  </g>
</svg>
