<svg xmlns="http://www.w3.org/2000/svg" width="142.102" height="74.833" viewBox="0 0 142.102 74.833">
  <g id="Group_64" data-name="Group 64" transform="translate(-88.426 -221.894)">
    <path id="Path_15" data-name="Path 15" d="M109.321,334.8a.568.568,0,0,1,.413.241.346.346,0,0,1,.069.447,24.788,24.788,0,0,1-5.369,4.371,10.189,10.189,0,0,1-5.025,1.342q-7.433,0-7.3-7.3l.069-14.592a4.221,4.221,0,0,0-.619-2.925,3.978,3.978,0,0,0-2.822-.723c-.184,0-.287-.183-.31-.551s.034-.55.172-.55q6.195,0,8.466-6.057a.619.619,0,0,1,.551-.207,1.6,1.6,0,0,1,.654.138c.207.092.31.184.31.275v5.644q2.822-.137,8.948-.551a.656.656,0,0,1,.551.275.92.92,0,0,1,.207.551,3.607,3.607,0,0,1-.723,1.686,1.6,1.6,0,0,1-1.411.861,67.792,67.792,0,0,0-7.571-.826l-.069,16.382a4.067,4.067,0,0,0,4.68,4.681,9.31,9.31,0,0,0,6.057-2.616Z" transform="translate(0 -68.498)" fill="#454545"/>
    <path id="Path_16" data-name="Path 16" d="M227.462,266.75a.53.53,0,0,1,.448.241.494.494,0,0,1,.1.447,21.229,21.229,0,0,1-3.82,4.1,6.179,6.179,0,0,1-3.82,1.273,3.971,3.971,0,0,1-3.544-1.686,8.789,8.789,0,0,1-1.067-5.059l.069-10.944q0-6.469-3.166-6.47-2.2,0-3.992,2.513a20.474,20.474,0,0,0-2.856,7.434,58.8,58.8,0,0,0-1.136,11.735v1.033q0,.62-1.033,1a9.286,9.286,0,0,1-3.029.378q-2.41,0-2.547-.55V270.6q.137-1.926.137-3.511l.276-35.447a7.124,7.124,0,0,0-.448-3.235,1.753,1.753,0,0,0-1.686-1.033,7.434,7.434,0,0,0-3.028.964h-.069a.511.511,0,0,1-.447-.344q-.171-.344.1-.482l10.875-5.231h.138a.917.917,0,0,1,.551.206c.183.138.275.253.275.344l-.069,34.071a20.919,20.919,0,0,1,4.267-9.016,8.672,8.672,0,0,1,6.677-3.166q6.675,0,6.676,9.085l-.138,12.252q-.139,3.236,1.583,3.235,1.307,0,3.511-2.478A.279.279,0,0,1,227.462,266.75Z" transform="translate(-82.695 -0.311)" fill="#454545"/>
    <path id="Path_17" data-name="Path 17" d="M402.326,353.678a.594.594,0,0,1,.413.206c.138.138.16.253.069.344a13.33,13.33,0,0,1-5.025,3.51,15.8,15.8,0,0,1-5.782,1.1,12.714,12.714,0,0,1-7.021-1.858,11.715,11.715,0,0,1-4.336-4.887,14.825,14.825,0,0,1-1.446-6.47,14.644,14.644,0,0,1,1.927-7.193,15.436,15.436,0,0,1,5.472-5.678,15.134,15.134,0,0,1,8.156-2.2,10.168,10.168,0,0,1,4.852.964,3.5,3.5,0,0,1,1.962,2.753q.274,3.03-4.268,5.644a34.259,34.259,0,0,1-11.219,3.786,15.707,15.707,0,0,0,2.788,8.707,8.056,8.056,0,0,0,6.849,3.407,11.706,11.706,0,0,0,3.373-.516,9.1,9.1,0,0,0,3.1-1.617Zm-14.9-18.412a17.292,17.292,0,0,0-1.342,7.33q8.327-1.926,8.053-6.883a3.51,3.51,0,0,0-.792-2.409,2.749,2.749,0,0,0-2.168-.895Q388.765,332.409,387.424,335.266Z" transform="translate(-230.509 -86.137)" fill="#454545"/>
    <path id="Path_18" data-name="Path 18" d="M516.329,271.517q0-.756.207-.756a9.362,9.362,0,0,0,3.958-.63,3.546,3.546,0,0,0,1.755-2.456,23.858,23.858,0,0,0,.482-5.605V239.9a25.407,25.407,0,0,0-.447-5.731q-.449-1.7-1.618-1.7-1.1,0-4.4,2.393h-.069c-.138,0-.253-.209-.344-.63a.888.888,0,0,1,.137-.881l12.527-10.833a.223.223,0,0,1,.206-.126c.138,0,.252.106.344.315a1.717,1.717,0,0,1,.138.693V262.07a27.558,27.558,0,0,0,.413,5.668,3.337,3.337,0,0,0,1.652,2.393,9.113,9.113,0,0,0,3.924.63q.206,0,.206.756t-.206.756q-2.478,0-3.855-.126l-5.438-.126-5.438.126q-1.445.127-3.923.126Q516.328,272.273,516.329,271.517Z" transform="translate(-338.799 -0.396)" fill="#454545"/>
    <path id="Path_19" data-name="Path 19" d="M640.044,270.123a22.928,22.928,0,0,1-5.231-9.333,43.871,43.871,0,0,1-1.893-13.341,42.674,42.674,0,0,1,1.893-13.216,21.88,21.88,0,0,1,5.231-9.082,10.6,10.6,0,0,1,7.606-3.257,10.4,10.4,0,0,1,7.571,3.32,22.063,22.063,0,0,1,5.128,9.207,44.841,44.841,0,0,1,1.824,13.279,44.021,44.021,0,0,1-1.859,13.279,22.317,22.317,0,0,1-5.162,9.207,10.19,10.19,0,0,1-15.108-.063Zm13.078-4.886q1.616-5.637,1.617-15.784,0-12.651-2.168-18.79t-5.472-6.138q-3.237,0-5.025,5.825t-1.79,15.721q0,11.151,2.2,17.977t5.851,6.827Q651.5,270.875,653.122,265.238Z" transform="translate(-431.644 0)" fill="#454545"/>
    <path id="Path_20" data-name="Path 20" d="M220.66,514.8h1.74v9.512c0,3.527-1.648,4.614-3.921,4.614a5.075,5.075,0,0,1-1.658-.27l.225-1.43a3.914,3.914,0,0,0,1.292.21c1.461,0,2.321-.648,2.321-3.219Z" transform="translate(-101.784 -232.203)" fill="#454545"/>
    <path id="Path_21" data-name="Path 21" d="M278.707,522.171h-4.822v5.089H279.3v1.462h-7.155V514.8H279v1.462h-5.116v4.459h4.822Z" transform="translate(-145.642 -232.203)" fill="#454545"/>
    <path id="Path_22" data-name="Path 22" d="M330.64,528.722,327.37,514.8h1.824l1.513,6.943c.372,1.742.7,3.418.923,4.873h.055c.211-1.5.613-3.108,1.043-4.9l1.694-6.92h1.708l1.576,6.9c.366,1.659.72,3.283.928,4.894h.048c.263-1.67.608-3.21.989-4.9l1.634-6.9h1.759l-3.577,13.917h-1.781l-1.626-7.1a45.232,45.232,0,0,1-.857-4.557h-.041a41.323,41.323,0,0,1-.979,4.573l-1.792,7.084Z" transform="translate(-189.421 -232.203)" fill="#454545"/>
    <path id="Path_23" data-name="Path 23" d="M432.833,522.171h-4.822v5.089h5.415v1.462h-7.155V514.8h6.856v1.462h-5.116v4.459h4.822Z" transform="translate(-267.825 -232.203)" fill="#454545"/>
    <path id="Path_24" data-name="Path 24" d="M486.049,514.8h1.74v12.451h5.339v1.466h-7.079Z" transform="translate(-315.213 -232.203)" fill="#454545"/>
    <path id="Path_25" data-name="Path 25" d="M544.232,514.639a15.434,15.434,0,0,1,3.106-.29,5.284,5.284,0,0,1,3.761,1.1,3.537,3.537,0,0,1,1.059,2.666,3.668,3.668,0,0,1-2.507,3.559v.048c1.05.354,1.661,1.352,1.99,2.909a21.922,21.922,0,0,0,.989,3.73h-1.793a18.858,18.858,0,0,1-.862-3.365c-.381-1.907-1.089-2.638-2.634-2.676h-1.379v6.041h-1.73Zm1.73,6.359h1.487a2.659,2.659,0,0,0,2.959-2.684c0-1.747-1.108-2.6-2.949-2.605a6.419,6.419,0,0,0-1.5.136Z" transform="translate(-361.338 -231.842)" fill="#454545"/>
    <path id="Path_26" data-name="Path 26" d="M605.9,528.722v-5.9l-4.01-8.021h1.947l1.737,3.737c.474,1.029.886,1.949,1.278,2.953h.041c.353-.962.8-1.919,1.282-2.98l1.759-3.711h1.923l-4.218,7.982v5.935Z" transform="translate(-407.043 -232.203)" fill="#454545"/>
  </g>
</svg>
