<svg xmlns="http://www.w3.org/2000/svg" width="101.656" height="101.656" viewBox="0 0 101.656 101.656">
  <g id="Group_38" data-name="Group 38" transform="translate(-179.906 -179.906)">
    <g id="Group_37" data-name="Group 37" transform="translate(179.906 179.906)">
      <path id="Path_26" data-name="Path 26" d="M230.734,281.562a50.828,50.828,0,1,1,50.828-50.828A50.886,50.886,0,0,1,230.734,281.562Zm0-94.981a44.152,44.152,0,1,0,44.152,44.152A44.2,44.2,0,0,0,230.734,186.582Z" transform="translate(-179.906 -179.906)" fill="#454545"/>
      <path id="Path_27" data-name="Path 27" d="M263.293,246.057c-1.1-1.832-5.138-4.845-6.354-5.731a1.908,1.908,0,0,0-.361-.205c-.9-.418-2.866-2.656-3.938-4.021-.547-1.1-2.794-2.289-3.527-2.65-1.972-.836-6.359-.343-7.113-.249a3.663,3.663,0,0,0-1.5.213,2.764,2.764,0,0,0-1.72,1.959,6.2,6.2,0,0,1-.939,2.287.643.643,0,0,0-.113.252c-.257,1.1.882,1.809,1.906,2.209-.21.192-.407.379-.573.532a2.37,2.37,0,0,0-.64,2.017,1.363,1.363,0,0,0,.827,1.078,2.984,2.984,0,0,0,1.3.159,5.617,5.617,0,0,0,1.561-.341,3.787,3.787,0,0,0,1.634-1.129,1.841,1.841,0,0,1,1-.379c.1-.015.184-.025.245-.041a1.007,1.007,0,0,1,.145-.011,5.979,5.979,0,0,0,2.078-.352,3.825,3.825,0,0,0,.5-.235,2.266,2.266,0,0,0,.694-.621.579.579,0,0,1,.23-.2c.123-.047.365.159.455.274.028.034.053.062.078.089l3.473,3.289a.623.623,0,0,1,.139.268l2.067,6.856a.056.056,0,0,1-.051.064,7.534,7.534,0,0,0-4.426.292,8.115,8.115,0,0,0-2.059,1.165.756.756,0,0,1-.739.1,8.573,8.573,0,0,0-6.344-.109,6.82,6.82,0,0,0-1.615.846,7.239,7.239,0,0,0-3.031,3.525,15.278,15.278,0,0,1-5.213-1.146,13.5,13.5,0,0,1-4.816-3.4,15.9,15.9,0,0,1-3.18-5.462,22.025,22.025,0,0,1-1.15-7.4,21.206,21.206,0,0,1,1.043-6.846,15.359,15.359,0,0,1,2.964-5.265,13.177,13.177,0,0,1,4.654-3.4,15.081,15.081,0,0,1,6.146-1.2,27.693,27.693,0,0,1,3.307.18,17.191,17.191,0,0,1,2.8.575,16.656,16.656,0,0,1,2.605,1.025q1.275.629,2.713,1.492a4.2,4.2,0,0,0,2.228.719,2.855,2.855,0,0,0,1.527-.431,3.913,3.913,0,0,0,1.2-1.186l3.522-5.355a23.973,23.973,0,0,0-3.594-2.8,24.439,24.439,0,0,0-4.439-2.228,30.2,30.2,0,0,0-5.3-1.473,33.322,33.322,0,0,0-6.146-.539,31.568,31.568,0,0,0-11.446,1.977,25.185,25.185,0,0,0-8.733,5.534,24.238,24.238,0,0,0-5.552,8.464,29.012,29.012,0,0,0-1.941,10.763,27.585,27.585,0,0,0,2.031,10.656,25.465,25.465,0,0,0,14.07,14.088,27.445,27.445,0,0,0,10.637,2.03,52.05,52.05,0,0,0,5.984-.323,35.641,35.641,0,0,0,4.162-.729s12.984-1.737,18.052-7.018a8.379,8.379,0,0,0,3.093-3.006,2.134,2.134,0,0,0,.138-1.848A34.04,34.04,0,0,0,263.293,246.057Z" transform="translate(-188.12 -189.03)" fill="#454545"/>
    </g>
  </g>
</svg>
