<svg xmlns="http://www.w3.org/2000/svg" width="175.424" height="74.833" viewBox="0 0 175.424 74.833">
  <g id="Group_45" data-name="Group 45" transform="translate(-130.536 -227.709)">
    <path id="Path_45" data-name="Path 45" d="M309.945,239.191l-45.217,4.647-6.062,14.885,45.566-5.5Z" transform="translate(-61.812 -5.539)" fill="#454545"/>
    <path id="Path_46" data-name="Path 46" d="M261.826,278.057l-6.232,14.405L269.6,290.3l-1.984,4.894-34.43,5.568-6.054,15.183L274,307.425l12.9-32.69Z" transform="translate(-46.6 -22.686)" fill="#454545"/>
    <path id="Path_47" data-name="Path 47" d="M243.122,299.59l13.454-2.061,5.941-14.578-13.4,1.776Z" transform="translate(-54.314 -26.65)" fill="#454545"/>
    <path id="Path_48" data-name="Path 48" d="M130.536,354.673l16.008-2.971,6.488-15.931-15.782,2.418Z" transform="translate(0 -52.13)" fill="#454545"/>
    <path id="Path_49" data-name="Path 49" d="M195.624,288.279l-11.344,1.5-1.133,2.98-14.468,1.781,1.125-2.661-15.563,1.88-6.645,16.328,41.811-6.761Z" transform="translate(-8.229 -29.22)" fill="#454545"/>
    <path id="Path_50" data-name="Path 50" d="M182.068,263.631l14.469-1.781-1.65,4.016,11.211-1.4,6.1-14.853-40.8,4.2-6.49,15.8,15.48-1.869Z" transform="translate(-16.583 -10.566)" fill="#454545"/>
    <path id="Path_51" data-name="Path 51" d="M417.381,227.709l-50.358,5.175L361.5,246.332l38.187-4.771Z" transform="translate(-111.421)" fill="#454545"/>
    <path id="Path_52" data-name="Path 52" d="M352.59,268.553l-5.581,13.589,20.252-3.124,19.082-14.939Z" transform="translate(-104.43 -17.546)" fill="#454545"/>
    <path id="Path_53" data-name="Path 53" d="M337.879,305.831l-5.758,14.021,21.074-16.5Z" transform="translate(-97.248 -36.492)" fill="#454545"/>
  </g>
</svg>
