<svg xmlns="http://www.w3.org/2000/svg" width="361.5" height="155.041" viewBox="0 0 361.5 155.041">
  <g id="Group_131" data-name="Group 131" transform="translate(-93.977 -65.447)">
    <g id="Group_129" data-name="Group 129">
      <g id="Group_125" data-name="Group 125">
        <path id="Path_162" data-name="Path 162" d="M234.223,181.374H237.5l2.67,4.332,2.669-4.332h3.278v11.19h-3.086v-6.426l-2.854,4.379h-.064l-2.837-4.348v6.395h-3.054Z" fill="#1a1818"/>
        <path id="Path_163" data-name="Path 163" d="M255.774,181.374h3.277l2.669,4.332,2.67-4.332h3.278v11.19h-3.085v-6.426l-2.855,4.379h-.063l-2.838-4.348v6.395h-3.053Z" fill="#1a1818"/>
        <path id="Path_164" data-name="Path 164" d="M281.192,181.294h2.99l4.763,11.27h-3.323l-.816-2h-4.317l-.8,2h-3.261Zm2.718,6.873-1.247-3.181-1.262,3.181Z" fill="#1a1818"/>
        <path id="Path_165" data-name="Path 165" d="M316.475,191.621a5.9,5.9,0,0,1-1.534.839,5.211,5.211,0,0,1-1.792.295,5.6,5.6,0,0,1-1.59-.215,3.794,3.794,0,0,1-1.263-.632,2.906,2.906,0,0,1-1.143-2.381v-.033a3.322,3.322,0,0,1,2.269-3.132,4.526,4.526,0,0,1-.558-1.079,3.258,3.258,0,0,1-.177-1.064v-.033a2.882,2.882,0,0,1,.24-1.159,2.82,2.82,0,0,1,.7-.966,3.431,3.431,0,0,1,1.111-.664,4.137,4.137,0,0,1,1.471-.247,4,4,0,0,1,1.382.224,3.2,3.2,0,0,1,1.048.607,2.62,2.62,0,0,1,.663.911,2.8,2.8,0,0,1,.232,1.134v.033a2.592,2.592,0,0,1-.6,1.743,4.616,4.616,0,0,1-1.59,1.167l1.247,1.214c.181-.266.361-.549.537-.847s.349-.607.519-.927l2.047,1.022c-.236.428-.472.838-.712,1.232s-.494.773-.76,1.136l1.5,1.487-2.094,1.5Zm-2.91-1.151a1.858,1.858,0,0,0,.671-.129,2.9,2.9,0,0,0,.656-.351l-1.838-1.87a1.789,1.789,0,0,0-.607.566,1.22,1.22,0,0,0-.193.648v.033a.983.983,0,0,0,.368.8A1.427,1.427,0,0,0,313.565,190.47Zm.32-4.892q1.184-.528,1.183-1.374v-.034a.885.885,0,0,0-.24-.655.917.917,0,0,0-1.271.033,1.021,1.021,0,0,0-.248.718v.033a1.389,1.389,0,0,0,.145.615A3.784,3.784,0,0,0,313.885,185.578Z" fill="#1a1818"/>
        <path id="Path_166" data-name="Path 166" d="M340.741,181.374h8.952v2.716h-5.851v1.888h5.293v2.589h-5.293v4h-3.1Z" fill="#1a1818"/>
        <path id="Path_167" data-name="Path 167" d="M358.84,181.374h3.116v11.19H358.84Z" fill="#1a1818"/>
        <path id="Path_168" data-name="Path 168" d="M374.41,184.09h-3.358v-2.716h9.816v2.716h-3.357v8.474h-3.1Z" fill="#1a1818"/>
        <path id="Path_169" data-name="Path 169" d="M389.9,181.374h2.9l4.614,5.915v-5.915h3.054v11.19h-2.725l-4.789-6.14v6.14H389.9Z" fill="#1a1818"/>
        <path id="Path_170" data-name="Path 170" d="M410.123,181.374h8.984v2.636h-5.93v1.7h5.37v2.446h-5.37v1.773h6.01v2.639h-9.064Z" fill="#1a1818"/>
        <path id="Path_171" data-name="Path 171" d="M432.856,192.755a8.665,8.665,0,0,1-2.856-.466,6.912,6.912,0,0,1-2.388-1.4l1.725-2.066a5.7,5.7,0,0,0,3.63,1.342,1.844,1.844,0,0,0,.95-.2.627.627,0,0,0,.328-.566v-.033a.58.58,0,0,0-.08-.31.8.8,0,0,0-.3-.263,2.978,2.978,0,0,0-.575-.248c-.24-.08-.553-.162-.935-.248q-.9-.206-1.663-.455a5.041,5.041,0,0,1-1.335-.638,2.728,2.728,0,0,1-1.223-2.418v-.031a3.42,3.42,0,0,1,.3-1.436,3.187,3.187,0,0,1,.863-1.134,4.1,4.1,0,0,1,1.366-.742,5.782,5.782,0,0,1,1.807-.263,8.076,8.076,0,0,1,2.566.378,6.445,6.445,0,0,1,2.038,1.119l-1.55,2.2a6.23,6.23,0,0,0-1.575-.824,4.737,4.737,0,0,0-1.559-.281,1.405,1.405,0,0,0-.839.209.616.616,0,0,0-.279.51v.033a.618.618,0,0,0,.088.333.769.769,0,0,0,.3.264,3.392,3.392,0,0,0,.593.24c.25.08.566.162.951.248a13.618,13.618,0,0,1,1.735.486,5.161,5.161,0,0,1,1.319.679,2.721,2.721,0,0,1,.831.966,2.941,2.941,0,0,1,.287,1.346v.034a3.435,3.435,0,0,1-.328,1.531,3.289,3.289,0,0,1-.919,1.142,4.206,4.206,0,0,1-1.423.718A6.519,6.519,0,0,1,432.856,192.755Z" fill="#1a1818"/>
        <path id="Path_172" data-name="Path 172" d="M450.954,192.755a8.659,8.659,0,0,1-2.855-.466,6.907,6.907,0,0,1-2.389-1.4l1.725-2.066a5.7,5.7,0,0,0,3.63,1.342,1.844,1.844,0,0,0,.95-.2.627.627,0,0,0,.328-.566v-.033a.58.58,0,0,0-.08-.31.8.8,0,0,0-.3-.263,2.978,2.978,0,0,0-.575-.248c-.24-.08-.553-.162-.935-.248q-.9-.206-1.663-.455a5.041,5.041,0,0,1-1.335-.638,2.728,2.728,0,0,1-1.223-2.418v-.031a3.421,3.421,0,0,1,.3-1.436,3.2,3.2,0,0,1,.863-1.134,4.1,4.1,0,0,1,1.366-.742,5.782,5.782,0,0,1,1.807-.263,8.077,8.077,0,0,1,2.566.378,6.445,6.445,0,0,1,2.038,1.119l-1.55,2.2a6.23,6.23,0,0,0-1.575-.824,4.737,4.737,0,0,0-1.559-.281,1.405,1.405,0,0,0-.839.209.617.617,0,0,0-.279.51v.033a.618.618,0,0,0,.088.333.769.769,0,0,0,.3.264,3.392,3.392,0,0,0,.593.24c.25.08.566.162.951.248a13.617,13.617,0,0,1,1.735.486,5.162,5.162,0,0,1,1.319.679,2.721,2.721,0,0,1,.831.966,2.928,2.928,0,0,1,.287,1.346v.034a3.435,3.435,0,0,1-.328,1.531,3.29,3.29,0,0,1-.919,1.142,4.207,4.207,0,0,1-1.423.718A6.519,6.519,0,0,1,450.954,192.755Z" fill="#1a1818"/>
      </g>
      <g id="Group_128" data-name="Group 128">
        <g id="Group_126" data-name="Group 126">
          <path id="Path_173" data-name="Path 173" d="M234.223,93.146h20.3a27.783,27.783,0,0,1,8.122,1.115,17.734,17.734,0,0,1,6.225,3.247,14.264,14.264,0,0,1,3.962,5.247,17.106,17.106,0,0,1,1.388,7.039v.132A16.864,16.864,0,0,1,272.7,117.3a15.03,15.03,0,0,1-4.231,5.346,18.385,18.385,0,0,1-6.465,3.255,29.44,29.44,0,0,1-8.155,1.083h-6.5v13.533H234.223Zm19.359,23.547a8.379,8.379,0,0,0,5.515-1.661,5.592,5.592,0,0,0,2-4.527v-.141a5.619,5.619,0,0,0-2-4.66,8.716,8.716,0,0,0-5.585-1.594h-6.16v12.583Z" fill="#ff5100"/>
          <path id="Path_174" data-name="Path 174" d="M279.773,93.146h22.4a27.835,27.835,0,0,1,9.274,1.346,16,16,0,0,1,6.156,3.793q4.2,4.065,4.2,11.03v.14a14.919,14.919,0,0,1-2.64,9.072,16.719,16.719,0,0,1-7.1,5.478l11.3,16.516H308.2l-9.543-14.351H292.9v14.351H279.773Zm21.792,22.737a7.927,7.927,0,0,0,5.213-1.52,5.054,5.054,0,0,0,1.826-4.1v-.132a4.9,4.9,0,0,0-1.892-4.23,8.664,8.664,0,0,0-5.213-1.388h-8.6v11.368Z" fill="#ff5100"/>
          <path id="Path_175" data-name="Path 175" d="M328.437,93.146h38.04v11.162H341.368v7.18h22.737V121.84H341.368v7.511h25.447v11.17H328.437Z" fill="#ff5100"/>
          <path id="Path_176" data-name="Path 176" d="M392.2,140.513a37.793,37.793,0,0,1-12.088-1.909A29.451,29.451,0,0,1,370,132.878l7.3-8.458a24.629,24.629,0,0,0,15.368,5.495,8.042,8.042,0,0,0,4.024-.815,2.556,2.556,0,0,0,1.388-2.316v-.135a2.328,2.328,0,0,0-.339-1.27,3.389,3.389,0,0,0-1.248-1.078,12.955,12.955,0,0,0-2.437-1.015q-1.524-.491-3.958-1.014-3.792-.839-7.039-1.861a21.664,21.664,0,0,1-5.651-2.611,11.976,11.976,0,0,1-3.793-3.985,11.554,11.554,0,0,1-1.388-5.91v-.128a13.6,13.6,0,0,1,1.256-5.878,13.143,13.143,0,0,1,3.652-4.64,17.488,17.488,0,0,1,5.783-3.035,25.167,25.167,0,0,1,7.651-1.078,35.21,35.21,0,0,1,10.865,1.549,27.594,27.594,0,0,1,8.626,4.576l-6.56,8.993a26.672,26.672,0,0,0-6.668-3.37,20.655,20.655,0,0,0-6.6-1.15,6.1,6.1,0,0,0-3.552.854,2.494,2.494,0,0,0-1.182,2.085v.135a2.494,2.494,0,0,0,.372,1.366,3.248,3.248,0,0,0,1.281,1.078,14.476,14.476,0,0,0,2.511.983c1.058.327,2.4.662,4.024,1.014a60.16,60.16,0,0,1,7.345,1.988,22.257,22.257,0,0,1,5.585,2.78,11.286,11.286,0,0,1,3.52,3.953,11.7,11.7,0,0,1,1.215,5.511v.135a13.239,13.239,0,0,1-5.28,10.942,18.055,18.055,0,0,1-6.023,2.939A28.531,28.531,0,0,1,392.2,140.513Z" fill="#ff5100"/>
          <path id="Path_177" data-name="Path 177" d="M436.325,140.513a37.791,37.791,0,0,1-12.087-1.909,29.451,29.451,0,0,1-10.113-5.726l7.3-8.458a24.626,24.626,0,0,0,15.367,5.495,8.04,8.04,0,0,0,4.024-.815,2.556,2.556,0,0,0,1.388-2.316v-.135a2.319,2.319,0,0,0-.339-1.27,3.393,3.393,0,0,0-1.247-1.078,12.967,12.967,0,0,0-2.438-1.015c-1.016-.327-2.338-.663-3.957-1.014q-3.792-.839-7.04-1.861a21.694,21.694,0,0,1-5.651-2.611,11.964,11.964,0,0,1-3.792-3.985,11.544,11.544,0,0,1-1.388-5.91v-.128a13.614,13.614,0,0,1,1.255-5.878,13.154,13.154,0,0,1,3.652-4.64,17.483,17.483,0,0,1,5.784-3.035,25.157,25.157,0,0,1,7.651-1.078,35.2,35.2,0,0,1,10.864,1.549,27.583,27.583,0,0,1,8.626,4.576l-6.56,8.993a26.654,26.654,0,0,0-6.668-3.37,20.653,20.653,0,0,0-6.6-1.15,6.1,6.1,0,0,0-3.553.854,2.492,2.492,0,0,0-1.181,2.085v.135a2.5,2.5,0,0,0,.371,1.366,3.248,3.248,0,0,0,1.281,1.078,14.49,14.49,0,0,0,2.512.983c1.057.327,2.4.662,4.024,1.014a60.21,60.21,0,0,1,7.345,1.988,22.291,22.291,0,0,1,5.585,2.78,11.3,11.3,0,0,1,3.52,3.953,11.71,11.71,0,0,1,1.214,5.511v.135a13.241,13.241,0,0,1-5.279,10.942,18.051,18.051,0,0,1-6.024,2.939A28.526,28.526,0,0,1,436.325,140.513Z" fill="#ff5100"/>
        </g>
        <g id="Group_127" data-name="Group 127">
          <path id="Path_178" data-name="Path 178" d="M234.223,146.741h22.553v6.843H242.035v4.754h13.33v6.524h-13.33V174.93h-7.812Z" fill="#ff5100"/>
          <path id="Path_179" data-name="Path 179" d="M274.495,174.93a16.206,16.206,0,0,1-6.042-1.106,14.878,14.878,0,0,1-4.79-3,13.735,13.735,0,0,1-3.161-4.452,13.125,13.125,0,0,1-1.148-5.459v-.076a13.258,13.258,0,0,1,1.148-5.477,13.706,13.706,0,0,1,3.2-4.495,15.29,15.29,0,0,1,4.833-3.02,17.106,17.106,0,0,1,12.081,0,15.013,15.013,0,0,1,4.793,3,13.893,13.893,0,0,1,3.161,4.452,13.206,13.206,0,0,1,1.148,5.459v.08a13.321,13.321,0,0,1-1.148,5.478,13.7,13.7,0,0,1-3.2,4.49,15.162,15.162,0,0,1-4.832,3.021A16.2,16.2,0,0,1,274.495,174.93Zm.062-6.778a7.308,7.308,0,0,0,2.947-.581,6.752,6.752,0,0,0,2.261-1.57,7.165,7.165,0,0,0,1.453-2.3,7.44,7.44,0,0,0,.526-2.789v-.076a7.435,7.435,0,0,0-.526-2.788,7.179,7.179,0,0,0-1.492-2.326,7.471,7.471,0,0,0-2.3-1.607,7.241,7.241,0,0,0-8.139,1.551,6.8,6.8,0,0,0-1.452,2.306,7.689,7.689,0,0,0-.5,2.784v.08a7.493,7.493,0,0,0,.523,2.789,7.28,7.28,0,0,0,1.475,2.321,7.071,7.071,0,0,0,5.231,2.207Z" fill="#ff5100"/>
          <path id="Path_180" data-name="Path 180" d="M293.786,146.741h13.327a16.547,16.547,0,0,1,5.52.8A9.494,9.494,0,0,1,316.3,149.8a8.707,8.707,0,0,1,2.5,6.563v.083a8.876,8.876,0,0,1-1.568,5.4,9.942,9.942,0,0,1-4.233,3.259l6.73,9.828H310.7l-5.682-8.54H301.6v8.54h-7.811Zm12.968,13.529a4.729,4.729,0,0,0,3.1-.9,3.015,3.015,0,0,0,1.086-2.439v-.078a2.911,2.911,0,0,0-1.13-2.517,5.146,5.146,0,0,0-3.1-.826H301.6v6.764Z" fill="#ff5100"/>
          <path id="Path_181" data-name="Path 181" d="M320.848,146.741H329.1l4.916,16.307,5.437-16.39h6.725l5.437,16.39,4.911-16.307h8.1l-9.424,28.39h-6.809L342.714,158.9l-5.638,16.228h-6.8Z" fill="#ff5100"/>
          <path id="Path_182" data-name="Path 182" d="M377.465,146.54H385l12,28.39h-8.372L386.57,169.9H375.7l-2.016,5.034h-8.215Zm6.848,17.314-3.141-8.013-3.181,8.013Z" fill="#ff5100"/>
          <path id="Path_183" data-name="Path 183" d="M399.74,146.741h13.327a16.558,16.558,0,0,1,5.521.8,9.5,9.5,0,0,1,3.662,2.256,8.7,8.7,0,0,1,2.5,6.563v.083a8.876,8.876,0,0,1-1.568,5.4,9.942,9.942,0,0,1-4.233,3.259l6.73,9.828h-9.02l-5.683-8.54h-3.422v8.54H399.74Zm12.968,13.529a4.727,4.727,0,0,0,3.1-.9,3.015,3.015,0,0,0,1.086-2.439v-.078a2.911,2.911,0,0,0-1.13-2.517,5.146,5.146,0,0,0-3.1-.826h-5.118v6.764Z" fill="#ff5100"/>
          <path id="Path_184" data-name="Path 184" d="M428.7,146.741h10.874a20.558,20.558,0,0,1,6.745,1.023,14.331,14.331,0,0,1,4.994,2.881,12.251,12.251,0,0,1,3.1,4.409,14.43,14.43,0,0,1,1.072,5.619v.079a14.447,14.447,0,0,1-1.091,5.658,12.638,12.638,0,0,1-3.142,4.493,14.487,14.487,0,0,1-5.053,2.96,20.128,20.128,0,0,1-6.784,1.067H428.7ZM439.7,168a8.353,8.353,0,0,0,5.658-1.853,6.6,6.6,0,0,0,2.143-5.275V160.8a6.616,6.616,0,0,0-2.143-5.255,8.288,8.288,0,0,0-5.658-1.873h-3.2V168Z" fill="#ff5100"/>
        </g>
      </g>
    </g>
    <g id="Group_130" data-name="Group 130">
      <path id="Path_185" data-name="Path 185" d="M168.356,129.043a28.877,28.877,0,0,0,1.365-9.145v-.2a31.36,31.36,0,0,0-.483-5.618q-.122-.665-.272-1.309a24.22,24.22,0,0,0-1.177-3.693,23.19,23.19,0,0,0-1.328-2.7,20.921,20.921,0,0,0-4.186-5.213,22.058,22.058,0,0,0-2.9-2.2,23.448,23.448,0,0,0-2.166-1.225q-.565-.282-1.153-.54-1.178-.518-2.45-.938A32.26,32.26,0,0,0,148.224,95l-.622,1.175-8.511,16.06h.338q4.635,0,7.215,2.123a6.623,6.623,0,0,1,1.571,1.871,7.242,7.242,0,0,1,.645,1.551,10.031,10.031,0,0,1,.362,2.783v.187a9.114,9.114,0,0,1-.362,2.633,7.114,7.114,0,0,1-2.216,3.4,9.1,9.1,0,0,1-4.339,1.961,15,15,0,0,1-2.786.25h-2.927l5.718,5.8,2.353,2.388-2.353,2.388-5.977,6.065h5.03a41.414,41.414,0,0,0,5.9-.409A35.278,35.278,0,0,0,152.713,144a26.472,26.472,0,0,0,5.967-2.688q.54-.331,1.056-.69a22.884,22.884,0,0,0,1.975-1.533q.471-.406.917-.838a21.584,21.584,0,0,0,1.677-1.822,23.3,23.3,0,0,0,3.294-5.4C167.882,130.39,168.129,129.724,168.356,129.043Z" fill="#1a1818"/>
      <path id="Path_186" data-name="Path 186" d="M129.372,147.853l10.514-10.67-8.07-8.19-3.353-3.4-6.169-6.261v9.465h-9.547V112.328h22.446l5.686-10.731,3.683-6.949.034-.064H93.977V191.35l18.77-21.73v-23.6h9.547v9.018l5.91-6ZM96.943,181.712V155.8l2.385,20.069,10.51-6.4Zm1.942-80.574-1.942,9.644V98.354h25.912Zm37.627,36.084-7.447,6.937,4.735-6.937-7.914-9.9Z" fill="#ff5100"/>
    </g>
    <rect id="Rectangle_101" data-name="Rectangle 101" width="2.519" height="155.041" transform="translate(198.03 65.446)" fill="#1a1818"/>
  </g>
</svg>
