<svg xmlns="http://www.w3.org/2000/svg" width="269.683" height="221.155" viewBox="0 0 269.683 221.155">
  <g id="Group_87" data-name="Group 87" transform="translate(-250.871 -295.7)">
    <g id="Group_84" data-name="Group 84" transform="translate(251.883 295.7)">
      <path id="Path_124" data-name="Path 124" d="M253.027,295.7V402.28H266.6V314.945L507.965,397.36V453.11h-32.99v13.857h46.567V387.383Z" transform="translate(-252.872 -295.7)" fill="#8a929d"/>
      <g id="Group_83" data-name="Group 83" transform="translate(0 118.422)">
        <path id="Path_125" data-name="Path 125" d="M276.819,567.914a39.9,39.9,0,0,1-13.1-2.141,31.727,31.727,0,0,1-10.974-6.427l7.927-9.49a26.155,26.155,0,0,0,16.665,6.166,8.47,8.47,0,0,0,4.368-.916,2.887,2.887,0,0,0,1.506-2.6v-.146a2.781,2.781,0,0,0-.367-1.429,3.787,3.787,0,0,0-1.36-1.21,14.093,14.093,0,0,0-2.641-1.135q-1.652-.55-4.295-1.137-4.113-.951-7.635-2.086a23.39,23.39,0,0,1-6.131-2.933,12.513,12.513,0,0,1-5.615-11.1v-.144a15.822,15.822,0,0,1,1.358-6.6,14.642,14.642,0,0,1,3.965-5.2,18.612,18.612,0,0,1,6.275-3.407,26.48,26.48,0,0,1,8.3-1.21A36.994,36.994,0,0,1,286.84,516.5a29.7,29.7,0,0,1,9.36,5.134l-7.122,10.088a28.874,28.874,0,0,0-7.232-3.782,21.852,21.852,0,0,0-7.157-1.286,6.434,6.434,0,0,0-3.853.954,2.835,2.835,0,0,0-1.285,2.345v.146a2.9,2.9,0,0,0,.4,1.54,3.663,3.663,0,0,0,1.4,1.21,15.373,15.373,0,0,0,2.716,1.1q1.724.548,4.368,1.135a62.871,62.871,0,0,1,7.964,2.235,23.8,23.8,0,0,1,6.058,3.114,12.512,12.512,0,0,1,3.817,4.433,13.539,13.539,0,0,1,1.321,6.192v.148a15.826,15.826,0,0,1-1.5,7.035,15.139,15.139,0,0,1-4.222,5.239,19.1,19.1,0,0,1-6.533,3.3A29.791,29.791,0,0,1,276.819,567.914Z" transform="translate(-252.74 -514.618)" fill="#1b3a68"/>
        <path id="Path_126" data-name="Path 126" d="M340.764,516.391h15.931l11.672,32.523,11.673-32.523h15.637l-20.85,51.756H361.614Z" transform="translate(-293.121 -515.364)" fill="#1b3a68"/>
        <path id="Path_127" data-name="Path 127" d="M443.845,516.391h15.931l11.672,32.523,11.673-32.523h15.637l-20.85,51.756H464.695Z" transform="translate(-340.409 -515.364)" fill="#1b3a68"/>
        <path id="Path_128" data-name="Path 128" d="M577.769,567.938a27.088,27.088,0,0,1-10.351-1.982,25.283,25.283,0,0,1-8.407-5.545,26.7,26.7,0,0,1-7.745-19.05v-.146a26.819,26.819,0,0,1,7.708-18.976,25.794,25.794,0,0,1,8.552-5.691,28,28,0,0,1,10.829-2.055,31.082,31.082,0,0,1,7.195.77,24.689,24.689,0,0,1,5.909,2.2,23.716,23.716,0,0,1,4.846,3.413,28.168,28.168,0,0,1,3.853,4.333l-10.718,8.3A18.575,18.575,0,0,0,584.6,529.1a12.033,12.033,0,0,0-6.387-1.615,11.408,11.408,0,0,0-4.956,1.064,11.9,11.9,0,0,0-3.853,2.9,13.541,13.541,0,0,0-2.532,4.331,15.16,15.16,0,0,0-.917,5.286v.148a15.658,15.658,0,0,0,.917,5.395,13.4,13.4,0,0,0,2.532,4.368,11.842,11.842,0,0,0,3.853,2.9,11.386,11.386,0,0,0,4.956,1.066,14.174,14.174,0,0,0,3.634-.44,11.105,11.105,0,0,0,3.01-1.285,16.355,16.355,0,0,0,2.568-1.984,29.4,29.4,0,0,0,2.386-2.533l10.718,7.635a38.023,38.023,0,0,1-4,4.624,22.936,22.936,0,0,1-4.919,3.671,25.608,25.608,0,0,1-6.167,2.422A30.687,30.687,0,0,1,577.769,567.938Z" transform="translate(-389.688 -514.494)" fill="#1b3a68"/>
      </g>
    </g>
    <g id="Group_85" data-name="Group 85" transform="translate(250.871 494.339)">
      <path id="Path_129" data-name="Path 129" d="M262.036,685.216a11.4,11.4,0,0,1-4.36-.836,10.632,10.632,0,0,1-3.541-2.335,11.253,11.253,0,0,1-3.263-8.026v-.062a11.3,11.3,0,0,1,3.248-8,10.874,10.874,0,0,1,3.6-2.4,11.8,11.8,0,0,1,4.563-.866,13.086,13.086,0,0,1,3.031.325,10.381,10.381,0,0,1,2.49.928,9.918,9.918,0,0,1,2.041,1.438,11.857,11.857,0,0,1,1.624,1.825l-4.515,3.495a7.828,7.828,0,0,0-2.042-1.855,5.068,5.068,0,0,0-2.691-.681,4.814,4.814,0,0,0-2.088.449,5,5,0,0,0-1.623,1.222,5.712,5.712,0,0,0-1.067,1.825,6.4,6.4,0,0,0-.386,2.227v.062a6.623,6.623,0,0,0,.386,2.273,5.672,5.672,0,0,0,1.067,1.841,4.983,4.983,0,0,0,1.623,1.221,4.8,4.8,0,0,0,2.088.449,5.923,5.923,0,0,0,1.531-.186,4.694,4.694,0,0,0,1.268-.541,6.864,6.864,0,0,0,1.082-.836,12.444,12.444,0,0,0,1.005-1.067l4.516,3.217a16.138,16.138,0,0,1-1.685,1.948,9.7,9.7,0,0,1-2.073,1.546,10.834,10.834,0,0,1-2.6,1.021A12.989,12.989,0,0,1,262.036,685.216Z" transform="translate(-250.871 -662.699)" fill="#1b3a68"/>
      <path id="Path_130" data-name="Path 130" d="M309.929,685.216a12.028,12.028,0,0,1-4.64-.882,11.426,11.426,0,0,1-3.681-2.4,11.075,11.075,0,0,1-2.427-3.557,10.883,10.883,0,0,1-.882-4.361v-.062a11.034,11.034,0,0,1,3.341-7.964,11.648,11.648,0,0,1,3.711-2.412,12.648,12.648,0,0,1,9.279,0,11.433,11.433,0,0,1,3.68,2.4,11.061,11.061,0,0,1,2.427,3.557,10.87,10.87,0,0,1,.882,4.361v.062a11.039,11.039,0,0,1-3.34,7.964,11.662,11.662,0,0,1-3.711,2.412A12.031,12.031,0,0,1,309.929,685.216Zm.046-5.412a5.42,5.42,0,0,0,2.265-.464,5.208,5.208,0,0,0,1.736-1.253,5.814,5.814,0,0,0,1.117-1.84,6.174,6.174,0,0,0,.4-2.227v-.062a6.173,6.173,0,0,0-.4-2.227,5.733,5.733,0,0,0-1.147-1.855,5.652,5.652,0,0,0-1.768-1.284,5.632,5.632,0,0,0-4.512-.016,5.393,5.393,0,0,0-2.854,3.093,6.381,6.381,0,0,0-.388,2.227v.062a6.186,6.186,0,0,0,.4,2.227,5.858,5.858,0,0,0,1.133,1.855,5.454,5.454,0,0,0,1.752,1.284A5.27,5.27,0,0,0,309.975,679.8Z" transform="translate(-272.629 -662.699)" fill="#1b3a68"/>
      <path id="Path_131" data-name="Path 131" d="M352.872,663.5h5.61l8.927,11.444V663.5h5.907v21.65h-5.269l-9.268-11.877v11.877h-5.907Z" transform="translate(-297.664 -663.066)" fill="#1b3a68"/>
      <path id="Path_132" data-name="Path 132" d="M407.709,668.757h-6.5V663.5H420.2v5.258h-6.495v16.392h-6Z" transform="translate(-319.841 -663.066)" fill="#1b3a68"/>
      <path id="Path_133" data-name="Path 133" d="M446.872,663.5h10.237a12.68,12.68,0,0,1,4.237.619,7.264,7.264,0,0,1,2.815,1.732,6.692,6.692,0,0,1,1.918,5.041v.062a6.807,6.807,0,0,1-1.206,4.144,7.622,7.622,0,0,1-3.247,2.5l5.165,7.547h-6.928l-4.36-6.557h-2.629v6.557h-6Zm9.959,10.392a3.624,3.624,0,0,0,2.381-.7,2.309,2.309,0,0,0,.836-1.871v-.062a2.239,2.239,0,0,0-.867-1.933,3.964,3.964,0,0,0-2.382-.634h-3.927v5.2Z" transform="translate(-340.786 -663.066)" fill="#1b3a68"/>
      <path id="Path_134" data-name="Path 134" d="M499.688,663.213h5.784l9.217,21.8h-6.433l-1.577-3.866h-8.35l-1.547,3.866h-6.309Zm5.258,13.3-2.413-6.155-2.444,6.155Z" transform="translate(-360.788 -662.935)" fill="#1b3a68"/>
      <path id="Path_135" data-name="Path 135" d="M554.608,685.216a11.4,11.4,0,0,1-4.361-.836,10.638,10.638,0,0,1-3.541-2.335,11.249,11.249,0,0,1-3.263-8.026v-.062a11.3,11.3,0,0,1,3.248-8,10.871,10.871,0,0,1,3.6-2.4,11.8,11.8,0,0,1,4.562-.866,13.085,13.085,0,0,1,3.031.325,10.364,10.364,0,0,1,2.49.928,9.921,9.921,0,0,1,2.041,1.438,11.859,11.859,0,0,1,1.624,1.825l-4.516,3.495a7.819,7.819,0,0,0-2.042-1.855,5.066,5.066,0,0,0-2.691-.681,4.81,4.81,0,0,0-2.088.449,5,5,0,0,0-1.624,1.222,5.721,5.721,0,0,0-1.067,1.825,6.4,6.4,0,0,0-.386,2.227v.062a6.623,6.623,0,0,0,.386,2.273,5.681,5.681,0,0,0,1.067,1.841,4.979,4.979,0,0,0,1.624,1.221,4.794,4.794,0,0,0,2.088.449,5.92,5.92,0,0,0,1.531-.186,4.7,4.7,0,0,0,1.269-.541,6.888,6.888,0,0,0,1.081-.836,12.288,12.288,0,0,0,1.005-1.067l4.517,3.217a16.189,16.189,0,0,1-1.686,1.948,9.715,9.715,0,0,1-2.072,1.546,10.845,10.845,0,0,1-2.6,1.021A12.992,12.992,0,0,1,554.608,685.216Z" transform="translate(-385.088 -662.699)" fill="#1b3a68"/>
      <path id="Path_136" data-name="Path 136" d="M596.509,668.757h-6.5V663.5H609v5.258h-6.495v16.392h-6Z" transform="translate(-406.452 -663.066)" fill="#1b3a68"/>
      <path id="Path_137" data-name="Path 137" d="M635.9,663.5h6.031v21.65H635.9Z" transform="translate(-427.502 -663.066)" fill="#1b3a68"/>
      <path id="Path_138" data-name="Path 138" d="M660.071,663.5h5.61l8.927,11.444V663.5h5.907v21.65h-5.269l-9.268-11.877v11.877h-5.907Z" transform="translate(-438.591 -663.066)" fill="#1b3a68"/>
      <path id="Path_139" data-name="Path 139" d="M721.053,685.216a13.055,13.055,0,0,1-4.686-.82,11.181,11.181,0,0,1-3.727-2.3,10.656,10.656,0,0,1-2.475-3.542,11.221,11.221,0,0,1-.9-4.531v-.062a11.2,11.2,0,0,1,3.294-8,10.975,10.975,0,0,1,3.685-2.4,12.316,12.316,0,0,1,4.651-.866,13.33,13.33,0,0,1,4.964.835,13.58,13.58,0,0,1,3.82,2.32l-3.525,4.237a9.747,9.747,0,0,0-2.4-1.516,7.116,7.116,0,0,0-2.83-.526,5.136,5.136,0,0,0-2.18.464A5.461,5.461,0,0,0,717,669.782a6.084,6.084,0,0,0-1.175,1.887,6.181,6.181,0,0,0-.434,2.319v.062a6.56,6.56,0,0,0,.435,2.412,5.422,5.422,0,0,0,1.225,1.9,5.752,5.752,0,0,0,1.862,1.237,6.071,6.071,0,0,0,2.373.448,6.213,6.213,0,0,0,3.475-.9v-2.629H720.5v-4.392h9.958v9.743a15.739,15.739,0,0,1-4.082,2.382A13.984,13.984,0,0,1,721.053,685.216Z" transform="translate(-461.16 -662.699)" fill="#1b3a68"/>
    </g>
    <g id="Group_86" data-name="Group 86" transform="translate(251.518 478.39)">
      <path id="Path_140" data-name="Path 140" d="M257.14,644.484a8.413,8.413,0,0,1-2.761-.451,6.688,6.688,0,0,1-2.312-1.354l1.671-2a5.509,5.509,0,0,0,3.509,1.3,1.793,1.793,0,0,0,.92-.193.608.608,0,0,0,.317-.548v-.03a.59.59,0,0,0-.077-.3.8.8,0,0,0-.286-.255,2.994,2.994,0,0,0-.557-.239q-.348-.115-.9-.239-.866-.2-1.608-.439a4.939,4.939,0,0,1-1.291-.618,2.636,2.636,0,0,1-1.183-2.338v-.031a3.339,3.339,0,0,1,.286-1.389,3.092,3.092,0,0,1,.836-1.1,3.915,3.915,0,0,1,1.321-.717,5.564,5.564,0,0,1,1.747-.255,7.779,7.779,0,0,1,2.482.366,6.264,6.264,0,0,1,1.971,1.081l-1.5,2.124a6.082,6.082,0,0,0-1.522-.8,4.6,4.6,0,0,0-1.508-.271,1.354,1.354,0,0,0-.812.2.6.6,0,0,0-.27.494v.031a.611.611,0,0,0,.085.324.768.768,0,0,0,.294.255,3.242,3.242,0,0,0,.572.232q.364.116.92.239a13.2,13.2,0,0,1,1.677.47,5.032,5.032,0,0,1,1.276.656,2.629,2.629,0,0,1,.8.934,2.853,2.853,0,0,1,.278,1.3v.031a3.337,3.337,0,0,1-.316,1.481,3.19,3.19,0,0,1-.889,1.1,4.039,4.039,0,0,1-1.376.694A6.3,6.3,0,0,1,257.14,644.484Z" transform="translate(-252.067 -633.258)" fill="#8a929d"/>
      <path id="Path_141" data-name="Path 141" d="M281.907,644.488a6.021,6.021,0,0,1-2.319-.441,5.711,5.711,0,0,1-1.84-1.2,5.542,5.542,0,0,1-1.214-1.779,5.443,5.443,0,0,1-.441-2.18v-.031a5.512,5.512,0,0,1,1.67-3.981,5.836,5.836,0,0,1,1.855-1.206,6.326,6.326,0,0,1,4.639,0,5.719,5.719,0,0,1,1.84,1.2,5.543,5.543,0,0,1,1.214,1.778,5.45,5.45,0,0,1,.441,2.181v.03a5.514,5.514,0,0,1-1.67,3.982,5.814,5.814,0,0,1-1.855,1.206A6.023,6.023,0,0,1,281.907,644.488Zm.023-2.706a2.724,2.724,0,0,0,1.133-.232,2.615,2.615,0,0,0,.868-.626,2.935,2.935,0,0,0,.558-.92,3.1,3.1,0,0,0,.2-1.113v-.031a3.1,3.1,0,0,0-.2-1.113,2.88,2.88,0,0,0-.574-.928,2.835,2.835,0,0,0-.883-.641,2.814,2.814,0,0,0-2.256-.008,2.7,2.7,0,0,0-1.427,1.546,3.187,3.187,0,0,0-.193,1.113v.03a3.1,3.1,0,0,0,.2,1.113,2.949,2.949,0,0,0,.567.928,2.725,2.725,0,0,0,.876.641A2.636,2.636,0,0,0,281.93,641.782Z" transform="translate(-263.089 -633.232)" fill="#8a929d"/>
      <path id="Path_142" data-name="Path 142" d="M309.84,644.656a6.9,6.9,0,0,1-2.088-.294,4.049,4.049,0,0,1-1.577-.9,4,4,0,0,1-1-1.546,6.311,6.311,0,0,1-.349-2.2v-6.077h3.062v6.015a2.448,2.448,0,0,0,.536,1.74,1.9,1.9,0,0,0,1.443.564,1.938,1.938,0,0,0,1.441-.541,2.307,2.307,0,0,0,.537-1.685v-6.092h3.062v6a6.364,6.364,0,0,1-.363,2.265,3.919,3.919,0,0,1-2.614,2.466A6.965,6.965,0,0,1,309.84,644.656Z" transform="translate(-276.272 -633.416)" fill="#8a929d"/>
      <path id="Path_143" data-name="Path 143" d="M333.445,636.261H330.2v-2.629h9.494v2.629h-3.247v8.195h-3Z" transform="translate(-287.909 -633.416)" fill="#8a929d"/>
      <path id="Path_144" data-name="Path 144" d="M354.738,633.632h3v4.051h3.85v-4.051h3v10.823h-3v-4.113h-3.85v4.113h-3Z" transform="translate(-299.167 -633.416)" fill="#8a929d"/>
      <path id="Path_145" data-name="Path 145" d="M381.048,633.632h8.689v2.551H384v1.639h5.2v2.366H384V641.9h5.814v2.552h-8.767Z" transform="translate(-311.237 -633.416)" fill="#8a929d"/>
      <path id="Path_146" data-name="Path 146" d="M404.672,633.632h5.118a6.357,6.357,0,0,1,2.118.309,3.639,3.639,0,0,1,1.407.866,3.345,3.345,0,0,1,.958,2.52v.031a3.409,3.409,0,0,1-.6,2.072,3.822,3.822,0,0,1-1.623,1.253l2.581,3.773h-3.463l-2.18-3.278h-1.314v3.278h-3Zm4.978,5.195a1.813,1.813,0,0,0,1.191-.347,1.156,1.156,0,0,0,.417-.936v-.03a1.118,1.118,0,0,0-.434-.967,1.974,1.974,0,0,0-1.19-.317h-1.963v2.6Z" transform="translate(-322.074 -633.416)" fill="#8a929d"/>
      <path id="Path_147" data-name="Path 147" d="M429.782,633.632h2.8l4.463,5.721v-5.721H440v10.823h-2.634l-4.634-5.937v5.938h-2.953Z" transform="translate(-333.594 -633.416)" fill="#8a929d"/>
      <path id="Path_148" data-name="Path 148" d="M467.661,633.632h3.355l2.459,6.849,2.458-6.849h3.294l-4.392,10.9h-2.783Z" transform="translate(-350.97 -633.416)" fill="#8a929d"/>
      <path id="Path_149" data-name="Path 149" d="M495.544,633.632h8.689v2.551H498.5v1.639h5.2v2.366h-5.2V641.9h5.815v2.552h-8.767Z" transform="translate(-363.762 -633.416)" fill="#8a929d"/>
      <path id="Path_150" data-name="Path 150" d="M524.373,644.488a6.515,6.515,0,0,1-2.343-.41,5.587,5.587,0,0,1-1.864-1.151,5.318,5.318,0,0,1-1.236-1.771,5.6,5.6,0,0,1-.449-2.265v-.031a5.6,5.6,0,0,1,1.647-4,5.484,5.484,0,0,1,1.841-1.2,6.161,6.161,0,0,1,2.326-.433,6.672,6.672,0,0,1,2.482.417,6.811,6.811,0,0,1,1.909,1.16l-1.762,2.118a4.845,4.845,0,0,0-1.2-.758,3.55,3.55,0,0,0-1.415-.263,2.567,2.567,0,0,0-1.09.232,2.726,2.726,0,0,0-.873.634,3.043,3.043,0,0,0-.588.943,3.085,3.085,0,0,0-.216,1.159v.031a3.3,3.3,0,0,0,.217,1.206,2.714,2.714,0,0,0,.613.95,2.879,2.879,0,0,0,.93.619,3.044,3.044,0,0,0,1.188.224,3.109,3.109,0,0,0,1.737-.448v-1.315h-2.134v-2.2h4.978v4.87a7.858,7.858,0,0,1-2.042,1.191A6.978,6.978,0,0,1,524.373,644.488Z" transform="translate(-374.284 -633.232)" fill="#8a929d"/>
      <path id="Path_151" data-name="Path 151" d="M548.713,633.489H551.6l4.608,10.9H553l-.789-1.933h-4.175l-.773,1.933H544.1Zm2.628,6.649-1.206-3.077-1.222,3.077Z" transform="translate(-386.039 -633.35)" fill="#8a929d"/>
      <path id="Path_152" data-name="Path 152" d="M576.544,644.484a8.407,8.407,0,0,1-2.76-.451,6.678,6.678,0,0,1-2.312-1.354l1.67-2a5.509,5.509,0,0,0,3.509,1.3,1.792,1.792,0,0,0,.92-.193.608.608,0,0,0,.317-.548v-.03a.584.584,0,0,0-.077-.3.8.8,0,0,0-.286-.255,2.994,2.994,0,0,0-.557-.239q-.348-.115-.9-.239-.866-.2-1.608-.439a4.939,4.939,0,0,1-1.291-.618,2.636,2.636,0,0,1-1.183-2.338v-.031a3.331,3.331,0,0,1,.286-1.389,3.084,3.084,0,0,1,.835-1.1,3.92,3.92,0,0,1,1.321-.717,5.566,5.566,0,0,1,1.747-.255,7.784,7.784,0,0,1,2.483.366,6.261,6.261,0,0,1,1.971,1.081l-1.5,2.124a6.086,6.086,0,0,0-1.523-.8,4.6,4.6,0,0,0-1.508-.271,1.353,1.353,0,0,0-.811.2.6.6,0,0,0-.27.494v.031a.607.607,0,0,0,.085.324.765.765,0,0,0,.293.255,3.259,3.259,0,0,0,.572.232q.364.116.92.239a13.178,13.178,0,0,1,1.677.47,5.044,5.044,0,0,1,1.276.656,2.634,2.634,0,0,1,.8.934,2.86,2.86,0,0,1,.277,1.3v.031a3.337,3.337,0,0,1-.316,1.481,3.184,3.184,0,0,1-.889,1.1,4.036,4.036,0,0,1-1.376.694A6.3,6.3,0,0,1,576.544,644.484Z" transform="translate(-398.594 -633.258)" fill="#8a929d"/>
      <path id="Path_153" data-name="Path 153" d="M607.066,633.632h3.355l2.459,6.849,2.458-6.849h3.294l-4.392,10.9h-2.783Z" transform="translate(-414.922 -633.416)" fill="#8a929d"/>
      <path id="Path_154" data-name="Path 154" d="M637.956,633.489h2.891l4.608,10.9h-3.216l-.789-1.933h-4.175l-.773,1.933h-3.154Zm2.629,6.649-1.206-3.077-1.221,3.077Z" transform="translate(-426.979 -633.35)" fill="#8a929d"/>
      <path id="Path_155" data-name="Path 155" d="M662.23,633.632h3v8.194h5.241v2.629H662.23Z" transform="translate(-440.229 -633.416)" fill="#8a929d"/>
      <path id="Path_156" data-name="Path 156" d="M684.4,633.632h3v8.194h5.242v2.629H684.4Z" transform="translate(-450.398 -633.416)" fill="#8a929d"/>
      <path id="Path_157" data-name="Path 157" d="M706.566,633.632h8.689v2.551h-5.737v1.639h5.2v2.366h-5.2V641.9h5.814v2.552h-8.767Z" transform="translate(-460.568 -633.416)" fill="#8a929d"/>
      <path id="Path_158" data-name="Path 158" d="M732.475,640.4l-4.113-6.772h3.418L734,637.575l2.242-3.943H739.6l-4.112,6.726v4.1h-3.015Z" transform="translate(-470.566 -633.416)" fill="#8a929d"/>
    </g>
  </g>
</svg>
