<svg xmlns="http://www.w3.org/2000/svg" width="114.358" height="76.193" viewBox="0 0 114.358 76.193">
  <g id="Group_18" data-name="Group 18" transform="translate(-442.821 -406.742)">
    <g id="Group_18-2" data-name="Group 18">
      <path id="Path_8" data-name="Path 8" d="M442.821,452.778l20.869-12.024s7.828-4.252,7.828-17.972V409.063s.507-3.751-2.957-1.716l-16.6,9.749s-9.114,3.808-9.114,17.319Z" fill="#e6fd36"/>
      <path id="Path_9" data-name="Path 9" d="M442.821,436.9l20.869,12.024s7.828,4.252,7.828,17.971v13.72s.507,3.751-2.957,1.716l-16.6-9.75s-9.114-3.808-9.114-17.319Z" fill="#e6fd36"/>
    </g>
    <g id="Group_19" data-name="Group 19">
      <path id="Path_10" data-name="Path 10" d="M498.3,460.173v5.239a13.951,13.951,0,0,1-4.42.655,7.851,7.851,0,0,1-5.676-1.992q-2.073-1.992-2.074-6.358v-16.7h-4.8V436h4.8V423.61h6.795V436h5.184v5.021h-5.184v16.235a3.276,3.276,0,0,0,.764,2.524,3.394,3.394,0,0,0,2.292.669A10.709,10.709,0,0,0,498.3,460.173Z" fill="#fff"/>
      <path id="Path_11" data-name="Path 11" d="M513.426,452.914l-2.974,3.03v9.577h-6.767V423.61h6.767v24.039l2.019-2.511L520.548,436h8.186l-10.942,12.279,12.088,17.245h-7.858Z" fill="#fff"/>
      <path id="Path_12" data-name="Path 12" d="M557.179,455.7a9.485,9.485,0,0,1-1.719,5.212,11.591,11.591,0,0,1-4.366,3.765,12.957,12.957,0,0,1-5.976,1.392,13.42,13.42,0,0,1-7.435-1.965,12.03,12.03,0,0,1-4.543-5.334,18.343,18.343,0,0,1-1.5-7.545V450.3a18.2,18.2,0,0,1,1.515-7.545,12.145,12.145,0,0,1,4.543-5.334,14.734,14.734,0,0,1,13.629-.559,10.454,10.454,0,0,1,4.243,3.942,11.624,11.624,0,0,1,1.61,5.813h-6.412a6.634,6.634,0,0,0-.792-2.879,5.383,5.383,0,0,0-1.978-2.06,5.673,5.673,0,0,0-2.988-.764q-3.628,0-5.1,2.646a13.743,13.743,0,0,0-1.474,6.74v.928q0,9.387,6.6,9.387a6.367,6.367,0,0,0,2.838-.628,5.188,5.188,0,0,0,2.046-1.746,4.922,4.922,0,0,0,.846-2.538Z" fill="#fff"/>
    </g>
  </g>
</svg>
