<svg xmlns="http://www.w3.org/2000/svg" width="114.358" height="76.193" viewBox="0 0 114.358 76.193">
  <g id="Group_18" data-name="Group 18" transform="translate(-442.821 -406.742)">
    <g id="Group_19" data-name="Group 19">
      <path id="Path_10" data-name="Path 10" d="M498.3,460.173v5.239a13.951,13.951,0,0,1-4.42.655,7.851,7.851,0,0,1-5.676-1.992q-2.073-1.992-2.074-6.358v-16.7h-4.8V436h4.8V423.61h6.795V436h5.184v5.021h-5.184v16.235a3.276,3.276,0,0,0,.764,2.524,3.394,3.394,0,0,0,2.292.669A10.709,10.709,0,0,0,498.3,460.173Z" fill="#fff"/>
      <path id="Path_11" data-name="Path 11" d="M513.426,452.914l-2.974,3.03v9.577h-6.767V423.61h6.767v24.039l2.019-2.511L520.548,436h8.186l-10.942,12.279,12.088,17.245h-7.858Z" fill="#fff"/>
      <path id="Path_12" data-name="Path 12" d="M557.179,455.7a9.485,9.485,0,0,1-1.719,5.212,11.591,11.591,0,0,1-4.366,3.765,12.957,12.957,0,0,1-5.976,1.392,13.42,13.42,0,0,1-7.435-1.965,12.03,12.03,0,0,1-4.543-5.334,18.343,18.343,0,0,1-1.5-7.545V450.3a18.2,18.2,0,0,1,1.515-7.545,12.145,12.145,0,0,1,4.543-5.334,14.734,14.734,0,0,1,13.629-.559,10.454,10.454,0,0,1,4.243,3.942,11.624,11.624,0,0,1,1.61,5.813h-6.412a6.634,6.634,0,0,0-.792-2.879,5.383,5.383,0,0,0-1.978-2.06,5.673,5.673,0,0,0-2.988-.764q-3.628,0-5.1,2.646a13.743,13.743,0,0,0-1.474,6.74v.928q0,9.387,6.6,9.387a6.367,6.367,0,0,0,2.838-.628,5.188,5.188,0,0,0,2.046-1.746,4.922,4.922,0,0,0,.846-2.538Z" fill="#fff"/>
    </g>
    <g id="Group_123" data-name="Group 123" transform="translate(442.821 378.769)">
      <g id="Group_1" data-name="Group 1" transform="translate(0 27.973)">
        <g id="Group_1-2" data-name="Group 1" transform="translate(0 0)">
          <g id="Path_1" data-name="Path 1" transform="translate(-230.764 -234.536)" fill="none">
            <path d="M258,310.729a1.432,1.432,0,0,1-.7-.184l-.051-.03-5.11-3-11.364-6.675a19.432,19.432,0,0,1-9.921-15.208q-.08-.881-.081-1.784t.081-1.784V266.925a1.439,1.439,0,0,1,2.062-1.3,1.423,1.423,0,0,1,.2.117l4.967,2.915h0l11.707,6.876a13.5,13.5,0,0,1,1.439.926,19.535,19.535,0,0,1,5.17,5.419,18.838,18.838,0,0,1,3.045,10.2q0,.126,0,.253V309.29A1.439,1.439,0,0,1,258,310.729Z" stroke="none"/>
            <path d="M 257.4347229003906 308.3087768554688 L 257.4347229003906 307.5126342773438 L 257.4347229003906 300.9379272460938 L 257.4347229003906 292.3312683105469 C 257.4347229003906 292.2548522949219 257.4341430664062 292.1788330078125 257.4331970214844 292.1020202636719 C 257.3934936523438 288.7637939453125 256.4775085449219 285.6916809082031 254.7106323242188 282.9709167480469 L 254.7067413330078 282.9649047851562 L 254.702880859375 282.9588928222656 C 253.4793395996094 281.044921875 251.9179992675781 279.408447265625 250.062255859375 278.094970703125 L 250.0550384521484 278.08984375 L 250.0478668212891 278.0846557617188 C 249.3582763671875 277.5873718261719 248.8889007568359 277.3290405273438 248.8445434570312 277.3049011230469 L 248.8121490478516 277.2882385253906 L 248.7656402587891 277.2608947753906 L 237.0589752197266 270.3853759765625 L 235.4382019042969 269.4320373535156 L 232.844970703125 267.9100952148438 L 232.844970703125 275.1950988769531 L 232.844970703125 282.0611572265625 L 232.844970703125 282.1519165039062 L 232.8367614746094 282.2423095703125 C 232.7884826660156 282.7730407714844 232.7640075683594 283.3123779296875 232.7640075683594 283.8452758789062 C 232.7640075683594 284.3782348632812 232.7884826660156 284.9174499511719 232.8367309570312 285.4479064941406 C 233.3586883544922 291.1815490722656 236.6863098144531 296.2812194824219 241.7381286621094 299.0895080566406 L 241.7588653564453 299.1010437011719 L 241.7793273925781 299.113037109375 L 253.1435546875 305.7881469726562 L 257.4347229003906 308.3087768554688 M 257.9959411621094 310.7285461425781 C 257.7398071289062 310.7285461425781 257.4996337890625 310.6612548828125 257.2913208007812 310.5440673828125 L 257.2401733398438 310.5140075683594 L 252.1305847167969 307.5126342773438 L 240.7663879394531 300.8375549316406 C 235.2915649414062 297.7941284179688 231.4414672851562 292.1817626953125 230.844970703125 285.6292114257812 C 230.7915344238281 285.0418395996094 230.7640075683594 284.44677734375 230.7640075683594 283.8452758789062 C 230.7640075683594 283.2438049316406 230.7915344238281 282.6487121582031 230.844970703125 282.0611572265625 L 230.844970703125 275.1950988769531 L 230.844970703125 266.9246826171875 C 230.844970703125 266.1300354003906 231.4892883300781 265.4859008789062 232.2839660644531 265.4859008789062 C 232.5071716308594 265.4859008789062 232.7185668945312 265.53662109375 232.906982421875 265.6275329589844 C 232.9769592285156 265.6611022949219 233.0436401367188 265.7005920410156 233.1067504882812 265.7447204589844 L 238.0733032226562 268.6595458984375 L 238.0718383789062 268.6608276367188 L 249.7785034179688 275.5363464355469 C 249.7785034179688 275.5363464355469 250.3512268066406 275.8376159667969 251.2177124023438 276.4624938964844 C 253.271240234375 277.9159851074219 255.0303344726562 279.7579040527344 256.3879699707031 281.8816528320312 C 258.0485534667969 284.438720703125 259.38232421875 287.811767578125 259.4330444335938 292.0782470703125 C 259.43408203125 292.1623229980469 259.4347229003906 292.24658203125 259.4347229003906 292.3312683105469 L 259.4347229003906 300.9379272460938 L 259.4347229003906 307.5126342773438 L 259.4347229003906 309.28955078125 C 259.4347229003906 310.084228515625 258.7905883789062 310.7285461425781 257.9959411621094 310.7285461425781 Z" stroke="none" fill="#e6fd36"/>
          </g>
          <g id="Path_2" data-name="Path 2" transform="translate(-230.764 -116.004)" fill="none">
            <path d="M258,116a1.432,1.432,0,0,0-.7.184l-.051.03-5.11,3-11.364,6.675a19.432,19.432,0,0,0-9.921,15.208q-.08.881-.081,1.784t.081,1.784v15.136a1.437,1.437,0,0,0,2.262,1.18l4.967-2.915h0l11.707-6.876a13.5,13.5,0,0,0,1.439-.926,19.536,19.536,0,0,0,5.17-5.419,18.838,18.838,0,0,0,3.045-10.2q0-.126,0-.253V117.443A1.439,1.439,0,0,0,258,116Z" stroke="none"/>
            <path d="M 257.4347229003906 118.4237213134766 L 253.1435241699219 120.9444122314453 L 241.7793273925781 127.6194915771484 L 241.7588653564453 127.6315155029297 L 241.7381286621094 127.6430511474609 C 236.6863098144531 130.4513549804688 233.3586730957031 135.5509948730469 232.8367309570312 141.2844543457031 C 232.7884826660156 141.8150787353516 232.7640075683594 142.3543395996094 232.7640075683594 142.8872375488281 C 232.7640075683594 143.4200897216797 232.7884826660156 143.9594421386719 232.8367309570312 144.4902801513672 L 232.844970703125 144.5806427001953 L 232.844970703125 144.67138671875 L 232.844970703125 151.5374145507812 L 232.844970703125 158.8224487304688 L 234.6331481933594 157.7729797363281 L 234.6323852539062 157.7723388671875 L 237.0589752197266 156.3471527099609 L 248.7656402587891 149.4716186523438 L 248.7994995117188 149.4508972167969 L 248.8440551757812 149.4278869628906 C 248.8852081298828 149.405517578125 249.3555603027344 149.1471252441406 250.0478668212891 148.6478729248047 L 250.0550384521484 148.6427001953125 L 250.062255859375 148.6375885009766 C 251.9180145263672 147.3240661621094 253.4793395996094 145.6876068115234 254.7028656005859 143.773681640625 L 254.7067260742188 143.7676391601562 L 254.7106323242188 143.7616271972656 C 256.4775085449219 141.0408935546875 257.3934936523438 137.96875 257.4331970214844 134.6295471191406 C 257.4341430664062 134.5536804199219 257.4347229003906 134.4776611328125 257.4347229003906 134.4012756347656 L 257.4347229003906 125.7945861816406 L 257.4347229003906 119.2198944091797 L 257.4347229003906 118.4237213134766 M 257.9959411621094 116.0039825439453 C 258.7905883789062 116.0039825439453 259.4347229003906 116.6483154296875 259.4347229003906 117.4429779052734 L 259.4347229003906 119.2198944091797 L 259.4347229003906 125.7945861816406 L 259.4347229003906 134.4012756347656 C 259.4347229003906 134.4859466552734 259.43408203125 134.5702056884766 259.4330444335938 134.6542816162109 C 259.38232421875 138.9207763671875 258.0485534667969 142.2938385009766 256.3879699707031 144.8509063720703 C 255.0303344726562 146.9746246337891 253.271240234375 148.8165435791016 251.2177124023438 150.2700500488281 C 250.3512268066406 150.8949279785156 249.7785034179688 151.1961822509766 249.7785034179688 151.1961822509766 L 238.0718383789062 158.0717163085938 L 238.0733032226562 158.0729675292969 L 233.1067504882812 160.9878234863281 C 233.0436401367188 161.0319213867188 232.9769592285156 161.0714569091797 232.906982421875 161.1050109863281 C 232.7185668945312 161.1959228515625 232.5071716308594 161.2466278076172 232.2839660644531 161.2466278076172 C 231.4892883300781 161.2466278076172 230.844970703125 160.6024932861328 230.844970703125 159.8078308105469 L 230.844970703125 151.5374145507812 L 230.844970703125 144.67138671875 C 230.7915344238281 144.0837860107422 230.7640075683594 143.4887084960938 230.7640075683594 142.8872375488281 C 230.7640075683594 142.2857513427734 230.7915344238281 141.6907043457031 230.844970703125 141.1032867431641 C 231.4414672851562 134.5507659912109 235.2915649414062 128.9384307861328 240.7663879394531 125.8949890136719 L 252.1305847167969 119.2198944091797 L 257.2401733398438 116.2184906005859 L 257.2913208007812 116.1884613037109 C 257.4996337890625 116.0712738037109 257.7398071289062 116.0039825439453 257.9959411621094 116.0039825439453 Z" stroke="none" fill="#e6fd36"/>
          </g>
        </g>
      </g>
    </g>
  </g>
</svg>
