<svg xmlns="http://www.w3.org/2000/svg" width="203" height="203" viewBox="0 0 203 203">
  <g id="Group_165" data-name="Group 165" transform="translate(-420 -2226)">
    <circle id="Ellipse_3" data-name="Ellipse 3" cx="101.5" cy="101.5" r="101.5" transform="translate(420 2226)" fill="#e6fd36"/>
    <path id="Icon_awesome-pencil-ruler" data-name="Icon awesome-pencil-ruler" d="M18.291,40.78,40.78,18.3l-7.373-7.373L23.1,21.23a1.323,1.323,0,0,1-1.873,0l-1.873-1.873a1.323,1.323,0,0,1,0-1.873L29.661,7.176,24.04,1.553a5.3,5.3,0,0,0-7.5,0L1.553,16.544a5.3,5.3,0,0,0,0,7.5L18.291,40.78ZM83.205,21.263a8.028,8.028,0,0,0,0-11.351L75.644,2.35a8.03,8.03,0,0,0-11.355,0L56.6,10.039,75.515,28.955ZM52.818,13.822,3.189,63.444.054,81.4a3.547,3.547,0,0,0,4.109,4.1l17.955-3.148L71.734,32.736ZM84,61.518,78.383,55.9,68.076,66.2a1.323,1.323,0,0,1-1.873,0L64.33,64.33a1.326,1.326,0,0,1,0-1.873L74.636,52.15l-7.376-7.376L44.772,67.259,61.517,84a5.3,5.3,0,0,0,7.5,0L84,69.014a5.3,5.3,0,0,0,0-7.5Z" transform="translate(563.779 2370.279) rotate(180)" fill="#454545"/>
  </g>
</svg>
