<svg xmlns="http://www.w3.org/2000/svg" width="203" height="203" viewBox="0 0 203 203">
  <g id="Group_166" data-name="Group 166" transform="translate(-420 -2226)">
    <circle id="Ellipse_3" data-name="Ellipse 3" cx="101.5" cy="101.5" r="101.5" transform="translate(420 2226)" fill="#e6fd36"/>
    <path id="Icon_awesome-paper-plane" data-name="Icon awesome-paper-plane" d="M71.378.482l-69.5,40.1a3.6,3.6,0,0,0,.33,6.478l15.94,6.688L61.226,15.778a.9.9,0,0,1,1.29,1.245L26.391,61.034V73.105a3.6,3.6,0,0,0,6.373,2.369l9.522-11.591,18.684,7.828a3.609,3.609,0,0,0,4.948-2.729L76.716,4.2A3.6,3.6,0,0,0,71.378.482Z" transform="translate(482.614 2289.522)" fill="#454545"/>
  </g>
</svg>
