<svg xmlns="http://www.w3.org/2000/svg" width="203" height="203" viewBox="0 0 203 203">
  <g id="Group_166" data-name="Group 166" transform="translate(-420 -2226)">
    <circle id="Ellipse_3" data-name="Ellipse 3" cx="101.5" cy="101.5" r="101.5" transform="translate(420 2226)" fill="#e6fd36"/>
    <path id="Icon_awesome-laptop-code" data-name="Icon awesome-laptop-code" d="M38.665,39.669a2.426,2.426,0,0,0,3.431,0l1.715-1.715a2.426,2.426,0,0,0,0-3.431L38.4,29.109l5.414-5.416a2.426,2.426,0,0,0,0-3.431l-1.715-1.715a2.426,2.426,0,0,0-3.431,0l-8.845,8.845a2.426,2.426,0,0,0,0,3.431l8.846,8.845Zm14.556-1.713,1.715,1.715a2.426,2.426,0,0,0,3.431,0l8.845-8.845a2.426,2.426,0,0,0,0-3.431L58.367,18.55a2.426,2.426,0,0,0-3.431,0l-1.715,1.715a2.426,2.426,0,0,0,0,3.431l5.414,5.414-5.414,5.416a2.426,2.426,0,0,0,0,3.431ZM94.6,63.07H57.845a4.779,4.779,0,0,1-4.964,4.852H43.664A5.148,5.148,0,0,1,38.7,63.07H2.426A2.433,2.433,0,0,0,0,65.5v2.426a9.732,9.732,0,0,0,9.7,9.7H87.328a9.732,9.732,0,0,0,9.7-9.7V65.5A2.433,2.433,0,0,0,94.6,63.07ZM87.328,7.277A7.3,7.3,0,0,0,80.05,0H16.98A7.3,7.3,0,0,0,9.7,7.277V58.218H87.328Z" transform="translate(472 2288.688)" fill="#454545"/>
  </g>
</svg>
