<svg xmlns="http://www.w3.org/2000/svg" width="203" height="203" viewBox="0 0 203 203">
  <g id="Group_170" data-name="Group 170" transform="translate(-420 -2226)">
    <circle id="Ellipse_3" data-name="Ellipse 3" cx="101.5" cy="101.5" r="101.5" transform="translate(420 2226)" fill="#e6fd36"/>
    <path id="Icon_awesome-pen-alt" data-name="Icon awesome-pen-alt" d="M73.565,10.958l-8.88-8.88a7.1,7.1,0,0,0-10.033,0L46.3,10.432,65.211,29.345l8.355-8.355a7.1,7.1,0,0,0,0-10.033ZM37.1,7.925a5.908,5.908,0,0,0-8.356,0L11.2,25.475a2.362,2.362,0,0,0,0,3.342l3.343,3.343a2.364,2.364,0,0,0,3.343,0L32.929,17.117l3.343,3.342L13.881,42.848A48.316,48.316,0,0,0,.026,71.669l0,.034A3.546,3.546,0,0,0,3.935,75.62,48.313,48.313,0,0,0,32.794,61.762L61.867,32.689,49.639,20.46,37.1,7.925Z" transform="translate(483.679 2289.679)" fill="#454545"/>
  </g>
</svg>
