<svg xmlns="http://www.w3.org/2000/svg" width="203" height="203" viewBox="0 0 203 203">
  <g id="Group_171" data-name="Group 171" transform="translate(-420 -2226)">
    <circle id="Ellipse_3" data-name="Ellipse 3" cx="101.5" cy="101.5" r="101.5" transform="translate(420 2226)" fill="#e6fd36"/>
    <path id="Icon_open-puzzle-piece" data-name="Icon open-puzzle-piece" d="M28.366,0a9.576,9.576,0,0,0-6.808,2.647A9.576,9.576,0,0,0,18.91,9.455c0,2.647,1.7,4.538,2.647,6.808a6.811,6.811,0,0,1,.284,2.647H0V75.642H21.842a9.336,9.336,0,0,0-.284-2.647c-.946-2.269-2.647-4.16-2.647-6.808a9.576,9.576,0,0,1,2.647-6.808,9.576,9.576,0,0,1,6.808-2.647,9.576,9.576,0,0,1,6.808,2.647,9.576,9.576,0,0,1,2.647,6.808c0,2.647-1.7,4.538-2.647,6.808a6.811,6.811,0,0,0-.284,2.647H56.731V53.8a9.336,9.336,0,0,1,2.647.284c2.269.946,4.16,2.647,6.808,2.647a9.458,9.458,0,1,0,0-18.91c-2.647,0-4.538,1.7-6.808,2.647a6.811,6.811,0,0,1-2.647.284V18.91H34.89a9.337,9.337,0,0,1,.284-2.647c.946-2.269,2.647-4.16,2.647-6.808a9.576,9.576,0,0,0-2.647-6.808A9.576,9.576,0,0,0,28.366,0Z" transform="translate(489.679 2284.679)" fill="#454545"/>
  </g>
</svg>
