<svg xmlns="http://www.w3.org/2000/svg" width="203" height="203" viewBox="0 0 203 203">
  <g id="Group_169" data-name="Group 169" transform="translate(-420 -2226)">
    <circle id="Ellipse_3" data-name="Ellipse 3" cx="101.5" cy="101.5" r="101.5" transform="translate(420 2226)" fill="#e6fd36"/>
    <path id="Icon_awesome-search" data-name="Icon awesome-search" d="M76.556,67.111,61.442,52a3.636,3.636,0,0,0-2.577-1.061H56.393a31.517,31.517,0,1,0-5.457,5.457v2.471A3.636,3.636,0,0,0,52,61.442L67.111,76.556a3.623,3.623,0,0,0,5.139,0l4.29-4.29A3.655,3.655,0,0,0,76.556,67.111ZM31.532,50.936a19.4,19.4,0,1,1,19.4-19.4A19.393,19.393,0,0,1,31.532,50.936Z" transform="translate(481.71 2288.688)" fill="#454545"/>
  </g>
</svg>
