<svg xmlns="http://www.w3.org/2000/svg" width="203" height="203" viewBox="0 0 203 203">
  <g id="Group_167" data-name="Group 167" transform="translate(-420 -2226)">
    <circle id="Ellipse_3" data-name="Ellipse 3" cx="101.5" cy="101.5" r="101.5" transform="translate(420 2226)" fill="#e6fd36"/>
    <path id="Icon_awesome-shopping-cart" data-name="Icon awesome-shopping-cart" d="M79.527,45.374l7.119-31.322a3.614,3.614,0,0,0-3.524-4.415H23.974L22.594,2.89A3.614,3.614,0,0,0,19.053,0H3.614A3.614,3.614,0,0,0,0,3.614V6.023A3.614,3.614,0,0,0,3.614,9.637H14.137L24.716,61.354a8.434,8.434,0,1,0,10.1,1.29h31.57a8.431,8.431,0,1,0,9.577-1.567l.831-3.656a3.614,3.614,0,0,0-3.524-4.415H32.845l-.986-4.819H76A3.614,3.614,0,0,0,79.527,45.374Z" transform="translate(477.146 2288.95)" fill="#454545"/>
  </g>
</svg>
