<svg xmlns="http://www.w3.org/2000/svg" width="203" height="203" viewBox="0 0 203 203">
  <g id="Group_165" data-name="Group 165" transform="translate(-420 -2226)">
    <circle id="Ellipse_3" data-name="Ellipse 3" cx="101.5" cy="101.5" r="101.5" transform="translate(420 2226)" fill="#e6fd36"/>
    <path id="Icon_awesome-window-maximize" data-name="Icon awesome-window-maximize" d="M79.854,2.25H8.261A8.263,8.263,0,0,0,0,10.511V71.089A8.263,8.263,0,0,0,8.261,79.35H79.854a8.263,8.263,0,0,0,8.261-8.261V10.511A8.263,8.263,0,0,0,79.854,2.25ZM77.1,29.786H11.014V15.329a2.071,2.071,0,0,1,2.065-2.065H75.035A2.071,2.071,0,0,1,77.1,15.329Z" transform="translate(476.943 2286.7)" fill="#454545"/>
  </g>
</svg>
